%TF.GenerationSoftware,KiCad,Pcbnew,(6.0.0)*%
%TF.CreationDate,2022-01-23T09:41:54-05:00*%
%TF.ProjectId,Feather-SAMD21-MIC39100,46656174-6865-4722-9d53-414d4432312d,rev?*%
%TF.SameCoordinates,Original*%
%TF.FileFunction,Legend,Top*%
%TF.FilePolarity,Positive*%
%FSLAX46Y46*%
G04 Gerber Fmt 4.6, Leading zero omitted, Abs format (unit mm)*
G04 Created by KiCad (PCBNEW (6.0.0)) date 2022-01-23 09:41:54*
%MOMM*%
%LPD*%
G01*
G04 APERTURE LIST*
%ADD10C,0.150000*%
%ADD11C,0.120000*%
G04 APERTURE END LIST*
D10*
X66746475Y-69016571D02*
X67079809Y-69016571D01*
X67222666Y-69540380D02*
X66746475Y-69540380D01*
X66746475Y-68540380D01*
X67222666Y-68540380D01*
X67651237Y-69540380D02*
X67651237Y-68540380D01*
X68222666Y-69540380D01*
X68222666Y-68540380D01*
X65794095Y-79700380D02*
X65794095Y-78700380D01*
X66032190Y-78700380D01*
X66175047Y-78748000D01*
X66270285Y-78843238D01*
X66317904Y-78938476D01*
X66365523Y-79128952D01*
X66365523Y-79271809D01*
X66317904Y-79462285D01*
X66270285Y-79557523D01*
X66175047Y-79652761D01*
X66032190Y-79700380D01*
X65794095Y-79700380D01*
X67317904Y-79700380D02*
X66746476Y-79700380D01*
X67032190Y-79700380D02*
X67032190Y-78700380D01*
X66936952Y-78843238D01*
X66841714Y-78938476D01*
X66746476Y-78986095D01*
X68270285Y-79700380D02*
X67698857Y-79700380D01*
X67984571Y-79700380D02*
X67984571Y-78700380D01*
X67889333Y-78843238D01*
X67794095Y-78938476D01*
X67698857Y-78986095D01*
X66746475Y-87320380D02*
X66746475Y-86320380D01*
X66984571Y-86320380D01*
X67127428Y-86368000D01*
X67222666Y-86463238D01*
X67270285Y-86558476D01*
X67317904Y-86748952D01*
X67317904Y-86891809D01*
X67270285Y-87082285D01*
X67222666Y-87177523D01*
X67127428Y-87272761D01*
X66984571Y-87320380D01*
X66746475Y-87320380D01*
X68175047Y-86320380D02*
X67984571Y-86320380D01*
X67889332Y-86368000D01*
X67841713Y-86415619D01*
X67746475Y-86558476D01*
X67698856Y-86748952D01*
X67698856Y-87129904D01*
X67746475Y-87225142D01*
X67794094Y-87272761D01*
X67889332Y-87320380D01*
X68079809Y-87320380D01*
X68175047Y-87272761D01*
X68222666Y-87225142D01*
X68270285Y-87129904D01*
X68270285Y-86891809D01*
X68222666Y-86796571D01*
X68175047Y-86748952D01*
X68079809Y-86701333D01*
X67889332Y-86701333D01*
X67794094Y-86748952D01*
X67746475Y-86796571D01*
X67698856Y-86891809D01*
X65794095Y-74620380D02*
X65794095Y-73620380D01*
X66032190Y-73620380D01*
X66175047Y-73668000D01*
X66270285Y-73763238D01*
X66317904Y-73858476D01*
X66365523Y-74048952D01*
X66365523Y-74191809D01*
X66317904Y-74382285D01*
X66270285Y-74477523D01*
X66175047Y-74572761D01*
X66032190Y-74620380D01*
X65794095Y-74620380D01*
X67317904Y-74620380D02*
X66746476Y-74620380D01*
X67032190Y-74620380D02*
X67032190Y-73620380D01*
X66936952Y-73763238D01*
X66841714Y-73858476D01*
X66746476Y-73906095D01*
X67651238Y-73620380D02*
X68270285Y-73620380D01*
X67936952Y-74001333D01*
X68079809Y-74001333D01*
X68175047Y-74048952D01*
X68222666Y-74096571D01*
X68270285Y-74191809D01*
X68270285Y-74429904D01*
X68222666Y-74525142D01*
X68175047Y-74572761D01*
X68079809Y-74620380D01*
X67794095Y-74620380D01*
X67698857Y-74572761D01*
X67651238Y-74525142D01*
X65889332Y-92352761D02*
X66032189Y-92400380D01*
X66270285Y-92400380D01*
X66365523Y-92352761D01*
X66413142Y-92305142D01*
X66460761Y-92209904D01*
X66460761Y-92114666D01*
X66413142Y-92019428D01*
X66365523Y-91971809D01*
X66270285Y-91924190D01*
X66079809Y-91876571D01*
X65984570Y-91828952D01*
X65936951Y-91781333D01*
X65889332Y-91686095D01*
X65889332Y-91590857D01*
X65936951Y-91495619D01*
X65984570Y-91448000D01*
X66079809Y-91400380D01*
X66317904Y-91400380D01*
X66460761Y-91448000D01*
X67460761Y-92305142D02*
X67413142Y-92352761D01*
X67270285Y-92400380D01*
X67175047Y-92400380D01*
X67032189Y-92352761D01*
X66936951Y-92257523D01*
X66889332Y-92162285D01*
X66841713Y-91971809D01*
X66841713Y-91828952D01*
X66889332Y-91638476D01*
X66936951Y-91543238D01*
X67032189Y-91448000D01*
X67175047Y-91400380D01*
X67270285Y-91400380D01*
X67413142Y-91448000D01*
X67460761Y-91495619D01*
X68365523Y-92400380D02*
X67889332Y-92400380D01*
X67889332Y-91400380D01*
X66746475Y-89860380D02*
X66746475Y-88860380D01*
X66984571Y-88860380D01*
X67127428Y-88908000D01*
X67222666Y-89003238D01*
X67270285Y-89098476D01*
X67317904Y-89288952D01*
X67317904Y-89431809D01*
X67270285Y-89622285D01*
X67222666Y-89717523D01*
X67127428Y-89812761D01*
X66984571Y-89860380D01*
X66746475Y-89860380D01*
X68222666Y-88860380D02*
X67746475Y-88860380D01*
X67698856Y-89336571D01*
X67746475Y-89288952D01*
X67841713Y-89241333D01*
X68079809Y-89241333D01*
X68175047Y-89288952D01*
X68222666Y-89336571D01*
X68270285Y-89431809D01*
X68270285Y-89669904D01*
X68222666Y-89765142D01*
X68175047Y-89812761D01*
X68079809Y-89860380D01*
X67841713Y-89860380D01*
X67746475Y-89812761D01*
X67698856Y-89765142D01*
X65841714Y-94892761D02*
X65984571Y-94940380D01*
X66222666Y-94940380D01*
X66317904Y-94892761D01*
X66365523Y-94845142D01*
X66413142Y-94749904D01*
X66413142Y-94654666D01*
X66365523Y-94559428D01*
X66317904Y-94511809D01*
X66222666Y-94464190D01*
X66032190Y-94416571D01*
X65936952Y-94368952D01*
X65889333Y-94321333D01*
X65841714Y-94226095D01*
X65841714Y-94130857D01*
X65889333Y-94035619D01*
X65936952Y-93988000D01*
X66032190Y-93940380D01*
X66270285Y-93940380D01*
X66413142Y-93988000D01*
X66841714Y-94940380D02*
X66841714Y-93940380D01*
X67079809Y-93940380D01*
X67222666Y-93988000D01*
X67317904Y-94083238D01*
X67365523Y-94178476D01*
X67413142Y-94368952D01*
X67413142Y-94511809D01*
X67365523Y-94702285D01*
X67317904Y-94797523D01*
X67222666Y-94892761D01*
X67079809Y-94940380D01*
X66841714Y-94940380D01*
X67794095Y-94654666D02*
X68270285Y-94654666D01*
X67698857Y-94940380D02*
X68032190Y-93940380D01*
X68365523Y-94940380D01*
X66413142Y-66476571D02*
X66555999Y-66524190D01*
X66603618Y-66571809D01*
X66651238Y-66667047D01*
X66651238Y-66809904D01*
X66603618Y-66905142D01*
X66555999Y-66952761D01*
X66460761Y-67000380D01*
X66079809Y-67000380D01*
X66079809Y-66000380D01*
X66413142Y-66000380D01*
X66508380Y-66048000D01*
X66555999Y-66095619D01*
X66603618Y-66190857D01*
X66603618Y-66286095D01*
X66555999Y-66381333D01*
X66508380Y-66428952D01*
X66413142Y-66476571D01*
X66079809Y-66476571D01*
X67032190Y-66714666D02*
X67508380Y-66714666D01*
X66936952Y-67000380D02*
X67270285Y-66000380D01*
X67603618Y-67000380D01*
X67794095Y-66000380D02*
X68365523Y-66000380D01*
X68079809Y-67000380D02*
X68079809Y-66000380D01*
X65698857Y-71080380D02*
X65698857Y-71889904D01*
X65746476Y-71985142D01*
X65794095Y-72032761D01*
X65889333Y-72080380D01*
X66079809Y-72080380D01*
X66175047Y-72032761D01*
X66222666Y-71985142D01*
X66270285Y-71889904D01*
X66270285Y-71080380D01*
X66698857Y-72032761D02*
X66841714Y-72080380D01*
X67079809Y-72080380D01*
X67175047Y-72032761D01*
X67222666Y-71985142D01*
X67270285Y-71889904D01*
X67270285Y-71794666D01*
X67222666Y-71699428D01*
X67175047Y-71651809D01*
X67079809Y-71604190D01*
X66889333Y-71556571D01*
X66794095Y-71508952D01*
X66746476Y-71461333D01*
X66698857Y-71366095D01*
X66698857Y-71270857D01*
X66746476Y-71175619D01*
X66794095Y-71128000D01*
X66889333Y-71080380D01*
X67127428Y-71080380D01*
X67270285Y-71128000D01*
X68032190Y-71556571D02*
X68175047Y-71604190D01*
X68222666Y-71651809D01*
X68270285Y-71747047D01*
X68270285Y-71889904D01*
X68222666Y-71985142D01*
X68175047Y-72032761D01*
X68079809Y-72080380D01*
X67698857Y-72080380D01*
X67698857Y-71080380D01*
X68032190Y-71080380D01*
X68127428Y-71128000D01*
X68175047Y-71175619D01*
X68222666Y-71270857D01*
X68222666Y-71366095D01*
X68175047Y-71461333D01*
X68127428Y-71508952D01*
X68032190Y-71556571D01*
X67698857Y-71556571D01*
X65794095Y-82240380D02*
X65794095Y-81240380D01*
X66032190Y-81240380D01*
X66175047Y-81288000D01*
X66270285Y-81383238D01*
X66317904Y-81478476D01*
X66365523Y-81668952D01*
X66365523Y-81811809D01*
X66317904Y-82002285D01*
X66270285Y-82097523D01*
X66175047Y-82192761D01*
X66032190Y-82240380D01*
X65794095Y-82240380D01*
X67317904Y-82240380D02*
X66746476Y-82240380D01*
X67032190Y-82240380D02*
X67032190Y-81240380D01*
X66936952Y-81383238D01*
X66841714Y-81478476D01*
X66746476Y-81526095D01*
X67936952Y-81240380D02*
X68032190Y-81240380D01*
X68127428Y-81288000D01*
X68175047Y-81335619D01*
X68222666Y-81430857D01*
X68270285Y-81621333D01*
X68270285Y-81859428D01*
X68222666Y-82049904D01*
X68175047Y-82145142D01*
X68127428Y-82192761D01*
X68032190Y-82240380D01*
X67936952Y-82240380D01*
X67841714Y-82192761D01*
X67794095Y-82145142D01*
X67746476Y-82049904D01*
X67698857Y-81859428D01*
X67698857Y-81621333D01*
X67746476Y-81430857D01*
X67794095Y-81335619D01*
X67841714Y-81288000D01*
X67936952Y-81240380D01*
X65794095Y-77160380D02*
X65794095Y-76160380D01*
X66032190Y-76160380D01*
X66175047Y-76208000D01*
X66270285Y-76303238D01*
X66317904Y-76398476D01*
X66365523Y-76588952D01*
X66365523Y-76731809D01*
X66317904Y-76922285D01*
X66270285Y-77017523D01*
X66175047Y-77112761D01*
X66032190Y-77160380D01*
X65794095Y-77160380D01*
X67317904Y-77160380D02*
X66746476Y-77160380D01*
X67032190Y-77160380D02*
X67032190Y-76160380D01*
X66936952Y-76303238D01*
X66841714Y-76398476D01*
X66746476Y-76446095D01*
X67698857Y-76255619D02*
X67746476Y-76208000D01*
X67841714Y-76160380D01*
X68079809Y-76160380D01*
X68175047Y-76208000D01*
X68222666Y-76255619D01*
X68270285Y-76350857D01*
X68270285Y-76446095D01*
X68222666Y-76588952D01*
X67651238Y-77160380D01*
X68270285Y-77160380D01*
X66746475Y-84780380D02*
X66746475Y-83780380D01*
X66984571Y-83780380D01*
X67127428Y-83828000D01*
X67222666Y-83923238D01*
X67270285Y-84018476D01*
X67317904Y-84208952D01*
X67317904Y-84351809D01*
X67270285Y-84542285D01*
X67222666Y-84637523D01*
X67127428Y-84732761D01*
X66984571Y-84780380D01*
X66746475Y-84780380D01*
X67794094Y-84780380D02*
X67984571Y-84780380D01*
X68079809Y-84732761D01*
X68127428Y-84685142D01*
X68222666Y-84542285D01*
X68270285Y-84351809D01*
X68270285Y-83970857D01*
X68222666Y-83875619D01*
X68175047Y-83828000D01*
X68079809Y-83780380D01*
X67889332Y-83780380D01*
X67794094Y-83828000D01*
X67746475Y-83875619D01*
X67698856Y-83970857D01*
X67698856Y-84208952D01*
X67746475Y-84304190D01*
X67794094Y-84351809D01*
X67889332Y-84399428D01*
X68079809Y-84399428D01*
X68175047Y-84351809D01*
X68222666Y-84304190D01*
X68270285Y-84208952D01*
X51054095Y-94242000D02*
X50958857Y-94194380D01*
X50816000Y-94194380D01*
X50673142Y-94242000D01*
X50577904Y-94337238D01*
X50530285Y-94432476D01*
X50482666Y-94622952D01*
X50482666Y-94765809D01*
X50530285Y-94956285D01*
X50577904Y-95051523D01*
X50673142Y-95146761D01*
X50816000Y-95194380D01*
X50911238Y-95194380D01*
X51054095Y-95146761D01*
X51101714Y-95099142D01*
X51101714Y-94765809D01*
X50911238Y-94765809D01*
X51530285Y-95194380D02*
X51530285Y-94194380D01*
X52101714Y-95194380D01*
X52101714Y-94194380D01*
X52577904Y-95194380D02*
X52577904Y-94194380D01*
X52816000Y-94194380D01*
X52958857Y-94242000D01*
X53054095Y-94337238D01*
X53101714Y-94432476D01*
X53149333Y-94622952D01*
X53149333Y-94765809D01*
X53101714Y-94956285D01*
X53054095Y-95051523D01*
X52958857Y-95146761D01*
X52816000Y-95194380D01*
X52577904Y-95194380D01*
X50482667Y-74588666D02*
X50958857Y-74588666D01*
X50387429Y-74874380D02*
X50720762Y-73874380D01*
X51054095Y-74874380D01*
X51292191Y-73874380D02*
X51911238Y-73874380D01*
X51577905Y-74255333D01*
X51720762Y-74255333D01*
X51816000Y-74302952D01*
X51863619Y-74350571D01*
X51911238Y-74445809D01*
X51911238Y-74683904D01*
X51863619Y-74779142D01*
X51816000Y-74826761D01*
X51720762Y-74874380D01*
X51435048Y-74874380D01*
X51339810Y-74826761D01*
X51292191Y-74779142D01*
X50482667Y-66968666D02*
X50958857Y-66968666D01*
X50387429Y-67254380D02*
X50720762Y-66254380D01*
X51054095Y-67254380D01*
X51577905Y-66254380D02*
X51673143Y-66254380D01*
X51768381Y-66302000D01*
X51816000Y-66349619D01*
X51863619Y-66444857D01*
X51911238Y-66635333D01*
X51911238Y-66873428D01*
X51863619Y-67063904D01*
X51816000Y-67159142D01*
X51768381Y-67206761D01*
X51673143Y-67254380D01*
X51577905Y-67254380D01*
X51482667Y-67206761D01*
X51435048Y-67159142D01*
X51387429Y-67063904D01*
X51339810Y-66873428D01*
X51339810Y-66635333D01*
X51387429Y-66444857D01*
X51435048Y-66349619D01*
X51482667Y-66302000D01*
X51577905Y-66254380D01*
X50387429Y-91654380D02*
X50958857Y-91654380D01*
X50673143Y-92654380D02*
X50673143Y-91654380D01*
X51196953Y-91654380D02*
X51863619Y-92654380D01*
X51863619Y-91654380D02*
X51196953Y-92654380D01*
X50482667Y-79668666D02*
X50958857Y-79668666D01*
X50387429Y-79954380D02*
X50720762Y-78954380D01*
X51054095Y-79954380D01*
X51863619Y-78954380D02*
X51387429Y-78954380D01*
X51339810Y-79430571D01*
X51387429Y-79382952D01*
X51482667Y-79335333D01*
X51720762Y-79335333D01*
X51816000Y-79382952D01*
X51863619Y-79430571D01*
X51911238Y-79525809D01*
X51911238Y-79763904D01*
X51863619Y-79859142D01*
X51816000Y-79906761D01*
X51720762Y-79954380D01*
X51482667Y-79954380D01*
X51387429Y-79906761D01*
X51339810Y-79859142D01*
X50482667Y-77128666D02*
X50958857Y-77128666D01*
X50387429Y-77414380D02*
X50720762Y-76414380D01*
X51054095Y-77414380D01*
X51816000Y-76747714D02*
X51816000Y-77414380D01*
X51577905Y-76366761D02*
X51339810Y-77081047D01*
X51958857Y-77081047D01*
X50482667Y-69508666D02*
X50958857Y-69508666D01*
X50387429Y-69794380D02*
X50720762Y-68794380D01*
X51054095Y-69794380D01*
X51911238Y-69794380D02*
X51339810Y-69794380D01*
X51625524Y-69794380D02*
X51625524Y-68794380D01*
X51530286Y-68937238D01*
X51435048Y-69032476D01*
X51339810Y-69080095D01*
X51101714Y-90114380D02*
X50768381Y-89638190D01*
X50530285Y-90114380D02*
X50530285Y-89114380D01*
X50911238Y-89114380D01*
X51006476Y-89162000D01*
X51054095Y-89209619D01*
X51101714Y-89304857D01*
X51101714Y-89447714D01*
X51054095Y-89542952D01*
X51006476Y-89590571D01*
X50911238Y-89638190D01*
X50530285Y-89638190D01*
X51435047Y-89114380D02*
X52101714Y-90114380D01*
X52101714Y-89114380D02*
X51435047Y-90114380D01*
X50482666Y-82446761D02*
X50625523Y-82494380D01*
X50863619Y-82494380D01*
X50958857Y-82446761D01*
X51006476Y-82399142D01*
X51054095Y-82303904D01*
X51054095Y-82208666D01*
X51006476Y-82113428D01*
X50958857Y-82065809D01*
X50863619Y-82018190D01*
X50673142Y-81970571D01*
X50577904Y-81922952D01*
X50530285Y-81875333D01*
X50482666Y-81780095D01*
X50482666Y-81684857D01*
X50530285Y-81589619D01*
X50577904Y-81542000D01*
X50673142Y-81494380D01*
X50911238Y-81494380D01*
X51054095Y-81542000D01*
X52054095Y-82399142D02*
X52006476Y-82446761D01*
X51863619Y-82494380D01*
X51768381Y-82494380D01*
X51625523Y-82446761D01*
X51530285Y-82351523D01*
X51482666Y-82256285D01*
X51435047Y-82065809D01*
X51435047Y-81922952D01*
X51482666Y-81732476D01*
X51530285Y-81637238D01*
X51625523Y-81542000D01*
X51768381Y-81494380D01*
X51863619Y-81494380D01*
X52006476Y-81542000D01*
X52054095Y-81589619D01*
X52482666Y-82494380D02*
X52482666Y-81494380D01*
X53054095Y-82494380D02*
X52625523Y-81922952D01*
X53054095Y-81494380D02*
X52482666Y-82065809D01*
X50387428Y-56713428D02*
X50435047Y-56665809D01*
X50530285Y-56618190D01*
X50720761Y-56713428D01*
X50815999Y-56665809D01*
X50863618Y-56618190D01*
X51815999Y-57094380D02*
X51482666Y-56618190D01*
X51244571Y-57094380D02*
X51244571Y-56094380D01*
X51625523Y-56094380D01*
X51720761Y-56142000D01*
X51768380Y-56189619D01*
X51815999Y-56284857D01*
X51815999Y-56427714D01*
X51768380Y-56522952D01*
X51720761Y-56570571D01*
X51625523Y-56618190D01*
X51244571Y-56618190D01*
X52196952Y-57046761D02*
X52339809Y-57094380D01*
X52577904Y-57094380D01*
X52673142Y-57046761D01*
X52720761Y-56999142D01*
X52768380Y-56903904D01*
X52768380Y-56808666D01*
X52720761Y-56713428D01*
X52673142Y-56665809D01*
X52577904Y-56618190D01*
X52387428Y-56570571D01*
X52292190Y-56522952D01*
X52244571Y-56475333D01*
X52196952Y-56380095D01*
X52196952Y-56284857D01*
X52244571Y-56189619D01*
X52292190Y-56142000D01*
X52387428Y-56094380D01*
X52625523Y-56094380D01*
X52768380Y-56142000D01*
X53054095Y-56094380D02*
X53625523Y-56094380D01*
X53339809Y-57094380D02*
X53339809Y-56094380D01*
X50530285Y-59253428D02*
X51292190Y-59253428D01*
X50911238Y-59634380D02*
X50911238Y-58872476D01*
X51673142Y-58634380D02*
X52292190Y-58634380D01*
X51958857Y-59015333D01*
X52101714Y-59015333D01*
X52196952Y-59062952D01*
X52244571Y-59110571D01*
X52292190Y-59205809D01*
X52292190Y-59443904D01*
X52244571Y-59539142D01*
X52196952Y-59586761D01*
X52101714Y-59634380D01*
X51816000Y-59634380D01*
X51720761Y-59586761D01*
X51673142Y-59539142D01*
X52577904Y-58634380D02*
X52911238Y-59634380D01*
X53244571Y-58634380D01*
X50482667Y-72048666D02*
X50958857Y-72048666D01*
X50387429Y-72334380D02*
X50720762Y-71334380D01*
X51054095Y-72334380D01*
X51339810Y-71429619D02*
X51387429Y-71382000D01*
X51482667Y-71334380D01*
X51720762Y-71334380D01*
X51816000Y-71382000D01*
X51863619Y-71429619D01*
X51911238Y-71524857D01*
X51911238Y-71620095D01*
X51863619Y-71762952D01*
X51292191Y-72334380D01*
X51911238Y-72334380D01*
X50482667Y-61888666D02*
X50958857Y-61888666D01*
X50387429Y-62174380D02*
X50720762Y-61174380D01*
X51054095Y-62174380D01*
X51958857Y-62174380D02*
X51625524Y-61698190D01*
X51387429Y-62174380D02*
X51387429Y-61174380D01*
X51768381Y-61174380D01*
X51863619Y-61222000D01*
X51911238Y-61269619D01*
X51958857Y-61364857D01*
X51958857Y-61507714D01*
X51911238Y-61602952D01*
X51863619Y-61650571D01*
X51768381Y-61698190D01*
X51387429Y-61698190D01*
X52387429Y-61650571D02*
X52720762Y-61650571D01*
X52863619Y-62174380D02*
X52387429Y-62174380D01*
X52387429Y-61174380D01*
X52863619Y-61174380D01*
X53625524Y-61650571D02*
X53292191Y-61650571D01*
X53292191Y-62174380D02*
X53292191Y-61174380D01*
X53768381Y-61174380D01*
X50530286Y-85034380D02*
X50530286Y-84034380D01*
X50863619Y-84748666D01*
X51196952Y-84034380D01*
X51196952Y-85034380D01*
X51863619Y-84034380D02*
X52054095Y-84034380D01*
X52149333Y-84082000D01*
X52244571Y-84177238D01*
X52292190Y-84367714D01*
X52292190Y-84701047D01*
X52244571Y-84891523D01*
X52149333Y-84986761D01*
X52054095Y-85034380D01*
X51863619Y-85034380D01*
X51768381Y-84986761D01*
X51673143Y-84891523D01*
X51625524Y-84701047D01*
X51625524Y-84367714D01*
X51673143Y-84177238D01*
X51768381Y-84082000D01*
X51863619Y-84034380D01*
X50850895Y-63762000D02*
X50755657Y-63714380D01*
X50612800Y-63714380D01*
X50469942Y-63762000D01*
X50374704Y-63857238D01*
X50327085Y-63952476D01*
X50279466Y-64142952D01*
X50279466Y-64285809D01*
X50327085Y-64476285D01*
X50374704Y-64571523D01*
X50469942Y-64666761D01*
X50612800Y-64714380D01*
X50708038Y-64714380D01*
X50850895Y-64666761D01*
X50898514Y-64619142D01*
X50898514Y-64285809D01*
X50708038Y-64285809D01*
X51327085Y-64714380D02*
X51327085Y-63714380D01*
X51898514Y-64714380D01*
X51898514Y-63714380D01*
X52374704Y-64714380D02*
X52374704Y-63714380D01*
X52612800Y-63714380D01*
X52755657Y-63762000D01*
X52850895Y-63857238D01*
X52898514Y-63952476D01*
X52946133Y-64142952D01*
X52946133Y-64285809D01*
X52898514Y-64476285D01*
X52850895Y-64571523D01*
X52755657Y-64666761D01*
X52612800Y-64714380D01*
X52374704Y-64714380D01*
X50530286Y-87574380D02*
X50530286Y-86574380D01*
X50863619Y-87288666D01*
X51196953Y-86574380D01*
X51196953Y-87574380D01*
X51673143Y-87574380D02*
X51673143Y-86574380D01*
%TO.C,R7*%
X64841380Y-90793866D02*
X64365190Y-91127200D01*
X64841380Y-91365295D02*
X63841380Y-91365295D01*
X63841380Y-90984342D01*
X63889000Y-90889104D01*
X63936619Y-90841485D01*
X64031857Y-90793866D01*
X64174714Y-90793866D01*
X64269952Y-90841485D01*
X64317571Y-90889104D01*
X64365190Y-90984342D01*
X64365190Y-91365295D01*
X63841380Y-90460533D02*
X63841380Y-89793866D01*
X64841380Y-90222438D01*
%TO.C,C5*%
X58490142Y-63158666D02*
X58537761Y-63206285D01*
X58585380Y-63349142D01*
X58585380Y-63444380D01*
X58537761Y-63587238D01*
X58442523Y-63682476D01*
X58347285Y-63730095D01*
X58156809Y-63777714D01*
X58013952Y-63777714D01*
X57823476Y-63730095D01*
X57728238Y-63682476D01*
X57633000Y-63587238D01*
X57585380Y-63444380D01*
X57585380Y-63349142D01*
X57633000Y-63206285D01*
X57680619Y-63158666D01*
X57585380Y-62253904D02*
X57585380Y-62730095D01*
X58061571Y-62777714D01*
X58013952Y-62730095D01*
X57966333Y-62634857D01*
X57966333Y-62396761D01*
X58013952Y-62301523D01*
X58061571Y-62253904D01*
X58156809Y-62206285D01*
X58394904Y-62206285D01*
X58490142Y-62253904D01*
X58537761Y-62301523D01*
X58585380Y-62396761D01*
X58585380Y-62634857D01*
X58537761Y-62730095D01*
X58490142Y-62777714D01*
%TO.C,D4*%
X58169646Y-100193095D02*
X57169646Y-100193095D01*
X57169646Y-99955000D01*
X57217266Y-99812142D01*
X57312504Y-99716904D01*
X57407742Y-99669285D01*
X57598218Y-99621666D01*
X57741075Y-99621666D01*
X57931551Y-99669285D01*
X58026789Y-99716904D01*
X58122027Y-99812142D01*
X58169646Y-99955000D01*
X58169646Y-100193095D01*
X57502980Y-98764523D02*
X58169646Y-98764523D01*
X57122027Y-99002619D02*
X57836313Y-99240714D01*
X57836313Y-98621666D01*
%TO.C,D8*%
X54833780Y-100153695D02*
X53833780Y-100153695D01*
X53833780Y-99915600D01*
X53881400Y-99772742D01*
X53976638Y-99677504D01*
X54071876Y-99629885D01*
X54262352Y-99582266D01*
X54405209Y-99582266D01*
X54595685Y-99629885D01*
X54690923Y-99677504D01*
X54786161Y-99772742D01*
X54833780Y-99915600D01*
X54833780Y-100153695D01*
X54262352Y-99010838D02*
X54214733Y-99106076D01*
X54167114Y-99153695D01*
X54071876Y-99201314D01*
X54024257Y-99201314D01*
X53929019Y-99153695D01*
X53881400Y-99106076D01*
X53833780Y-99010838D01*
X53833780Y-98820361D01*
X53881400Y-98725123D01*
X53929019Y-98677504D01*
X54024257Y-98629885D01*
X54071876Y-98629885D01*
X54167114Y-98677504D01*
X54214733Y-98725123D01*
X54262352Y-98820361D01*
X54262352Y-99010838D01*
X54309971Y-99106076D01*
X54357590Y-99153695D01*
X54452828Y-99201314D01*
X54643304Y-99201314D01*
X54738542Y-99153695D01*
X54786161Y-99106076D01*
X54833780Y-99010838D01*
X54833780Y-98820361D01*
X54786161Y-98725123D01*
X54738542Y-98677504D01*
X54643304Y-98629885D01*
X54452828Y-98629885D01*
X54357590Y-98677504D01*
X54309971Y-98725123D01*
X54262352Y-98820361D01*
%TO.C,C1*%
X56778142Y-64428666D02*
X56825761Y-64476285D01*
X56873380Y-64619142D01*
X56873380Y-64714380D01*
X56825761Y-64857238D01*
X56730523Y-64952476D01*
X56635285Y-65000095D01*
X56444809Y-65047714D01*
X56301952Y-65047714D01*
X56111476Y-65000095D01*
X56016238Y-64952476D01*
X55921000Y-64857238D01*
X55873380Y-64714380D01*
X55873380Y-64619142D01*
X55921000Y-64476285D01*
X55968619Y-64428666D01*
X56873380Y-63476285D02*
X56873380Y-64047714D01*
X56873380Y-63762000D02*
X55873380Y-63762000D01*
X56016238Y-63857238D01*
X56111476Y-63952476D01*
X56159095Y-64047714D01*
%TO.C,D3*%
X61505512Y-100179095D02*
X60505512Y-100179095D01*
X60505512Y-99941000D01*
X60553132Y-99798142D01*
X60648370Y-99702904D01*
X60743608Y-99655285D01*
X60934084Y-99607666D01*
X61076941Y-99607666D01*
X61267417Y-99655285D01*
X61362655Y-99702904D01*
X61457893Y-99798142D01*
X61505512Y-99941000D01*
X61505512Y-100179095D01*
X60505512Y-99274333D02*
X60505512Y-98655285D01*
X60886465Y-98988619D01*
X60886465Y-98845761D01*
X60934084Y-98750523D01*
X60981703Y-98702904D01*
X61076941Y-98655285D01*
X61315036Y-98655285D01*
X61410274Y-98702904D01*
X61457893Y-98750523D01*
X61505512Y-98845761D01*
X61505512Y-99131476D01*
X61457893Y-99226714D01*
X61410274Y-99274333D01*
%TO.C,C4*%
X61555333Y-64669942D02*
X61507714Y-64717561D01*
X61364857Y-64765180D01*
X61269619Y-64765180D01*
X61126761Y-64717561D01*
X61031523Y-64622323D01*
X60983904Y-64527085D01*
X60936285Y-64336609D01*
X60936285Y-64193752D01*
X60983904Y-64003276D01*
X61031523Y-63908038D01*
X61126761Y-63812800D01*
X61269619Y-63765180D01*
X61364857Y-63765180D01*
X61507714Y-63812800D01*
X61555333Y-63860419D01*
X62412476Y-64098514D02*
X62412476Y-64765180D01*
X62174380Y-63717561D02*
X61936285Y-64431847D01*
X62555333Y-64431847D01*
%TO.C,C3*%
X59980533Y-59361342D02*
X59932914Y-59408961D01*
X59790057Y-59456580D01*
X59694819Y-59456580D01*
X59551961Y-59408961D01*
X59456723Y-59313723D01*
X59409104Y-59218485D01*
X59361485Y-59028009D01*
X59361485Y-58885152D01*
X59409104Y-58694676D01*
X59456723Y-58599438D01*
X59551961Y-58504200D01*
X59694819Y-58456580D01*
X59790057Y-58456580D01*
X59932914Y-58504200D01*
X59980533Y-58551819D01*
X60313866Y-58456580D02*
X60932914Y-58456580D01*
X60599580Y-58837533D01*
X60742438Y-58837533D01*
X60837676Y-58885152D01*
X60885295Y-58932771D01*
X60932914Y-59028009D01*
X60932914Y-59266104D01*
X60885295Y-59361342D01*
X60837676Y-59408961D01*
X60742438Y-59456580D01*
X60456723Y-59456580D01*
X60361485Y-59408961D01*
X60313866Y-59361342D01*
%TO.C,D13*%
X66568580Y-53055685D02*
X65568580Y-53055685D01*
X65568580Y-52817590D01*
X65616200Y-52674733D01*
X65711438Y-52579495D01*
X65806676Y-52531876D01*
X65997152Y-52484257D01*
X66140009Y-52484257D01*
X66330485Y-52531876D01*
X66425723Y-52579495D01*
X66520961Y-52674733D01*
X66568580Y-52817590D01*
X66568580Y-53055685D01*
X66568580Y-51531876D02*
X66568580Y-52103304D01*
X66568580Y-51817590D02*
X65568580Y-51817590D01*
X65711438Y-51912828D01*
X65806676Y-52008066D01*
X65854295Y-52103304D01*
X65568580Y-51198542D02*
X65568580Y-50579495D01*
X65949533Y-50912828D01*
X65949533Y-50769971D01*
X65997152Y-50674733D01*
X66044771Y-50627114D01*
X66140009Y-50579495D01*
X66378104Y-50579495D01*
X66473342Y-50627114D01*
X66520961Y-50674733D01*
X66568580Y-50769971D01*
X66568580Y-51055685D01*
X66520961Y-51150923D01*
X66473342Y-51198542D01*
%TO.C,Y1*%
X56292809Y-67159190D02*
X56292809Y-67635380D01*
X55959476Y-66635380D02*
X56292809Y-67159190D01*
X56626142Y-66635380D01*
X57483285Y-67635380D02*
X56911857Y-67635380D01*
X57197571Y-67635380D02*
X57197571Y-66635380D01*
X57102333Y-66778238D01*
X57007095Y-66873476D01*
X56911857Y-66921095D01*
%TO.C,D1*%
X53157380Y-51792095D02*
X52157380Y-51792095D01*
X52157380Y-51554000D01*
X52205000Y-51411142D01*
X52300238Y-51315904D01*
X52395476Y-51268285D01*
X52585952Y-51220666D01*
X52728809Y-51220666D01*
X52919285Y-51268285D01*
X53014523Y-51315904D01*
X53109761Y-51411142D01*
X53157380Y-51554000D01*
X53157380Y-51792095D01*
X53157380Y-50268285D02*
X53157380Y-50839714D01*
X53157380Y-50554000D02*
X52157380Y-50554000D01*
X52300238Y-50649238D01*
X52395476Y-50744476D01*
X52443095Y-50839714D01*
%TO.C,D7*%
X64866780Y-100153695D02*
X63866780Y-100153695D01*
X63866780Y-99915600D01*
X63914400Y-99772742D01*
X64009638Y-99677504D01*
X64104876Y-99629885D01*
X64295352Y-99582266D01*
X64438209Y-99582266D01*
X64628685Y-99629885D01*
X64723923Y-99677504D01*
X64819161Y-99772742D01*
X64866780Y-99915600D01*
X64866780Y-100153695D01*
X63866780Y-99248933D02*
X63866780Y-98582266D01*
X64866780Y-99010838D01*
%TO.C,A1*%
X58721714Y-49061666D02*
X59197904Y-49061666D01*
X58626476Y-49347380D02*
X58959809Y-48347380D01*
X59293142Y-49347380D01*
X60150285Y-49347380D02*
X59578857Y-49347380D01*
X59864571Y-49347380D02*
X59864571Y-48347380D01*
X59769333Y-48490238D01*
X59674095Y-48585476D01*
X59578857Y-48633095D01*
%TO.C,C2*%
X51801733Y-65812942D02*
X51754114Y-65860561D01*
X51611257Y-65908180D01*
X51516019Y-65908180D01*
X51373161Y-65860561D01*
X51277923Y-65765323D01*
X51230304Y-65670085D01*
X51182685Y-65479609D01*
X51182685Y-65336752D01*
X51230304Y-65146276D01*
X51277923Y-65051038D01*
X51373161Y-64955800D01*
X51516019Y-64908180D01*
X51611257Y-64908180D01*
X51754114Y-64955800D01*
X51801733Y-65003419D01*
X52182685Y-65003419D02*
X52230304Y-64955800D01*
X52325542Y-64908180D01*
X52563638Y-64908180D01*
X52658876Y-64955800D01*
X52706495Y-65003419D01*
X52754114Y-65098657D01*
X52754114Y-65193895D01*
X52706495Y-65336752D01*
X52135066Y-65908180D01*
X52754114Y-65908180D01*
%TO.C,R4*%
X58169646Y-90819266D02*
X57693456Y-91152600D01*
X58169646Y-91390695D02*
X57169646Y-91390695D01*
X57169646Y-91009742D01*
X57217266Y-90914504D01*
X57264885Y-90866885D01*
X57360123Y-90819266D01*
X57502980Y-90819266D01*
X57598218Y-90866885D01*
X57645837Y-90914504D01*
X57693456Y-91009742D01*
X57693456Y-91390695D01*
X57502980Y-89962123D02*
X58169646Y-89962123D01*
X57122027Y-90200219D02*
X57836313Y-90438314D01*
X57836313Y-89819266D01*
%TO.C,C7*%
X54687742Y-72201066D02*
X54735361Y-72248685D01*
X54782980Y-72391542D01*
X54782980Y-72486780D01*
X54735361Y-72629638D01*
X54640123Y-72724876D01*
X54544885Y-72772495D01*
X54354409Y-72820114D01*
X54211552Y-72820114D01*
X54021076Y-72772495D01*
X53925838Y-72724876D01*
X53830600Y-72629638D01*
X53782980Y-72486780D01*
X53782980Y-72391542D01*
X53830600Y-72248685D01*
X53878219Y-72201066D01*
X53782980Y-71867733D02*
X53782980Y-71201066D01*
X54782980Y-71629638D01*
%TO.C,R3*%
X61480112Y-90819266D02*
X61003922Y-91152600D01*
X61480112Y-91390695D02*
X60480112Y-91390695D01*
X60480112Y-91009742D01*
X60527732Y-90914504D01*
X60575351Y-90866885D01*
X60670589Y-90819266D01*
X60813446Y-90819266D01*
X60908684Y-90866885D01*
X60956303Y-90914504D01*
X61003922Y-91009742D01*
X61003922Y-91390695D01*
X60480112Y-90485933D02*
X60480112Y-89866885D01*
X60861065Y-90200219D01*
X60861065Y-90057361D01*
X60908684Y-89962123D01*
X60956303Y-89914504D01*
X61051541Y-89866885D01*
X61289636Y-89866885D01*
X61384874Y-89914504D01*
X61432493Y-89962123D01*
X61480112Y-90057361D01*
X61480112Y-90343076D01*
X61432493Y-90438314D01*
X61384874Y-90485933D01*
%TO.C,U2*%
X54914895Y-76846180D02*
X54914895Y-77655704D01*
X54962514Y-77750942D01*
X55010133Y-77798561D01*
X55105371Y-77846180D01*
X55295847Y-77846180D01*
X55391085Y-77798561D01*
X55438704Y-77750942D01*
X55486323Y-77655704D01*
X55486323Y-76846180D01*
X55914895Y-76941419D02*
X55962514Y-76893800D01*
X56057752Y-76846180D01*
X56295847Y-76846180D01*
X56391085Y-76893800D01*
X56438704Y-76941419D01*
X56486323Y-77036657D01*
X56486323Y-77131895D01*
X56438704Y-77274752D01*
X55867276Y-77846180D01*
X56486323Y-77846180D01*
%TO.C,C8*%
X58812133Y-82094342D02*
X58764514Y-82141961D01*
X58621657Y-82189580D01*
X58526419Y-82189580D01*
X58383561Y-82141961D01*
X58288323Y-82046723D01*
X58240704Y-81951485D01*
X58193085Y-81761009D01*
X58193085Y-81618152D01*
X58240704Y-81427676D01*
X58288323Y-81332438D01*
X58383561Y-81237200D01*
X58526419Y-81189580D01*
X58621657Y-81189580D01*
X58764514Y-81237200D01*
X58812133Y-81284819D01*
X59383561Y-81618152D02*
X59288323Y-81570533D01*
X59240704Y-81522914D01*
X59193085Y-81427676D01*
X59193085Y-81380057D01*
X59240704Y-81284819D01*
X59288323Y-81237200D01*
X59383561Y-81189580D01*
X59574038Y-81189580D01*
X59669276Y-81237200D01*
X59716895Y-81284819D01*
X59764514Y-81380057D01*
X59764514Y-81427676D01*
X59716895Y-81522914D01*
X59669276Y-81570533D01*
X59574038Y-81618152D01*
X59383561Y-81618152D01*
X59288323Y-81665771D01*
X59240704Y-81713390D01*
X59193085Y-81808628D01*
X59193085Y-81999104D01*
X59240704Y-82094342D01*
X59288323Y-82141961D01*
X59383561Y-82189580D01*
X59574038Y-82189580D01*
X59669276Y-82141961D01*
X59716895Y-82094342D01*
X59764514Y-81999104D01*
X59764514Y-81808628D01*
X59716895Y-81713390D01*
X59669276Y-81665771D01*
X59574038Y-81618152D01*
%TO.C,R8*%
X54808380Y-90920866D02*
X54332190Y-91254200D01*
X54808380Y-91492295D02*
X53808380Y-91492295D01*
X53808380Y-91111342D01*
X53856000Y-91016104D01*
X53903619Y-90968485D01*
X53998857Y-90920866D01*
X54141714Y-90920866D01*
X54236952Y-90968485D01*
X54284571Y-91016104D01*
X54332190Y-91111342D01*
X54332190Y-91492295D01*
X54236952Y-90349438D02*
X54189333Y-90444676D01*
X54141714Y-90492295D01*
X54046476Y-90539914D01*
X53998857Y-90539914D01*
X53903619Y-90492295D01*
X53856000Y-90444676D01*
X53808380Y-90349438D01*
X53808380Y-90158961D01*
X53856000Y-90063723D01*
X53903619Y-90016104D01*
X53998857Y-89968485D01*
X54046476Y-89968485D01*
X54141714Y-90016104D01*
X54189333Y-90063723D01*
X54236952Y-90158961D01*
X54236952Y-90349438D01*
X54284571Y-90444676D01*
X54332190Y-90492295D01*
X54427428Y-90539914D01*
X54617904Y-90539914D01*
X54713142Y-90492295D01*
X54760761Y-90444676D01*
X54808380Y-90349438D01*
X54808380Y-90158961D01*
X54760761Y-90063723D01*
X54713142Y-90016104D01*
X54617904Y-89968485D01*
X54427428Y-89968485D01*
X54332190Y-90016104D01*
X54284571Y-90063723D01*
X54236952Y-90158961D01*
%TO.C,R13*%
X68241942Y-55900580D02*
X67908609Y-55424390D01*
X67670514Y-55900580D02*
X67670514Y-54900580D01*
X68051466Y-54900580D01*
X68146704Y-54948200D01*
X68194323Y-54995819D01*
X68241942Y-55091057D01*
X68241942Y-55233914D01*
X68194323Y-55329152D01*
X68146704Y-55376771D01*
X68051466Y-55424390D01*
X67670514Y-55424390D01*
X69194323Y-55900580D02*
X68622895Y-55900580D01*
X68908609Y-55900580D02*
X68908609Y-54900580D01*
X68813371Y-55043438D01*
X68718133Y-55138676D01*
X68622895Y-55186295D01*
X69527657Y-54900580D02*
X70146704Y-54900580D01*
X69813371Y-55281533D01*
X69956228Y-55281533D01*
X70051466Y-55329152D01*
X70099085Y-55376771D01*
X70146704Y-55472009D01*
X70146704Y-55710104D01*
X70099085Y-55805342D01*
X70051466Y-55852961D01*
X69956228Y-55900580D01*
X69670514Y-55900580D01*
X69575276Y-55852961D01*
X69527657Y-55805342D01*
%TO.C,SW1*%
X57986561Y-61505933D02*
X58034180Y-61363076D01*
X58034180Y-61124980D01*
X57986561Y-61029742D01*
X57938942Y-60982123D01*
X57843704Y-60934504D01*
X57748466Y-60934504D01*
X57653228Y-60982123D01*
X57605609Y-61029742D01*
X57557990Y-61124980D01*
X57510371Y-61315457D01*
X57462752Y-61410695D01*
X57415133Y-61458314D01*
X57319895Y-61505933D01*
X57224657Y-61505933D01*
X57129419Y-61458314D01*
X57081800Y-61410695D01*
X57034180Y-61315457D01*
X57034180Y-61077361D01*
X57081800Y-60934504D01*
X57034180Y-60601171D02*
X58034180Y-60363076D01*
X57319895Y-60172600D01*
X58034180Y-59982123D01*
X57034180Y-59744028D01*
X58034180Y-58839266D02*
X58034180Y-59410695D01*
X58034180Y-59124980D02*
X57034180Y-59124980D01*
X57177038Y-59220219D01*
X57272276Y-59315457D01*
X57319895Y-59410695D01*
%TO.C,J1*%
X58950266Y-55408580D02*
X58950266Y-56122866D01*
X58902647Y-56265723D01*
X58807409Y-56360961D01*
X58664552Y-56408580D01*
X58569314Y-56408580D01*
X59950266Y-56408580D02*
X59378838Y-56408580D01*
X59664552Y-56408580D02*
X59664552Y-55408580D01*
X59569314Y-55551438D01*
X59474076Y-55646676D01*
X59378838Y-55694295D01*
%TO.C,R1*%
X50557133Y-55621180D02*
X50223800Y-55144990D01*
X49985704Y-55621180D02*
X49985704Y-54621180D01*
X50366657Y-54621180D01*
X50461895Y-54668800D01*
X50509514Y-54716419D01*
X50557133Y-54811657D01*
X50557133Y-54954514D01*
X50509514Y-55049752D01*
X50461895Y-55097371D01*
X50366657Y-55144990D01*
X49985704Y-55144990D01*
X51509514Y-55621180D02*
X50938085Y-55621180D01*
X51223800Y-55621180D02*
X51223800Y-54621180D01*
X51128561Y-54764038D01*
X51033323Y-54859276D01*
X50938085Y-54906895D01*
%TO.C,U1*%
X68326095Y-62342780D02*
X68326095Y-63152304D01*
X68373714Y-63247542D01*
X68421333Y-63295161D01*
X68516571Y-63342780D01*
X68707047Y-63342780D01*
X68802285Y-63295161D01*
X68849904Y-63247542D01*
X68897523Y-63152304D01*
X68897523Y-62342780D01*
X69897523Y-63342780D02*
X69326095Y-63342780D01*
X69611809Y-63342780D02*
X69611809Y-62342780D01*
X69516571Y-62485638D01*
X69421333Y-62580876D01*
X69326095Y-62628495D01*
%TO.C,C6*%
X61555333Y-66143142D02*
X61507714Y-66190761D01*
X61364857Y-66238380D01*
X61269619Y-66238380D01*
X61126761Y-66190761D01*
X61031523Y-66095523D01*
X60983904Y-66000285D01*
X60936285Y-65809809D01*
X60936285Y-65666952D01*
X60983904Y-65476476D01*
X61031523Y-65381238D01*
X61126761Y-65286000D01*
X61269619Y-65238380D01*
X61364857Y-65238380D01*
X61507714Y-65286000D01*
X61555333Y-65333619D01*
X62412476Y-65238380D02*
X62222000Y-65238380D01*
X62126761Y-65286000D01*
X62079142Y-65333619D01*
X61983904Y-65476476D01*
X61936285Y-65666952D01*
X61936285Y-66047904D01*
X61983904Y-66143142D01*
X62031523Y-66190761D01*
X62126761Y-66238380D01*
X62317238Y-66238380D01*
X62412476Y-66190761D01*
X62460095Y-66143142D01*
X62507714Y-66047904D01*
X62507714Y-65809809D01*
X62460095Y-65714571D01*
X62412476Y-65666952D01*
X62317238Y-65619333D01*
X62126761Y-65619333D01*
X62031523Y-65666952D01*
X61983904Y-65714571D01*
X61936285Y-65809809D01*
D11*
%TO.C,R7*%
X63866500Y-93064876D02*
X63866500Y-93574324D01*
X64911500Y-93064876D02*
X64911500Y-93574324D01*
%TO.C,C5*%
X59053000Y-63138267D02*
X59053000Y-62845733D01*
X60073000Y-63138267D02*
X60073000Y-62845733D01*
%TO.C,D4*%
X56982266Y-95948600D02*
X56982266Y-98408600D01*
X58452266Y-98408600D02*
X58452266Y-95948600D01*
X56982266Y-98408600D02*
X58452266Y-98408600D01*
%TO.C,D8*%
X55116400Y-98408600D02*
X55116400Y-95948600D01*
X53646400Y-95948600D02*
X53646400Y-98408600D01*
X53646400Y-98408600D02*
X55116400Y-98408600D01*
%TO.C,C1*%
X55501000Y-64115733D02*
X55501000Y-64408267D01*
X54481000Y-64115733D02*
X54481000Y-64408267D01*
%TO.C,D3*%
X60318132Y-98408600D02*
X61788132Y-98408600D01*
X61788132Y-98408600D02*
X61788132Y-95948600D01*
X60318132Y-95948600D02*
X60318132Y-98408600D01*
%TO.C,C4*%
X64611467Y-63802800D02*
X64318933Y-63802800D01*
X64611467Y-64822800D02*
X64318933Y-64822800D01*
%TO.C,C3*%
X59162733Y-58117200D02*
X59455267Y-58117200D01*
X59162733Y-57097200D02*
X59455267Y-57097200D01*
%TO.C,D13*%
X65378000Y-50257600D02*
X63908000Y-50257600D01*
X65378000Y-52717600D02*
X65378000Y-50257600D01*
X63908000Y-50257600D02*
X63908000Y-52717600D01*
%TO.C,Y1*%
X54396000Y-66308000D02*
X53046000Y-66308000D01*
X54396000Y-68058000D02*
X53046000Y-68058000D01*
%TO.C,D1*%
X53367000Y-50283000D02*
X53367000Y-52743000D01*
X54837000Y-52743000D02*
X54837000Y-50283000D01*
X54837000Y-50283000D02*
X53367000Y-50283000D01*
%TO.C,D7*%
X63654000Y-98383200D02*
X65124000Y-98383200D01*
X65124000Y-98383200D02*
X65124000Y-95923200D01*
X63654000Y-95923200D02*
X63654000Y-98383200D01*
%TO.C,A1*%
X47576000Y-57515000D02*
X47576000Y-55515000D01*
%TO.C,C2*%
X53977000Y-64115733D02*
X53977000Y-64408267D01*
X52957000Y-64115733D02*
X52957000Y-64408267D01*
%TO.C,R4*%
X57194766Y-93090276D02*
X57194766Y-93599724D01*
X58239766Y-93090276D02*
X58239766Y-93599724D01*
%TO.C,C7*%
X53443600Y-72180667D02*
X53443600Y-71888133D01*
X52423600Y-72180667D02*
X52423600Y-71888133D01*
%TO.C,R3*%
X60530632Y-93090276D02*
X60530632Y-93599724D01*
X61575632Y-93090276D02*
X61575632Y-93599724D01*
%TO.C,U2*%
X63681000Y-76381000D02*
X63681000Y-75931000D01*
X56461000Y-69611000D02*
X55171000Y-69611000D01*
X63231000Y-76381000D02*
X63681000Y-76381000D01*
X63681000Y-69161000D02*
X63681000Y-69611000D01*
X56461000Y-69161000D02*
X56461000Y-69611000D01*
X56911000Y-76381000D02*
X56461000Y-76381000D01*
X56461000Y-76381000D02*
X56461000Y-75931000D01*
X63231000Y-69161000D02*
X63681000Y-69161000D01*
X56911000Y-69161000D02*
X56461000Y-69161000D01*
%TO.C,C8*%
X60039467Y-80799400D02*
X59746933Y-80799400D01*
X60039467Y-79779400D02*
X59746933Y-79779400D01*
%TO.C,R8*%
X54903900Y-93090276D02*
X54903900Y-93599724D01*
X53858900Y-93090276D02*
X53858900Y-93599724D01*
%TO.C,R13*%
X66040724Y-55767500D02*
X65531276Y-55767500D01*
X66040724Y-54722500D02*
X65531276Y-54722500D01*
%TO.C,SW1*%
X55168000Y-61890000D02*
X55068000Y-61890000D01*
X53568000Y-57490000D02*
X53568000Y-61890000D01*
X55168000Y-57490000D02*
X55068000Y-57490000D01*
X56668000Y-61890000D02*
X56668000Y-57490000D01*
%TO.C,J1*%
X63228500Y-50149500D02*
X63228500Y-50399500D01*
X61028500Y-55099500D02*
X61028500Y-54649500D01*
X61028500Y-55099500D02*
X60578500Y-55099500D01*
X63228500Y-52699500D02*
X63228500Y-54549500D01*
X63228500Y-54549500D02*
X62778500Y-54549500D01*
X55428500Y-52699500D02*
X55428500Y-54549500D01*
X55428500Y-54549500D02*
X55878500Y-54549500D01*
X55428500Y-50149500D02*
X55428500Y-50399500D01*
%TO.C,R1*%
X52983676Y-55970700D02*
X53493124Y-55970700D01*
X52983676Y-54925700D02*
X53493124Y-54925700D01*
%TO.C,U1*%
X61813000Y-56407000D02*
X67823000Y-56407000D01*
X64063000Y-63227000D02*
X67823000Y-63227000D01*
X67823000Y-63227000D02*
X67823000Y-61967000D01*
X67823000Y-56407000D02*
X67823000Y-57667000D01*
%TO.C,C6*%
X64610367Y-65326800D02*
X64317833Y-65326800D01*
X64610367Y-66346800D02*
X64317833Y-66346800D01*
%TD*%
M02*
