M48
; DRILL file {KiCad (6.0.0)} date Sun Jan 23 09:41:57 2022
; FORMAT={-:-/ absolute / inch / decimal}
; #@! TF.CreationDate,2022-01-23T09:41:57-05:00
; #@! TF.GenerationSoftware,Kicad,Pcbnew,(6.0.0)
; #@! TF.FileFunction,Plated,1,2,PTH
FMAT,2
INCH
; #@! TA.AperFunction,Plated,PTH,ViaDrill
T1C0.0130
; #@! TA.AperFunction,Plated,PTH,ComponentDrill
T2C0.0236
; #@! TA.AperFunction,Plated,PTH,ComponentDrill
T3C0.0315
; #@! TA.AperFunction,Plated,PTH,ComponentDrill
T4C0.0335
%
G90
G05
T1
X1.995Y-3.245
X2.0114Y-2.682
X2.015Y-3.393
X2.025Y-3.195
X2.026Y-3.1489
X2.035Y-3.466
X2.058Y-2.475
X2.058Y-3.203
X2.0591Y-2.709
X2.06Y-2.53
X2.081Y-2.112
X2.081Y-3.278
X2.081Y-3.32
X2.093Y-3.238
X2.107Y-3.398
X2.113Y-3.054
X2.169Y-3.122
X2.171Y-3.411
X2.181Y-3.218
X2.1932Y-3.0102
X2.1969Y-3.381
X2.2045Y-2.4831
X2.205Y-3.342
X2.2051Y-3.1942
X2.216Y-3.309
X2.2289Y-3.17
X2.236Y-3.251
X2.243Y-3.286
X2.252Y-2.77
X2.269Y-3.399
X2.2759Y-2.6418
X2.277Y-2.8293
X2.277Y-2.881
X2.277Y-3.12
X2.283Y-3.186
X2.3019Y-3.4069
X2.3096Y-2.639
X2.3628Y-2.6179
X2.37Y-2.32
X2.37Y-2.5661
X2.374Y-3.2
X2.375Y-3.309
X2.376Y-2.761
X2.3966Y-2.6179
X2.4039Y-2.5661
X2.4171Y-3.335
X2.42Y-2.516
X2.436Y-2.772
X2.45Y-2.883
X2.451Y-3.253
X2.451Y-3.335
X2.461Y-2.838
X2.468Y-2.502
X2.473Y-2.771
X2.476Y-3.113
X2.497Y-3.085
X2.552Y-3.253
X2.552Y-3.334
X2.56Y-3.01
X2.5779Y-3.3119
X2.579Y-2.89
X2.593Y-3.053
X2.594Y-2.121
X2.596Y-2.776
X2.601Y-2.863
X2.603Y-3.277
X2.625Y-3.021
X2.633Y-2.956
X2.643Y-2.89
X2.6731Y-3.117
X2.6737Y-2.7953
X2.6768Y-2.7252
X2.717Y-2.239
T3
X1.94Y-2.225
X1.94Y-2.325
X1.94Y-2.425
X1.94Y-2.525
X1.94Y-2.625
X1.94Y-2.725
X1.94Y-2.825
X1.94Y-2.925
X1.94Y-3.025
X1.94Y-3.125
X1.94Y-3.225
X1.94Y-3.325
X1.94Y-3.425
X1.94Y-3.525
X1.94Y-3.625
X1.94Y-3.725
X2.74Y-2.625
X2.74Y-2.725
X2.74Y-2.825
X2.74Y-2.925
X2.74Y-3.025
X2.74Y-3.125
X2.74Y-3.225
X2.74Y-3.325
X2.74Y-3.425
X2.74Y-3.525
X2.74Y-3.625
X2.74Y-3.725
T4
X2.2373Y-2.1358
X2.4342Y-2.1358
T2
G00X2.198Y-2.0433
M15
G01X2.198Y-2.0157
M16
G05
G00X2.4736Y-2.0157
M15
G01X2.4736Y-2.0433
M16
G05
T0
M30
