%TF.GenerationSoftware,KiCad,Pcbnew,(6.0.0)*%
%TF.CreationDate,2022-01-23T09:41:53-05:00*%
%TF.ProjectId,Feather-SAMD21-MIC39100,46656174-6865-4722-9d53-414d4432312d,rev?*%
%TF.SameCoordinates,Original*%
%TF.FileFunction,Copper,L2,Bot*%
%TF.FilePolarity,Positive*%
%FSLAX46Y46*%
G04 Gerber Fmt 4.6, Leading zero omitted, Abs format (unit mm)*
G04 Created by KiCad (PCBNEW (6.0.0)) date 2022-01-23 09:41:53*
%MOMM*%
%LPD*%
G01*
G04 APERTURE LIST*
%TA.AperFunction,WasherPad*%
%ADD10C,3.200000*%
%TD*%
%TA.AperFunction,ComponentPad*%
%ADD11R,1.600000X1.600000*%
%TD*%
%TA.AperFunction,ComponentPad*%
%ADD12C,1.600000*%
%TD*%
%TA.AperFunction,ComponentPad*%
%ADD13C,1.450000*%
%TD*%
%TA.AperFunction,ComponentPad*%
%ADD14O,1.200000X1.900000*%
%TD*%
%TA.AperFunction,SMDPad,CuDef*%
%ADD15C,1.000000*%
%TD*%
%TA.AperFunction,ViaPad*%
%ADD16C,0.660400*%
%TD*%
%TA.AperFunction,Conductor*%
%ADD17C,0.254000*%
%TD*%
%TA.AperFunction,Conductor*%
%ADD18C,0.152400*%
%TD*%
G04 APERTURE END LIST*
D10*
%TO.P,A1,*%
%TO.N,*%
X68326000Y-52705000D03*
X50546000Y-52705000D03*
D11*
%TO.P,A1,1,~{RESET}*%
%TO.N,/~RESET*%
X49276000Y-56515000D03*
D12*
%TO.P,A1,2,3V3*%
%TO.N,+3V3*%
X49276000Y-59055000D03*
%TO.P,A1,3,AREF*%
%TO.N,/AREF*%
X49276000Y-61595000D03*
%TO.P,A1,4,GND*%
%TO.N,GND*%
X49276000Y-64135000D03*
%TO.P,A1,5,DAC0/A0*%
%TO.N,/A0*%
X49276000Y-66675000D03*
%TO.P,A1,6,A1*%
%TO.N,/A1*%
X49276000Y-69215000D03*
%TO.P,A1,7,A2*%
%TO.N,/A2*%
X49276000Y-71755000D03*
%TO.P,A1,8,A3*%
%TO.N,/A3*%
X49276000Y-74295000D03*
%TO.P,A1,9,A4*%
%TO.N,/A4*%
X49276000Y-76835000D03*
%TO.P,A1,10,A5*%
%TO.N,/A5*%
X49276000Y-79375000D03*
%TO.P,A1,11,SCK/D24*%
%TO.N,/SCK*%
X49276000Y-81915000D03*
%TO.P,A1,12,MOSI/D23*%
%TO.N,/MOSI*%
X49276000Y-84455000D03*
%TO.P,A1,13,MISO/D22*%
%TO.N,/MISO*%
X49276000Y-86995000D03*
%TO.P,A1,14,RX/D0*%
%TO.N,/D0*%
X49276000Y-89535000D03*
%TO.P,A1,15,TX/D1*%
%TO.N,/D1*%
X49276000Y-92075000D03*
%TO.P,A1,16,GND*%
%TO.N,GND*%
X49276000Y-94615000D03*
%TO.P,A1,17,SDA/D20*%
%TO.N,/SDA*%
X69596000Y-94615000D03*
%TO.P,A1,18,SCL/D21*%
%TO.N,/SCL*%
X69596000Y-92075000D03*
%TO.P,A1,19,D5*%
%TO.N,/D5*%
X69596000Y-89535000D03*
%TO.P,A1,20,D6*%
%TO.N,/D6*%
X69596000Y-86995000D03*
%TO.P,A1,21,D9*%
%TO.N,/D9*%
X69596000Y-84455000D03*
%TO.P,A1,22,D10*%
%TO.N,/D10*%
X69596000Y-81915000D03*
%TO.P,A1,23,D11*%
%TO.N,/D11*%
X69596000Y-79375000D03*
%TO.P,A1,24,D12*%
%TO.N,/D12*%
X69596000Y-76835000D03*
%TO.P,A1,25,D13*%
%TO.N,/D13*%
X69596000Y-74295000D03*
%TO.P,A1,26,USB*%
%TO.N,VBUS*%
X69596000Y-71755000D03*
%TO.P,A1,27,EN*%
%TO.N,/EN*%
X69596000Y-69215000D03*
%TO.P,A1,28,VBAT*%
%TO.N,/VBAT*%
X69596000Y-66675000D03*
%TD*%
D13*
%TO.P,J1,6,Shield*%
%TO.N,GND*%
X56828500Y-54249500D03*
D14*
X55828500Y-51549500D03*
D13*
X61828500Y-54249500D03*
D14*
X62828500Y-51549500D03*
%TD*%
D15*
%TO.P,SWDIO,1,1*%
%TO.N,/SWDIO*%
X56108600Y-65481200D03*
%TD*%
%TO.P,SWCLK,1,1*%
%TO.N,/SWCLK*%
X58724800Y-65506600D03*
%TD*%
D16*
%TO.N,GND*%
X65024000Y-76454000D03*
X60350400Y-70129400D03*
X50673000Y-82423000D03*
X56794400Y-82575400D03*
X55143400Y-86639400D03*
X66675000Y-76733400D03*
X51689000Y-88036400D03*
X60299600Y-81280000D03*
X52273200Y-81356200D03*
X55397400Y-81737200D03*
X55092600Y-79298800D03*
X65506600Y-73406000D03*
X53517800Y-86309200D03*
X65938400Y-70510400D03*
X60325000Y-84048600D03*
X51181000Y-86182200D03*
X69011800Y-56870600D03*
X60198000Y-58928000D03*
X65887600Y-53873400D03*
X62255400Y-82626200D03*
X52857400Y-53644800D03*
X62255400Y-84709000D03*
X57200800Y-70358000D03*
X52324000Y-64262000D03*
X64820800Y-84683600D03*
X67132200Y-73406000D03*
X64820800Y-82626200D03*
%TO.N,/D1*%
X57835800Y-79248000D03*
X57988200Y-80924400D03*
%TO.N,/MISO*%
X52857400Y-84328000D03*
X56007000Y-84886800D03*
%TO.N,/MOSI*%
X52857400Y-83261200D03*
X56972200Y-83464400D03*
%TO.N,/SCK*%
X56286400Y-84048600D03*
X53162200Y-82245200D03*
%TO.N,/A5*%
X57835800Y-71864300D03*
X57835800Y-73177700D03*
%TO.N,/A0*%
X52301189Y-68808600D03*
X51089389Y-68122800D03*
%TO.N,+3V3*%
X55995193Y-63071611D03*
X52273200Y-62865000D03*
%TO.N,/~RESET*%
X61057903Y-65180100D03*
X60874561Y-66493500D03*
%TO.N,/D13*%
X67990258Y-69220542D03*
X67912442Y-71000158D03*
X66878200Y-75082400D03*
%TO.N,/D11*%
X67897900Y-79171800D03*
%TO.N,/D9*%
X55706168Y-76457968D03*
X66116200Y-83235800D03*
%TO.N,/SCL*%
X63423800Y-78359000D03*
X62509400Y-72085200D03*
%TO.N,/SDA*%
X62890400Y-79070200D03*
X62230000Y-73228200D03*
%TO.N,Net-(C5-Pad1)*%
X60198000Y-65180100D03*
X60014658Y-66493500D03*
%TO.N,/D-*%
X61468000Y-63906400D03*
X61874400Y-70408800D03*
%TO.N,/D+*%
X62687200Y-63550800D03*
X62814200Y-70383400D03*
%TO.N,/D8*%
X51435000Y-81153000D03*
X53670200Y-77571600D03*
X55800100Y-85877400D03*
X51460400Y-79980900D03*
%TO.N,/D3*%
X56614696Y-80518000D03*
X58468759Y-86535278D03*
%TO.N,/D4*%
X56008796Y-81132532D03*
X57632600Y-86334600D03*
%TO.N,/D7*%
X66065400Y-72720200D03*
X65862200Y-77546200D03*
X65477500Y-84122817D03*
X61395497Y-84709000D03*
%TO.N,/SWCLK*%
X58664300Y-67030600D03*
%TO.N,/SWDIO*%
X57807404Y-67102443D03*
%TD*%
D17*
%TO.N,GND*%
X55401421Y-81737200D02*
X56239621Y-82575400D01*
X55397400Y-81737200D02*
X55401421Y-81737200D01*
X56239621Y-82575400D02*
X56794400Y-82575400D01*
D18*
%TO.N,/D1*%
X57835800Y-80772000D02*
X57988200Y-80924400D01*
X57835800Y-79248000D02*
X57835800Y-80772000D01*
%TO.N,/MISO*%
X56007000Y-84886800D02*
X55448200Y-84328000D01*
X55448200Y-84328000D02*
X52857400Y-84328000D01*
%TO.N,/MOSI*%
X52556289Y-81994222D02*
X52556289Y-82960089D01*
X52556289Y-82960089D02*
X52857400Y-83261200D01*
X56559089Y-83464400D02*
X56972200Y-83464400D01*
X53419889Y-81639289D02*
X54123711Y-82343111D01*
X54123711Y-82343111D02*
X55437800Y-82343111D01*
X55437800Y-82343111D02*
X56559089Y-83464400D01*
X52911222Y-81639289D02*
X53419889Y-81639289D01*
X52911222Y-81639289D02*
X52556289Y-81994222D01*
%TO.N,/SCK*%
X56286400Y-84048600D02*
X55270400Y-83032600D01*
X55270400Y-83032600D02*
X53949600Y-83032600D01*
X53949600Y-83032600D02*
X53162200Y-82245200D01*
%TO.N,/A5*%
X57835800Y-71864300D02*
X57835800Y-73177700D01*
%TO.N,/A0*%
X52301189Y-68808600D02*
X51775189Y-68808600D01*
X51775189Y-68808600D02*
X51089389Y-68122800D01*
D17*
%TO.N,+3V3*%
X52479811Y-63071611D02*
X52273200Y-62865000D01*
X55995193Y-63071611D02*
X52479811Y-63071611D01*
D18*
%TO.N,/~RESET*%
X61057903Y-65180100D02*
X61057903Y-66310158D01*
X61057903Y-66310158D02*
X60874561Y-66493500D01*
%TO.N,/D13*%
X66878200Y-75082400D02*
X68656200Y-75082400D01*
X69443600Y-74295000D02*
X69596000Y-74295000D01*
X67912442Y-69298358D02*
X67990258Y-69220542D01*
X68656200Y-75082400D02*
X69443600Y-74295000D01*
X67912442Y-71000158D02*
X67912442Y-69298358D01*
X69418200Y-74295000D02*
X69596000Y-74295000D01*
%TO.N,/D11*%
X68101100Y-79375000D02*
X69596000Y-79375000D01*
X67897900Y-79171800D02*
X68101100Y-79375000D01*
%TO.N,/D9*%
X55706168Y-76457968D02*
X57220607Y-77972407D01*
X57220607Y-81013696D02*
X57860858Y-81653947D01*
X59686647Y-81653947D02*
X61264811Y-83232111D01*
X61264811Y-83232111D02*
X66112511Y-83232111D01*
X57860858Y-81653947D02*
X59686647Y-81653947D01*
X57220607Y-77972407D02*
X57220607Y-81013696D01*
X66112511Y-83232111D02*
X66116200Y-83235800D01*
%TO.N,/SCL*%
X62839600Y-72415400D02*
X62839600Y-77774800D01*
X62839600Y-77774800D02*
X63423800Y-78359000D01*
X62509400Y-72085200D02*
X62839600Y-72415400D01*
%TO.N,/SDA*%
X62890400Y-79070200D02*
X62230000Y-78409800D01*
X62230000Y-78409800D02*
X62230000Y-73228200D01*
%TO.N,Net-(C5-Pad1)*%
X60198000Y-65180100D02*
X60198000Y-66310158D01*
X60198000Y-66310158D02*
X60014658Y-66493500D01*
%TO.N,/D-*%
X61976000Y-64414400D02*
X61976000Y-70307200D01*
X61468000Y-63906400D02*
X61976000Y-64414400D01*
X61976000Y-70307200D02*
X61874400Y-70408800D01*
%TO.N,/D+*%
X62687200Y-70256400D02*
X62814200Y-70383400D01*
X62687200Y-63550800D02*
X62687200Y-70256400D01*
%TO.N,/D8*%
X51435000Y-84582000D02*
X52273200Y-85420200D01*
X55800100Y-85877400D02*
X55342900Y-85420200D01*
X53670200Y-77571600D02*
X53670200Y-77771100D01*
X53670200Y-77771100D02*
X51460400Y-79980900D01*
X51435000Y-84582000D02*
X51435000Y-81153000D01*
X55342900Y-85420200D02*
X52273200Y-85420200D01*
%TO.N,/D3*%
X56925590Y-81352011D02*
X57930031Y-82356452D01*
X56614696Y-80518000D02*
X56614696Y-81041117D01*
X57930031Y-85420200D02*
X58468759Y-85958928D01*
X57930031Y-82356452D02*
X57930031Y-85420200D01*
X56614696Y-81041117D02*
X56925590Y-81352011D01*
X58468759Y-85958928D02*
X58468759Y-86535278D01*
%TO.N,/D4*%
X56208421Y-81132532D02*
X57578111Y-82502222D01*
X57578111Y-82502222D02*
X57578111Y-86280111D01*
X56008796Y-81132532D02*
X56208421Y-81132532D01*
X57578111Y-86280111D02*
X57632600Y-86334600D01*
%TO.N,/D7*%
X66112511Y-76483089D02*
X65862200Y-76733400D01*
X66065400Y-72720200D02*
X66112511Y-72767311D01*
X65862200Y-76733400D02*
X65862200Y-77546200D01*
X65477500Y-84122817D02*
X65432372Y-84077689D01*
X66112511Y-72767311D02*
X66112511Y-76483089D01*
X65432372Y-84077689D02*
X62026808Y-84077689D01*
X62026808Y-84077689D02*
X61395497Y-84709000D01*
%TO.N,/SWCLK*%
X58674000Y-67020900D02*
X58664300Y-67030600D01*
X58724800Y-65506600D02*
X58674000Y-65557400D01*
X58674000Y-65557400D02*
X58674000Y-67020900D01*
%TO.N,/SWDIO*%
X57807404Y-67102443D02*
X57729843Y-67102443D01*
X57729843Y-67102443D02*
X56108600Y-65481200D01*
%TD*%
%TA.AperFunction,Conductor*%
%TO.N,GND*%
G36*
X54771906Y-50583002D02*
G01*
X54818399Y-50636658D01*
X54828503Y-50706932D01*
X54820651Y-50736098D01*
X54763539Y-50877811D01*
X54760145Y-50889270D01*
X54721643Y-51086428D01*
X54720566Y-51095291D01*
X54720500Y-51098000D01*
X54720500Y-51277385D01*
X54724975Y-51292624D01*
X54726365Y-51293829D01*
X54734048Y-51295500D01*
X56918385Y-51295500D01*
X56933624Y-51291025D01*
X56934829Y-51289635D01*
X56936500Y-51281952D01*
X56936500Y-51149668D01*
X56936215Y-51143692D01*
X56922029Y-50995006D01*
X56919770Y-50983272D01*
X56863628Y-50791901D01*
X56859200Y-50780830D01*
X56841618Y-50746693D01*
X56828209Y-50676974D01*
X56854622Y-50611073D01*
X56912470Y-50569914D01*
X56953634Y-50563000D01*
X61703785Y-50563000D01*
X61771906Y-50583002D01*
X61818399Y-50636658D01*
X61828503Y-50706932D01*
X61820651Y-50736098D01*
X61763539Y-50877811D01*
X61760145Y-50889270D01*
X61721643Y-51086428D01*
X61720566Y-51095291D01*
X61720500Y-51098000D01*
X61720500Y-51277385D01*
X61724975Y-51292624D01*
X61726365Y-51293829D01*
X61734048Y-51295500D01*
X63918385Y-51295500D01*
X63933624Y-51291025D01*
X63934829Y-51289635D01*
X63936500Y-51281952D01*
X63936500Y-51149668D01*
X63936215Y-51143692D01*
X63922029Y-50995006D01*
X63919770Y-50983272D01*
X63863628Y-50791901D01*
X63859200Y-50780830D01*
X63841618Y-50746693D01*
X63828209Y-50676974D01*
X63854622Y-50611073D01*
X63912470Y-50569914D01*
X63953634Y-50563000D01*
X67357006Y-50563000D01*
X67425127Y-50583002D01*
X67471620Y-50636658D01*
X67481724Y-50706932D01*
X67452230Y-50771512D01*
X67406442Y-50804896D01*
X67366524Y-50821923D01*
X67273142Y-50877811D01*
X67123521Y-50967357D01*
X67123517Y-50967360D01*
X67119839Y-50969561D01*
X66895472Y-51149313D01*
X66856504Y-51190377D01*
X66758332Y-51293829D01*
X66697577Y-51357851D01*
X66529814Y-51591317D01*
X66395288Y-51845392D01*
X66296489Y-52115373D01*
X66235245Y-52396264D01*
X66212689Y-52682869D01*
X66229238Y-52969883D01*
X66230063Y-52974088D01*
X66230064Y-52974096D01*
X66248255Y-53066815D01*
X66284586Y-53251995D01*
X66285973Y-53256045D01*
X66285974Y-53256050D01*
X66376321Y-53519930D01*
X66377710Y-53523986D01*
X66506885Y-53780822D01*
X66669721Y-54017750D01*
X66863206Y-54230388D01*
X66866501Y-54233143D01*
X66866502Y-54233144D01*
X66917258Y-54275582D01*
X67083759Y-54414798D01*
X67327298Y-54567571D01*
X67589318Y-54685877D01*
X67593437Y-54687097D01*
X67860857Y-54766311D01*
X67860862Y-54766312D01*
X67864970Y-54767529D01*
X67869204Y-54768177D01*
X67869209Y-54768178D01*
X68117811Y-54806219D01*
X68149153Y-54811015D01*
X68295485Y-54813314D01*
X68432317Y-54815464D01*
X68432323Y-54815464D01*
X68436608Y-54815531D01*
X68440860Y-54815016D01*
X68440868Y-54815016D01*
X68717756Y-54781508D01*
X68717761Y-54781507D01*
X68722017Y-54780992D01*
X69000097Y-54708039D01*
X69265704Y-54598021D01*
X69513922Y-54452974D01*
X69740159Y-54275582D01*
X69764338Y-54250632D01*
X69937244Y-54072206D01*
X69940227Y-54069128D01*
X69942760Y-54065680D01*
X69942764Y-54065675D01*
X70107887Y-53840886D01*
X70110425Y-53837431D01*
X70231269Y-53614864D01*
X70281352Y-53564542D01*
X70350690Y-53549286D01*
X70417269Y-53573938D01*
X70459951Y-53630673D01*
X70468000Y-53674986D01*
X70468000Y-65446154D01*
X70447998Y-65514275D01*
X70394342Y-65560768D01*
X70324068Y-65570872D01*
X70269730Y-65549367D01*
X70252749Y-65537477D01*
X70247767Y-65535154D01*
X70247762Y-65535151D01*
X70050225Y-65443039D01*
X70050224Y-65443039D01*
X70045243Y-65440716D01*
X70039935Y-65439294D01*
X70039933Y-65439293D01*
X69829402Y-65382881D01*
X69829400Y-65382881D01*
X69824087Y-65381457D01*
X69596000Y-65361502D01*
X69367913Y-65381457D01*
X69362600Y-65382881D01*
X69362598Y-65382881D01*
X69152067Y-65439293D01*
X69152065Y-65439294D01*
X69146757Y-65440716D01*
X69141776Y-65443039D01*
X69141775Y-65443039D01*
X68944238Y-65535151D01*
X68944233Y-65535154D01*
X68939251Y-65537477D01*
X68889869Y-65572055D01*
X68756211Y-65665643D01*
X68756208Y-65665645D01*
X68751700Y-65668802D01*
X68589802Y-65830700D01*
X68458477Y-66018251D01*
X68456154Y-66023233D01*
X68456151Y-66023238D01*
X68436034Y-66066380D01*
X68361716Y-66225757D01*
X68360294Y-66231065D01*
X68360293Y-66231067D01*
X68312395Y-66409824D01*
X68302457Y-66446913D01*
X68282502Y-66675000D01*
X68302457Y-66903087D01*
X68361716Y-67124243D01*
X68364039Y-67129224D01*
X68364039Y-67129225D01*
X68456151Y-67326762D01*
X68456154Y-67326767D01*
X68458477Y-67331749D01*
X68531902Y-67436611D01*
X68576990Y-67501002D01*
X68589802Y-67519300D01*
X68751700Y-67681198D01*
X68756208Y-67684355D01*
X68756211Y-67684357D01*
X68820185Y-67729152D01*
X68939251Y-67812523D01*
X68944233Y-67814846D01*
X68944238Y-67814849D01*
X68978457Y-67830805D01*
X69031742Y-67877722D01*
X69051203Y-67945999D01*
X69030661Y-68013959D01*
X68978457Y-68059195D01*
X68944238Y-68075151D01*
X68944233Y-68075154D01*
X68939251Y-68077477D01*
X68889869Y-68112055D01*
X68756211Y-68205643D01*
X68756208Y-68205645D01*
X68751700Y-68208802D01*
X68589802Y-68370700D01*
X68586644Y-68375210D01*
X68586639Y-68375216D01*
X68543310Y-68437097D01*
X68487853Y-68481426D01*
X68417234Y-68488735D01*
X68388849Y-68479934D01*
X68256894Y-68421184D01*
X68256891Y-68421183D01*
X68250858Y-68418497D01*
X68214408Y-68410749D01*
X68084866Y-68383214D01*
X68084862Y-68383214D01*
X68078409Y-68381842D01*
X67902107Y-68381842D01*
X67895654Y-68383214D01*
X67895650Y-68383214D01*
X67766108Y-68410749D01*
X67729658Y-68418497D01*
X67723625Y-68421183D01*
X67723622Y-68421184D01*
X67574630Y-68487519D01*
X67574627Y-68487521D01*
X67568598Y-68490205D01*
X67425967Y-68593833D01*
X67307998Y-68724851D01*
X67219847Y-68877533D01*
X67204028Y-68926218D01*
X67175078Y-69015320D01*
X67165367Y-69045206D01*
X67146938Y-69220542D01*
X67165367Y-69395878D01*
X67167407Y-69402156D01*
X67167407Y-69402157D01*
X67180706Y-69443087D01*
X67219847Y-69563551D01*
X67223150Y-69569273D01*
X67223151Y-69569274D01*
X67307998Y-69716233D01*
X67306521Y-69717086D01*
X67327536Y-69775971D01*
X67327742Y-69783173D01*
X67327742Y-70347749D01*
X67307740Y-70415870D01*
X67295379Y-70432058D01*
X67230182Y-70504467D01*
X67226879Y-70510188D01*
X67151489Y-70640768D01*
X67142031Y-70657149D01*
X67087551Y-70824822D01*
X67086861Y-70831385D01*
X67086861Y-70831386D01*
X67069812Y-70993593D01*
X67069122Y-71000158D01*
X67069812Y-71006723D01*
X67075505Y-71060882D01*
X67087551Y-71175494D01*
X67142031Y-71343167D01*
X67145334Y-71348889D01*
X67145335Y-71348890D01*
X67153886Y-71363701D01*
X67230182Y-71495849D01*
X67234600Y-71500756D01*
X67234601Y-71500757D01*
X67314514Y-71589509D01*
X67348151Y-71626867D01*
X67490782Y-71730495D01*
X67496811Y-71733179D01*
X67496814Y-71733181D01*
X67645806Y-71799516D01*
X67645809Y-71799517D01*
X67651842Y-71802203D01*
X67688292Y-71809951D01*
X67817834Y-71837486D01*
X67817838Y-71837486D01*
X67824291Y-71838858D01*
X68000593Y-71838858D01*
X68007046Y-71837486D01*
X68007050Y-71837486D01*
X68145252Y-71808110D01*
X68216043Y-71813512D01*
X68272676Y-71856329D01*
X68296969Y-71920375D01*
X68301975Y-71977595D01*
X68301978Y-71977612D01*
X68302457Y-71983087D01*
X68303881Y-71988400D01*
X68303881Y-71988402D01*
X68338877Y-72119006D01*
X68361716Y-72204243D01*
X68364039Y-72209224D01*
X68364039Y-72209225D01*
X68456151Y-72406762D01*
X68456154Y-72406767D01*
X68458477Y-72411749D01*
X68484272Y-72448588D01*
X68556282Y-72551428D01*
X68589802Y-72599300D01*
X68751700Y-72761198D01*
X68756208Y-72764355D01*
X68756211Y-72764357D01*
X68834389Y-72819098D01*
X68939251Y-72892523D01*
X68944233Y-72894846D01*
X68944238Y-72894849D01*
X68978457Y-72910805D01*
X69031742Y-72957722D01*
X69051203Y-73025999D01*
X69030661Y-73093959D01*
X68978457Y-73139195D01*
X68944238Y-73155151D01*
X68944233Y-73155154D01*
X68939251Y-73157477D01*
X68848818Y-73220799D01*
X68756211Y-73285643D01*
X68756208Y-73285645D01*
X68751700Y-73288802D01*
X68589802Y-73450700D01*
X68458477Y-73638251D01*
X68456154Y-73643233D01*
X68456151Y-73643238D01*
X68416254Y-73728799D01*
X68361716Y-73845757D01*
X68360294Y-73851065D01*
X68360293Y-73851067D01*
X68315992Y-74016400D01*
X68302457Y-74066913D01*
X68282502Y-74295000D01*
X68282981Y-74300475D01*
X68282981Y-74300486D01*
X68288251Y-74360718D01*
X68274263Y-74430322D01*
X68224864Y-74481315D01*
X68162731Y-74497700D01*
X67536414Y-74497700D01*
X67468293Y-74477698D01*
X67452493Y-74464263D01*
X67451815Y-74465016D01*
X67446913Y-74460603D01*
X67442491Y-74455691D01*
X67299860Y-74352063D01*
X67293831Y-74349379D01*
X67293828Y-74349377D01*
X67144836Y-74283042D01*
X67144833Y-74283041D01*
X67138800Y-74280355D01*
X67102350Y-74272607D01*
X66972808Y-74245072D01*
X66972804Y-74245072D01*
X66966351Y-74243700D01*
X66823211Y-74243700D01*
X66755090Y-74223698D01*
X66708597Y-74170042D01*
X66697211Y-74117700D01*
X66697211Y-73320287D01*
X66717213Y-73252166D01*
X66729576Y-73235976D01*
X66743237Y-73220804D01*
X66743241Y-73220799D01*
X66747660Y-73215891D01*
X66782728Y-73155151D01*
X66832507Y-73068932D01*
X66832508Y-73068931D01*
X66835811Y-73063209D01*
X66870632Y-72956041D01*
X66888251Y-72901815D01*
X66888251Y-72901814D01*
X66890291Y-72895536D01*
X66908720Y-72720200D01*
X66895835Y-72597612D01*
X66890981Y-72551428D01*
X66890981Y-72551427D01*
X66890291Y-72544864D01*
X66883932Y-72525291D01*
X66848226Y-72415400D01*
X66835811Y-72377191D01*
X66747660Y-72224509D01*
X66729413Y-72204243D01*
X66634113Y-72098402D01*
X66634112Y-72098401D01*
X66629691Y-72093491D01*
X66487060Y-71989863D01*
X66481031Y-71987179D01*
X66481028Y-71987177D01*
X66332036Y-71920842D01*
X66332033Y-71920841D01*
X66326000Y-71918155D01*
X66286994Y-71909864D01*
X66160008Y-71882872D01*
X66160004Y-71882872D01*
X66153551Y-71881500D01*
X65977249Y-71881500D01*
X65970796Y-71882872D01*
X65970792Y-71882872D01*
X65843806Y-71909864D01*
X65804800Y-71918155D01*
X65798767Y-71920841D01*
X65798764Y-71920842D01*
X65649772Y-71987177D01*
X65649769Y-71987179D01*
X65643740Y-71989863D01*
X65501109Y-72093491D01*
X65496688Y-72098401D01*
X65496687Y-72098402D01*
X65401388Y-72204243D01*
X65383140Y-72224509D01*
X65294989Y-72377191D01*
X65282574Y-72415400D01*
X65246869Y-72525291D01*
X65240509Y-72544864D01*
X65239819Y-72551427D01*
X65239819Y-72551428D01*
X65234965Y-72597612D01*
X65222080Y-72720200D01*
X65240509Y-72895536D01*
X65242549Y-72901814D01*
X65242549Y-72901815D01*
X65260168Y-72956041D01*
X65294989Y-73063209D01*
X65298292Y-73068931D01*
X65298293Y-73068932D01*
X65329134Y-73122349D01*
X65383140Y-73215891D01*
X65387558Y-73220798D01*
X65387559Y-73220799D01*
X65495447Y-73340621D01*
X65526165Y-73404628D01*
X65527811Y-73424931D01*
X65527811Y-76188709D01*
X65507809Y-76256830D01*
X65490906Y-76277804D01*
X65481697Y-76287013D01*
X65469306Y-76297880D01*
X65445187Y-76316387D01*
X65391958Y-76385757D01*
X65351466Y-76438527D01*
X65348306Y-76446156D01*
X65343414Y-76457968D01*
X65337353Y-76472600D01*
X65292550Y-76580763D01*
X65277500Y-76695079D01*
X65272455Y-76733400D01*
X65273533Y-76741588D01*
X65276422Y-76763533D01*
X65277500Y-76779979D01*
X65277500Y-76893791D01*
X65257498Y-76961912D01*
X65245137Y-76978100D01*
X65179940Y-77050509D01*
X65091789Y-77203191D01*
X65089747Y-77209476D01*
X65049426Y-77333573D01*
X65037309Y-77370864D01*
X65018880Y-77546200D01*
X65037309Y-77721536D01*
X65091789Y-77889209D01*
X65179940Y-78041891D01*
X65184358Y-78046798D01*
X65184359Y-78046799D01*
X65237663Y-78105999D01*
X65297909Y-78172909D01*
X65361616Y-78219195D01*
X65403143Y-78249366D01*
X65440540Y-78276537D01*
X65446569Y-78279221D01*
X65446572Y-78279223D01*
X65595564Y-78345558D01*
X65595567Y-78345559D01*
X65601600Y-78348245D01*
X65638050Y-78355993D01*
X65767592Y-78383528D01*
X65767596Y-78383528D01*
X65774049Y-78384900D01*
X65950351Y-78384900D01*
X65956804Y-78383528D01*
X65956808Y-78383528D01*
X66086350Y-78355993D01*
X66122800Y-78348245D01*
X66128833Y-78345559D01*
X66128836Y-78345558D01*
X66277828Y-78279223D01*
X66277831Y-78279221D01*
X66283860Y-78276537D01*
X66321258Y-78249366D01*
X66362784Y-78219195D01*
X66426491Y-78172909D01*
X66486737Y-78105999D01*
X66540041Y-78046799D01*
X66540042Y-78046798D01*
X66544460Y-78041891D01*
X66632611Y-77889209D01*
X66687091Y-77721536D01*
X66705520Y-77546200D01*
X66687091Y-77370864D01*
X66674975Y-77333573D01*
X66634653Y-77209476D01*
X66632611Y-77203191D01*
X66544460Y-77050509D01*
X66540041Y-77045601D01*
X66536159Y-77040258D01*
X66538582Y-77038498D01*
X66513492Y-76986240D01*
X66522244Y-76915785D01*
X66537880Y-76889212D01*
X66594162Y-76815864D01*
X66594162Y-76815863D01*
X66618219Y-76784512D01*
X66623245Y-76777962D01*
X66626728Y-76769555D01*
X66678997Y-76643363D01*
X66680886Y-76638803D01*
X66682161Y-76635726D01*
X66697211Y-76521410D01*
X66697211Y-76521408D01*
X66702256Y-76483089D01*
X66698289Y-76452956D01*
X66697211Y-76436510D01*
X66697211Y-76047100D01*
X66717213Y-75978979D01*
X66770869Y-75932486D01*
X66823211Y-75921100D01*
X66966351Y-75921100D01*
X66972804Y-75919728D01*
X66972808Y-75919728D01*
X67102350Y-75892193D01*
X67138800Y-75884445D01*
X67144833Y-75881759D01*
X67144836Y-75881758D01*
X67293828Y-75815423D01*
X67293831Y-75815421D01*
X67299860Y-75812737D01*
X67442491Y-75709109D01*
X67446913Y-75704197D01*
X67451815Y-75699784D01*
X67453812Y-75702002D01*
X67503176Y-75671563D01*
X67536414Y-75667100D01*
X68609212Y-75667100D01*
X68677333Y-75687102D01*
X68723826Y-75740758D01*
X68733930Y-75811032D01*
X68704436Y-75875612D01*
X68698307Y-75882195D01*
X68589802Y-75990700D01*
X68458477Y-76178251D01*
X68456154Y-76183233D01*
X68456151Y-76183238D01*
X68391009Y-76322938D01*
X68361716Y-76385757D01*
X68360294Y-76391065D01*
X68360293Y-76391067D01*
X68311508Y-76573134D01*
X68302457Y-76606913D01*
X68282502Y-76835000D01*
X68302457Y-77063087D01*
X68303881Y-77068400D01*
X68303881Y-77068402D01*
X68355224Y-77260013D01*
X68361716Y-77284243D01*
X68364039Y-77289224D01*
X68364039Y-77289225D01*
X68456151Y-77486762D01*
X68456154Y-77486767D01*
X68458477Y-77491749D01*
X68518986Y-77578165D01*
X68580839Y-77666499D01*
X68589802Y-77679300D01*
X68751700Y-77841198D01*
X68756208Y-77844355D01*
X68756211Y-77844357D01*
X68791444Y-77869027D01*
X68939251Y-77972523D01*
X68944233Y-77974846D01*
X68944238Y-77974849D01*
X68978457Y-77990805D01*
X69031742Y-78037722D01*
X69051203Y-78105999D01*
X69030661Y-78173959D01*
X68978457Y-78219195D01*
X68944238Y-78235151D01*
X68944233Y-78235154D01*
X68939251Y-78237477D01*
X68847193Y-78301937D01*
X68756211Y-78365643D01*
X68756208Y-78365645D01*
X68751700Y-78368802D01*
X68603862Y-78516640D01*
X68541550Y-78550666D01*
X68470735Y-78545601D01*
X68440706Y-78529481D01*
X68324902Y-78445344D01*
X68324901Y-78445343D01*
X68319560Y-78441463D01*
X68313531Y-78438779D01*
X68313528Y-78438777D01*
X68164536Y-78372442D01*
X68164533Y-78372441D01*
X68158500Y-78369755D01*
X68122050Y-78362007D01*
X67992508Y-78334472D01*
X67992504Y-78334472D01*
X67986051Y-78333100D01*
X67809749Y-78333100D01*
X67803296Y-78334472D01*
X67803292Y-78334472D01*
X67673750Y-78362007D01*
X67637300Y-78369755D01*
X67631267Y-78372441D01*
X67631264Y-78372442D01*
X67482272Y-78438777D01*
X67482269Y-78438779D01*
X67476240Y-78441463D01*
X67333609Y-78545091D01*
X67329188Y-78550001D01*
X67329187Y-78550002D01*
X67267492Y-78618522D01*
X67215640Y-78676109D01*
X67127489Y-78828791D01*
X67073009Y-78996464D01*
X67054580Y-79171800D01*
X67055270Y-79178365D01*
X67062859Y-79250563D01*
X67073009Y-79347136D01*
X67075049Y-79353414D01*
X67075049Y-79353415D01*
X67084520Y-79382563D01*
X67127489Y-79514809D01*
X67215640Y-79667491D01*
X67220058Y-79672398D01*
X67220059Y-79672399D01*
X67284251Y-79743691D01*
X67333609Y-79798509D01*
X67476240Y-79902137D01*
X67482269Y-79904821D01*
X67482272Y-79904823D01*
X67631264Y-79971158D01*
X67631267Y-79971159D01*
X67637300Y-79973845D01*
X67664855Y-79979702D01*
X67803292Y-80009128D01*
X67803296Y-80009128D01*
X67809749Y-80010500D01*
X67986051Y-80010500D01*
X67992504Y-80009128D01*
X67992508Y-80009128D01*
X68072275Y-79992173D01*
X68158500Y-79973845D01*
X68164533Y-79971159D01*
X68164539Y-79971157D01*
X68165804Y-79970594D01*
X68167159Y-79970306D01*
X68170812Y-79969119D01*
X68170937Y-79969503D01*
X68217053Y-79959700D01*
X68344687Y-79959700D01*
X68412808Y-79979702D01*
X68453806Y-80022700D01*
X68456153Y-80026764D01*
X68458477Y-80031749D01*
X68461631Y-80036253D01*
X68564599Y-80183306D01*
X68589802Y-80219300D01*
X68751700Y-80381198D01*
X68756208Y-80384355D01*
X68756211Y-80384357D01*
X68827719Y-80434427D01*
X68939251Y-80512523D01*
X68944233Y-80514846D01*
X68944238Y-80514849D01*
X68978457Y-80530805D01*
X69031742Y-80577722D01*
X69051203Y-80645999D01*
X69030661Y-80713959D01*
X68978457Y-80759195D01*
X68944238Y-80775151D01*
X68944233Y-80775154D01*
X68939251Y-80777477D01*
X68834389Y-80850902D01*
X68756211Y-80905643D01*
X68756208Y-80905645D01*
X68751700Y-80908802D01*
X68589802Y-81070700D01*
X68586645Y-81075208D01*
X68586643Y-81075211D01*
X68549291Y-81128555D01*
X68458477Y-81258251D01*
X68456154Y-81263233D01*
X68456151Y-81263238D01*
X68451392Y-81273444D01*
X68361716Y-81465757D01*
X68360294Y-81471065D01*
X68360293Y-81471067D01*
X68310318Y-81657574D01*
X68302457Y-81686913D01*
X68282502Y-81915000D01*
X68302457Y-82143087D01*
X68361716Y-82364243D01*
X68364039Y-82369224D01*
X68364039Y-82369225D01*
X68456151Y-82566762D01*
X68456154Y-82566767D01*
X68458477Y-82571749D01*
X68497402Y-82627339D01*
X68572928Y-82735201D01*
X68589802Y-82759300D01*
X68751700Y-82921198D01*
X68756208Y-82924355D01*
X68756211Y-82924357D01*
X68834389Y-82979098D01*
X68939251Y-83052523D01*
X68944233Y-83054846D01*
X68944238Y-83054849D01*
X68978457Y-83070805D01*
X69031742Y-83117722D01*
X69051203Y-83185999D01*
X69030661Y-83253959D01*
X68978457Y-83299195D01*
X68944238Y-83315151D01*
X68944233Y-83315154D01*
X68939251Y-83317477D01*
X68889869Y-83352055D01*
X68756211Y-83445643D01*
X68756208Y-83445645D01*
X68751700Y-83448802D01*
X68589802Y-83610700D01*
X68586645Y-83615208D01*
X68586643Y-83615211D01*
X68562897Y-83649124D01*
X68458477Y-83798251D01*
X68456154Y-83803233D01*
X68456151Y-83803238D01*
X68424880Y-83870300D01*
X68361716Y-84005757D01*
X68360294Y-84011065D01*
X68360293Y-84011067D01*
X68327844Y-84132168D01*
X68302457Y-84226913D01*
X68282502Y-84455000D01*
X68302457Y-84683087D01*
X68303881Y-84688400D01*
X68303881Y-84688402D01*
X68348027Y-84853154D01*
X68361716Y-84904243D01*
X68364039Y-84909224D01*
X68364039Y-84909225D01*
X68456151Y-85106762D01*
X68456154Y-85106767D01*
X68458477Y-85111749D01*
X68461634Y-85116257D01*
X68539094Y-85226881D01*
X68589802Y-85299300D01*
X68751700Y-85461198D01*
X68756208Y-85464355D01*
X68756211Y-85464357D01*
X68825029Y-85512544D01*
X68939251Y-85592523D01*
X68944233Y-85594846D01*
X68944238Y-85594849D01*
X68978457Y-85610805D01*
X69031742Y-85657722D01*
X69051203Y-85725999D01*
X69030661Y-85793959D01*
X68978457Y-85839195D01*
X68944238Y-85855151D01*
X68944233Y-85855154D01*
X68939251Y-85857477D01*
X68889869Y-85892055D01*
X68756211Y-85985643D01*
X68756208Y-85985645D01*
X68751700Y-85988802D01*
X68589802Y-86150700D01*
X68458477Y-86338251D01*
X68456154Y-86343233D01*
X68456151Y-86343238D01*
X68369664Y-86528713D01*
X68361716Y-86545757D01*
X68360294Y-86551065D01*
X68360293Y-86551067D01*
X68319301Y-86704050D01*
X68302457Y-86766913D01*
X68282502Y-86995000D01*
X68302457Y-87223087D01*
X68303881Y-87228400D01*
X68303881Y-87228402D01*
X68333435Y-87338696D01*
X68361716Y-87444243D01*
X68364039Y-87449224D01*
X68364039Y-87449225D01*
X68456151Y-87646762D01*
X68456154Y-87646767D01*
X68458477Y-87651749D01*
X68589802Y-87839300D01*
X68751700Y-88001198D01*
X68756208Y-88004355D01*
X68756211Y-88004357D01*
X68834389Y-88059098D01*
X68939251Y-88132523D01*
X68944233Y-88134846D01*
X68944238Y-88134849D01*
X68978457Y-88150805D01*
X69031742Y-88197722D01*
X69051203Y-88265999D01*
X69030661Y-88333959D01*
X68978457Y-88379195D01*
X68944238Y-88395151D01*
X68944233Y-88395154D01*
X68939251Y-88397477D01*
X68889869Y-88432055D01*
X68756211Y-88525643D01*
X68756208Y-88525645D01*
X68751700Y-88528802D01*
X68589802Y-88690700D01*
X68458477Y-88878251D01*
X68456154Y-88883233D01*
X68456151Y-88883238D01*
X68364039Y-89080775D01*
X68361716Y-89085757D01*
X68302457Y-89306913D01*
X68282502Y-89535000D01*
X68302457Y-89763087D01*
X68361716Y-89984243D01*
X68364039Y-89989224D01*
X68364039Y-89989225D01*
X68456151Y-90186762D01*
X68456154Y-90186767D01*
X68458477Y-90191749D01*
X68589802Y-90379300D01*
X68751700Y-90541198D01*
X68756208Y-90544355D01*
X68756211Y-90544357D01*
X68834389Y-90599098D01*
X68939251Y-90672523D01*
X68944233Y-90674846D01*
X68944238Y-90674849D01*
X68978457Y-90690805D01*
X69031742Y-90737722D01*
X69051203Y-90805999D01*
X69030661Y-90873959D01*
X68978457Y-90919195D01*
X68944238Y-90935151D01*
X68944233Y-90935154D01*
X68939251Y-90937477D01*
X68889869Y-90972055D01*
X68756211Y-91065643D01*
X68756208Y-91065645D01*
X68751700Y-91068802D01*
X68589802Y-91230700D01*
X68458477Y-91418251D01*
X68456154Y-91423233D01*
X68456151Y-91423238D01*
X68364039Y-91620775D01*
X68361716Y-91625757D01*
X68302457Y-91846913D01*
X68282502Y-92075000D01*
X68302457Y-92303087D01*
X68361716Y-92524243D01*
X68364039Y-92529224D01*
X68364039Y-92529225D01*
X68456151Y-92726762D01*
X68456154Y-92726767D01*
X68458477Y-92731749D01*
X68589802Y-92919300D01*
X68751700Y-93081198D01*
X68756208Y-93084355D01*
X68756211Y-93084357D01*
X68834389Y-93139098D01*
X68939251Y-93212523D01*
X68944233Y-93214846D01*
X68944238Y-93214849D01*
X68978457Y-93230805D01*
X69031742Y-93277722D01*
X69051203Y-93345999D01*
X69030661Y-93413959D01*
X68978457Y-93459195D01*
X68944238Y-93475151D01*
X68944233Y-93475154D01*
X68939251Y-93477477D01*
X68865757Y-93528938D01*
X68756211Y-93605643D01*
X68756208Y-93605645D01*
X68751700Y-93608802D01*
X68589802Y-93770700D01*
X68458477Y-93958251D01*
X68456154Y-93963233D01*
X68456151Y-93963238D01*
X68456034Y-93963489D01*
X68361716Y-94165757D01*
X68302457Y-94386913D01*
X68282502Y-94615000D01*
X68302457Y-94843087D01*
X68361716Y-95064243D01*
X68364039Y-95069224D01*
X68364039Y-95069225D01*
X68456151Y-95266762D01*
X68456154Y-95266767D01*
X68458477Y-95271749D01*
X68589802Y-95459300D01*
X68751700Y-95621198D01*
X68756208Y-95624355D01*
X68756211Y-95624357D01*
X68834389Y-95679098D01*
X68939251Y-95752523D01*
X68944233Y-95754846D01*
X68944238Y-95754849D01*
X69013183Y-95786998D01*
X69146757Y-95849284D01*
X69152065Y-95850706D01*
X69152067Y-95850707D01*
X69362598Y-95907119D01*
X69362600Y-95907119D01*
X69367913Y-95908543D01*
X69596000Y-95928498D01*
X69824087Y-95908543D01*
X69829400Y-95907119D01*
X69829402Y-95907119D01*
X70039933Y-95850707D01*
X70039935Y-95850706D01*
X70045243Y-95849284D01*
X70178817Y-95786998D01*
X70247762Y-95754849D01*
X70247767Y-95754846D01*
X70252749Y-95752523D01*
X70269729Y-95740633D01*
X70337001Y-95717945D01*
X70405862Y-95735229D01*
X70454447Y-95786998D01*
X70468000Y-95843846D01*
X70468000Y-98375672D01*
X70466500Y-98395056D01*
X70462814Y-98418730D01*
X70464941Y-98434999D01*
X70465734Y-98459567D01*
X70450215Y-98696344D01*
X70448064Y-98712685D01*
X70396623Y-98971294D01*
X70392357Y-98987213D01*
X70307606Y-99236883D01*
X70301299Y-99252111D01*
X70184677Y-99488596D01*
X70176436Y-99502869D01*
X70029950Y-99722102D01*
X70019917Y-99735177D01*
X69846062Y-99933421D01*
X69834421Y-99945062D01*
X69730222Y-100036442D01*
X69636177Y-100118917D01*
X69623102Y-100128950D01*
X69403869Y-100275436D01*
X69389596Y-100283677D01*
X69153111Y-100400299D01*
X69137883Y-100406606D01*
X68888213Y-100491357D01*
X68872294Y-100495623D01*
X68613685Y-100547064D01*
X68597343Y-100549215D01*
X68367731Y-100564264D01*
X68344696Y-100563239D01*
X68341146Y-100563196D01*
X68332270Y-100561814D01*
X68303762Y-100565542D01*
X68300749Y-100565936D01*
X68284411Y-100567000D01*
X50595328Y-100567000D01*
X50575943Y-100565500D01*
X50561142Y-100563195D01*
X50561139Y-100563195D01*
X50552270Y-100561814D01*
X50536001Y-100563941D01*
X50511433Y-100564734D01*
X50274656Y-100549215D01*
X50258315Y-100547064D01*
X49999706Y-100495623D01*
X49983787Y-100491357D01*
X49734117Y-100406606D01*
X49718889Y-100400299D01*
X49482404Y-100283677D01*
X49468131Y-100275436D01*
X49248898Y-100128950D01*
X49235823Y-100118917D01*
X49141778Y-100036442D01*
X49037579Y-99945062D01*
X49025938Y-99933421D01*
X48852083Y-99735177D01*
X48842050Y-99722102D01*
X48695564Y-99502869D01*
X48687323Y-99488596D01*
X48570701Y-99252111D01*
X48564394Y-99236883D01*
X48479643Y-98987213D01*
X48475377Y-98971294D01*
X48423936Y-98712684D01*
X48421785Y-98696343D01*
X48411136Y-98533879D01*
X48765840Y-98533879D01*
X48801486Y-98795808D01*
X48875457Y-99049590D01*
X48986127Y-99289652D01*
X48988690Y-99293561D01*
X49128499Y-99506805D01*
X49128503Y-99506810D01*
X49131065Y-99510718D01*
X49307086Y-99707933D01*
X49510324Y-99876964D01*
X49736314Y-100014099D01*
X49740622Y-100015905D01*
X49740623Y-100015906D01*
X49975776Y-100114514D01*
X49975781Y-100114516D01*
X49980091Y-100116323D01*
X49984623Y-100117474D01*
X49984626Y-100117475D01*
X50040197Y-100131588D01*
X50236301Y-100181392D01*
X50455856Y-100203500D01*
X50613108Y-100203500D01*
X50615433Y-100203327D01*
X50615439Y-100203327D01*
X50804964Y-100189243D01*
X50804968Y-100189242D01*
X50809616Y-100188897D01*
X51067441Y-100130557D01*
X51083369Y-100124363D01*
X51309458Y-100036442D01*
X51309460Y-100036441D01*
X51313811Y-100034749D01*
X51346780Y-100015906D01*
X51398448Y-99986375D01*
X51543313Y-99903578D01*
X51750906Y-99739925D01*
X51932030Y-99547385D01*
X51972813Y-99488596D01*
X52080042Y-99334026D01*
X52080045Y-99334021D01*
X52082704Y-99330188D01*
X52084771Y-99325997D01*
X52197555Y-99097294D01*
X52197556Y-99097291D01*
X52199620Y-99093106D01*
X52280209Y-98841347D01*
X52322700Y-98580441D01*
X52323310Y-98533879D01*
X66545840Y-98533879D01*
X66581486Y-98795808D01*
X66655457Y-99049590D01*
X66766127Y-99289652D01*
X66768690Y-99293561D01*
X66908499Y-99506805D01*
X66908503Y-99506810D01*
X66911065Y-99510718D01*
X67087086Y-99707933D01*
X67290324Y-99876964D01*
X67516314Y-100014099D01*
X67520622Y-100015905D01*
X67520623Y-100015906D01*
X67755776Y-100114514D01*
X67755781Y-100114516D01*
X67760091Y-100116323D01*
X67764623Y-100117474D01*
X67764626Y-100117475D01*
X67820197Y-100131588D01*
X68016301Y-100181392D01*
X68235856Y-100203500D01*
X68393108Y-100203500D01*
X68395433Y-100203327D01*
X68395439Y-100203327D01*
X68584964Y-100189243D01*
X68584968Y-100189242D01*
X68589616Y-100188897D01*
X68847441Y-100130557D01*
X68863369Y-100124363D01*
X69089458Y-100036442D01*
X69089460Y-100036441D01*
X69093811Y-100034749D01*
X69126780Y-100015906D01*
X69178448Y-99986375D01*
X69323313Y-99903578D01*
X69530906Y-99739925D01*
X69712030Y-99547385D01*
X69752813Y-99488596D01*
X69860042Y-99334026D01*
X69860045Y-99334021D01*
X69862704Y-99330188D01*
X69864771Y-99325997D01*
X69977555Y-99097294D01*
X69977556Y-99097291D01*
X69979620Y-99093106D01*
X70060209Y-98841347D01*
X70102700Y-98580441D01*
X70105330Y-98379549D01*
X70106099Y-98320798D01*
X70106099Y-98320795D01*
X70106160Y-98316121D01*
X70070514Y-98054192D01*
X69996543Y-97800410D01*
X69885873Y-97560348D01*
X69854347Y-97512263D01*
X69743501Y-97343195D01*
X69743497Y-97343190D01*
X69740935Y-97339282D01*
X69564914Y-97142067D01*
X69361676Y-96973036D01*
X69135686Y-96835901D01*
X69091969Y-96817569D01*
X68896224Y-96735486D01*
X68896219Y-96735484D01*
X68891909Y-96733677D01*
X68887377Y-96732526D01*
X68887374Y-96732525D01*
X68759879Y-96700146D01*
X68635699Y-96668608D01*
X68416144Y-96646500D01*
X68258892Y-96646500D01*
X68256567Y-96646673D01*
X68256561Y-96646673D01*
X68067036Y-96660757D01*
X68067032Y-96660758D01*
X68062384Y-96661103D01*
X67804559Y-96719443D01*
X67800207Y-96721135D01*
X67800205Y-96721136D01*
X67562542Y-96813558D01*
X67562540Y-96813559D01*
X67558189Y-96815251D01*
X67554135Y-96817568D01*
X67554133Y-96817569D01*
X67522059Y-96835901D01*
X67328687Y-96946422D01*
X67121094Y-97110075D01*
X66939970Y-97302615D01*
X66789296Y-97519812D01*
X66787230Y-97524001D01*
X66787229Y-97524003D01*
X66771234Y-97556439D01*
X66672380Y-97756894D01*
X66591791Y-98008653D01*
X66549300Y-98269559D01*
X66548629Y-98320798D01*
X66546944Y-98449575D01*
X66545840Y-98533879D01*
X52323310Y-98533879D01*
X52325330Y-98379549D01*
X52326099Y-98320798D01*
X52326099Y-98320795D01*
X52326160Y-98316121D01*
X52290514Y-98054192D01*
X52216543Y-97800410D01*
X52105873Y-97560348D01*
X52074347Y-97512263D01*
X51963501Y-97343195D01*
X51963497Y-97343190D01*
X51960935Y-97339282D01*
X51784914Y-97142067D01*
X51581676Y-96973036D01*
X51355686Y-96835901D01*
X51311969Y-96817569D01*
X51116224Y-96735486D01*
X51116219Y-96735484D01*
X51111909Y-96733677D01*
X51107377Y-96732526D01*
X51107374Y-96732525D01*
X50979879Y-96700146D01*
X50855699Y-96668608D01*
X50636144Y-96646500D01*
X50478892Y-96646500D01*
X50476567Y-96646673D01*
X50476561Y-96646673D01*
X50287036Y-96660757D01*
X50287032Y-96660758D01*
X50282384Y-96661103D01*
X50024559Y-96719443D01*
X50020207Y-96721135D01*
X50020205Y-96721136D01*
X49782542Y-96813558D01*
X49782540Y-96813559D01*
X49778189Y-96815251D01*
X49774135Y-96817568D01*
X49774133Y-96817569D01*
X49742059Y-96835901D01*
X49548687Y-96946422D01*
X49341094Y-97110075D01*
X49159970Y-97302615D01*
X49009296Y-97519812D01*
X49007230Y-97524001D01*
X49007229Y-97524003D01*
X48991234Y-97556439D01*
X48892380Y-97756894D01*
X48811791Y-98008653D01*
X48769300Y-98269559D01*
X48768629Y-98320798D01*
X48766944Y-98449575D01*
X48765840Y-98533879D01*
X48411136Y-98533879D01*
X48406974Y-98470376D01*
X48408147Y-98447218D01*
X48407829Y-98447189D01*
X48408264Y-98442333D01*
X48409071Y-98437539D01*
X48409224Y-98425000D01*
X48405273Y-98397412D01*
X48404000Y-98379549D01*
X48404000Y-95843236D01*
X48424002Y-95775115D01*
X48477658Y-95728622D01*
X48547932Y-95718518D01*
X48602270Y-95740022D01*
X48614995Y-95748932D01*
X48624489Y-95754414D01*
X48821947Y-95846490D01*
X48832239Y-95850236D01*
X49042688Y-95906625D01*
X49053481Y-95908528D01*
X49270525Y-95927517D01*
X49281475Y-95927517D01*
X49498519Y-95908528D01*
X49509312Y-95906625D01*
X49719761Y-95850236D01*
X49730053Y-95846490D01*
X49927511Y-95754414D01*
X49937006Y-95748931D01*
X49989048Y-95712491D01*
X49997424Y-95702012D01*
X49990356Y-95688566D01*
X49005885Y-94704095D01*
X48971859Y-94641783D01*
X48973694Y-94616132D01*
X49640408Y-94616132D01*
X49640539Y-94617965D01*
X49644790Y-94624580D01*
X50350287Y-95330077D01*
X50362062Y-95336507D01*
X50374077Y-95327211D01*
X50409931Y-95276006D01*
X50415414Y-95266511D01*
X50507490Y-95069053D01*
X50511236Y-95058761D01*
X50567625Y-94848312D01*
X50569528Y-94837519D01*
X50588517Y-94620475D01*
X50588517Y-94609525D01*
X50569528Y-94392481D01*
X50567625Y-94381688D01*
X50511236Y-94171239D01*
X50507490Y-94160947D01*
X50415414Y-93963489D01*
X50409931Y-93953994D01*
X50373491Y-93901952D01*
X50363012Y-93893576D01*
X50349566Y-93900644D01*
X49648022Y-94602188D01*
X49640408Y-94616132D01*
X48973694Y-94616132D01*
X48976924Y-94570968D01*
X49005885Y-94525905D01*
X49991077Y-93540713D01*
X49997507Y-93528938D01*
X49988211Y-93516923D01*
X49937006Y-93481069D01*
X49927511Y-93475586D01*
X49892951Y-93459471D01*
X49839666Y-93412554D01*
X49820205Y-93344277D01*
X49840747Y-93276317D01*
X49892951Y-93231081D01*
X49927762Y-93214849D01*
X49927767Y-93214846D01*
X49932749Y-93212523D01*
X50037611Y-93139098D01*
X50115789Y-93084357D01*
X50115792Y-93084355D01*
X50120300Y-93081198D01*
X50282198Y-92919300D01*
X50413523Y-92731749D01*
X50415846Y-92726767D01*
X50415849Y-92726762D01*
X50507961Y-92529225D01*
X50507961Y-92529224D01*
X50510284Y-92524243D01*
X50569543Y-92303087D01*
X50589498Y-92075000D01*
X50569543Y-91846913D01*
X50510284Y-91625757D01*
X50507961Y-91620775D01*
X50415849Y-91423238D01*
X50415846Y-91423233D01*
X50413523Y-91418251D01*
X50282198Y-91230700D01*
X50120300Y-91068802D01*
X50115792Y-91065645D01*
X50115789Y-91065643D01*
X49982131Y-90972055D01*
X49932749Y-90937477D01*
X49927767Y-90935154D01*
X49927762Y-90935151D01*
X49893543Y-90919195D01*
X49840258Y-90872278D01*
X49820797Y-90804001D01*
X49841339Y-90736041D01*
X49893543Y-90690805D01*
X49927762Y-90674849D01*
X49927767Y-90674846D01*
X49932749Y-90672523D01*
X50037611Y-90599098D01*
X50115789Y-90544357D01*
X50115792Y-90544355D01*
X50120300Y-90541198D01*
X50282198Y-90379300D01*
X50413523Y-90191749D01*
X50415846Y-90186767D01*
X50415849Y-90186762D01*
X50507961Y-89989225D01*
X50507961Y-89989224D01*
X50510284Y-89984243D01*
X50569543Y-89763087D01*
X50589498Y-89535000D01*
X50569543Y-89306913D01*
X50510284Y-89085757D01*
X50507961Y-89080775D01*
X50415849Y-88883238D01*
X50415846Y-88883233D01*
X50413523Y-88878251D01*
X50282198Y-88690700D01*
X50120300Y-88528802D01*
X50115792Y-88525645D01*
X50115789Y-88525643D01*
X49982131Y-88432055D01*
X49932749Y-88397477D01*
X49927767Y-88395154D01*
X49927762Y-88395151D01*
X49893543Y-88379195D01*
X49840258Y-88332278D01*
X49820797Y-88264001D01*
X49841339Y-88196041D01*
X49893543Y-88150805D01*
X49927762Y-88134849D01*
X49927767Y-88134846D01*
X49932749Y-88132523D01*
X50037611Y-88059098D01*
X50115789Y-88004357D01*
X50115792Y-88004355D01*
X50120300Y-88001198D01*
X50282198Y-87839300D01*
X50413523Y-87651749D01*
X50415846Y-87646767D01*
X50415849Y-87646762D01*
X50507961Y-87449225D01*
X50507961Y-87449224D01*
X50510284Y-87444243D01*
X50538566Y-87338696D01*
X50568119Y-87228402D01*
X50568119Y-87228400D01*
X50569543Y-87223087D01*
X50589498Y-86995000D01*
X50569543Y-86766913D01*
X50552699Y-86704050D01*
X50511707Y-86551067D01*
X50511706Y-86551065D01*
X50510284Y-86545757D01*
X50502336Y-86528713D01*
X50415849Y-86343238D01*
X50415846Y-86343233D01*
X50413523Y-86338251D01*
X50282198Y-86150700D01*
X50120300Y-85988802D01*
X50115792Y-85985645D01*
X50115789Y-85985643D01*
X49982131Y-85892055D01*
X49932749Y-85857477D01*
X49927767Y-85855154D01*
X49927762Y-85855151D01*
X49893543Y-85839195D01*
X49840258Y-85792278D01*
X49820797Y-85724001D01*
X49841339Y-85656041D01*
X49893543Y-85610805D01*
X49927762Y-85594849D01*
X49927767Y-85594846D01*
X49932749Y-85592523D01*
X50046971Y-85512544D01*
X50115789Y-85464357D01*
X50115792Y-85464355D01*
X50120300Y-85461198D01*
X50282198Y-85299300D01*
X50332907Y-85226881D01*
X50410366Y-85116257D01*
X50413523Y-85111749D01*
X50415846Y-85106767D01*
X50415849Y-85106762D01*
X50507961Y-84909225D01*
X50507961Y-84909224D01*
X50510284Y-84904243D01*
X50523974Y-84853154D01*
X50568119Y-84688402D01*
X50568119Y-84688400D01*
X50569543Y-84683087D01*
X50589498Y-84455000D01*
X50569543Y-84226913D01*
X50544156Y-84132168D01*
X50511707Y-84011067D01*
X50511706Y-84011065D01*
X50510284Y-84005757D01*
X50447120Y-83870300D01*
X50415849Y-83803238D01*
X50415846Y-83803233D01*
X50413523Y-83798251D01*
X50309103Y-83649124D01*
X50285357Y-83615211D01*
X50285355Y-83615208D01*
X50282198Y-83610700D01*
X50120300Y-83448802D01*
X50115792Y-83445645D01*
X50115789Y-83445643D01*
X49982131Y-83352055D01*
X49932749Y-83317477D01*
X49927767Y-83315154D01*
X49927762Y-83315151D01*
X49893543Y-83299195D01*
X49840258Y-83252278D01*
X49820797Y-83184001D01*
X49841339Y-83116041D01*
X49893543Y-83070805D01*
X49927762Y-83054849D01*
X49927767Y-83054846D01*
X49932749Y-83052523D01*
X50037611Y-82979098D01*
X50115789Y-82924357D01*
X50115792Y-82924355D01*
X50120300Y-82921198D01*
X50282198Y-82759300D01*
X50299073Y-82735201D01*
X50374598Y-82627339D01*
X50413523Y-82571749D01*
X50415846Y-82566767D01*
X50415849Y-82566762D01*
X50507961Y-82369225D01*
X50507961Y-82369224D01*
X50510284Y-82364243D01*
X50569543Y-82143087D01*
X50589498Y-81915000D01*
X50589019Y-81909524D01*
X50578944Y-81794361D01*
X50592934Y-81724756D01*
X50642333Y-81673764D01*
X50711459Y-81657574D01*
X50778364Y-81681327D01*
X50798101Y-81699070D01*
X50817936Y-81721099D01*
X50848653Y-81785106D01*
X50850300Y-81805409D01*
X50850300Y-84535422D01*
X50849222Y-84551869D01*
X50845255Y-84582000D01*
X50850300Y-84620319D01*
X50850300Y-84620321D01*
X50865350Y-84734637D01*
X50898657Y-84815047D01*
X50924266Y-84876873D01*
X50929293Y-84883424D01*
X50929294Y-84883426D01*
X50931883Y-84886800D01*
X50940113Y-84897525D01*
X51017987Y-84999013D01*
X51024532Y-85004035D01*
X51042106Y-85017520D01*
X51054498Y-85028388D01*
X51826816Y-85800707D01*
X51837683Y-85813098D01*
X51845283Y-85823002D01*
X51856187Y-85837213D01*
X51886851Y-85860742D01*
X51886852Y-85860743D01*
X51978327Y-85930934D01*
X52120563Y-85989850D01*
X52273200Y-86009946D01*
X52303338Y-86005978D01*
X52319785Y-86004900D01*
X54868122Y-86004900D01*
X54936243Y-86024902D01*
X54982736Y-86078558D01*
X54987954Y-86091962D01*
X55029689Y-86220409D01*
X55117840Y-86373091D01*
X55235809Y-86504109D01*
X55378440Y-86607737D01*
X55384469Y-86610421D01*
X55384472Y-86610423D01*
X55533464Y-86676758D01*
X55533467Y-86676759D01*
X55539500Y-86679445D01*
X55557787Y-86683332D01*
X55705492Y-86714728D01*
X55705496Y-86714728D01*
X55711949Y-86716100D01*
X55888251Y-86716100D01*
X55894704Y-86714728D01*
X55894708Y-86714728D01*
X56042413Y-86683332D01*
X56060700Y-86679445D01*
X56066733Y-86676759D01*
X56066736Y-86676758D01*
X56215728Y-86610423D01*
X56215731Y-86610421D01*
X56221760Y-86607737D01*
X56364391Y-86504109D01*
X56482360Y-86373091D01*
X56556251Y-86245108D01*
X56607633Y-86196115D01*
X56677347Y-86182679D01*
X56743258Y-86209065D01*
X56784440Y-86266897D01*
X56790680Y-86321278D01*
X56789280Y-86334600D01*
X56789970Y-86341165D01*
X56793842Y-86377999D01*
X56807709Y-86509936D01*
X56862189Y-86677609D01*
X56950340Y-86830291D01*
X57068309Y-86961309D01*
X57122216Y-87000475D01*
X57170943Y-87035877D01*
X57210940Y-87064937D01*
X57216969Y-87067621D01*
X57216972Y-87067623D01*
X57365964Y-87133958D01*
X57365967Y-87133959D01*
X57372000Y-87136645D01*
X57408450Y-87144393D01*
X57537992Y-87171928D01*
X57537996Y-87171928D01*
X57544449Y-87173300D01*
X57720751Y-87173300D01*
X57739785Y-87169254D01*
X57820061Y-87152192D01*
X57890852Y-87157595D01*
X57920318Y-87173503D01*
X57995880Y-87228402D01*
X58047099Y-87265615D01*
X58053128Y-87268299D01*
X58053131Y-87268301D01*
X58202123Y-87334636D01*
X58202126Y-87334637D01*
X58208159Y-87337323D01*
X58244609Y-87345071D01*
X58374151Y-87372606D01*
X58374155Y-87372606D01*
X58380608Y-87373978D01*
X58556910Y-87373978D01*
X58563363Y-87372606D01*
X58563367Y-87372606D01*
X58692909Y-87345071D01*
X58729359Y-87337323D01*
X58735392Y-87334637D01*
X58735395Y-87334636D01*
X58884387Y-87268301D01*
X58884390Y-87268299D01*
X58890419Y-87265615D01*
X59033050Y-87161987D01*
X59037472Y-87157076D01*
X59146600Y-87035877D01*
X59146601Y-87035876D01*
X59151019Y-87030969D01*
X59239170Y-86878287D01*
X59273577Y-86772393D01*
X59291610Y-86716893D01*
X59291610Y-86716892D01*
X59293650Y-86710614D01*
X59297209Y-86676758D01*
X59311389Y-86541843D01*
X59312079Y-86535278D01*
X59293650Y-86359942D01*
X59285138Y-86333743D01*
X59241212Y-86198554D01*
X59239170Y-86192269D01*
X59151019Y-86039587D01*
X59081276Y-85962129D01*
X59049990Y-85894259D01*
X59049696Y-85892025D01*
X59049544Y-85890872D01*
X59038409Y-85806291D01*
X59000625Y-85715072D01*
X58979493Y-85664055D01*
X58909301Y-85572579D01*
X58885772Y-85541915D01*
X58875967Y-85534391D01*
X58861657Y-85523411D01*
X58849266Y-85512544D01*
X58551636Y-85214915D01*
X58517611Y-85152602D01*
X58514731Y-85125819D01*
X58514731Y-82403030D01*
X58515809Y-82386583D01*
X58519776Y-82356452D01*
X58521055Y-82356620D01*
X58538700Y-82296526D01*
X58592356Y-82250033D01*
X58644698Y-82238647D01*
X59392267Y-82238647D01*
X59460388Y-82258649D01*
X59481362Y-82275552D01*
X60818424Y-83612614D01*
X60829291Y-83625005D01*
X60847798Y-83649124D01*
X60915784Y-83701291D01*
X60969938Y-83742845D01*
X60977570Y-83746006D01*
X60984721Y-83750135D01*
X60983741Y-83751832D01*
X61030676Y-83789654D01*
X61053096Y-83857018D01*
X61035537Y-83925809D01*
X60984662Y-83971069D01*
X60985589Y-83972675D01*
X60979869Y-83975978D01*
X60973837Y-83978663D01*
X60968496Y-83982543D01*
X60968495Y-83982544D01*
X60936545Y-84005757D01*
X60831206Y-84082291D01*
X60826785Y-84087201D01*
X60826784Y-84087202D01*
X60786297Y-84132168D01*
X60713237Y-84213309D01*
X60625086Y-84365991D01*
X60570606Y-84533664D01*
X60569916Y-84540227D01*
X60569916Y-84540228D01*
X60564665Y-84590188D01*
X60552177Y-84709000D01*
X60552867Y-84715565D01*
X60567329Y-84853154D01*
X60570606Y-84884336D01*
X60572646Y-84890614D01*
X60572646Y-84890615D01*
X60602530Y-84982589D01*
X60625086Y-85052009D01*
X60713237Y-85204691D01*
X60717655Y-85209598D01*
X60717656Y-85209599D01*
X60826784Y-85330798D01*
X60831206Y-85335709D01*
X60973837Y-85439337D01*
X60979866Y-85442021D01*
X60979869Y-85442023D01*
X61128861Y-85508358D01*
X61128864Y-85508359D01*
X61134897Y-85511045D01*
X61167147Y-85517900D01*
X61300889Y-85546328D01*
X61300893Y-85546328D01*
X61307346Y-85547700D01*
X61483648Y-85547700D01*
X61490101Y-85546328D01*
X61490105Y-85546328D01*
X61623847Y-85517900D01*
X61656097Y-85511045D01*
X61662130Y-85508359D01*
X61662133Y-85508358D01*
X61811125Y-85442023D01*
X61811128Y-85442021D01*
X61817157Y-85439337D01*
X61959788Y-85335709D01*
X61964210Y-85330798D01*
X62073338Y-85209599D01*
X62073339Y-85209598D01*
X62077757Y-85204691D01*
X62165908Y-85052009D01*
X62188464Y-84982589D01*
X62218348Y-84890615D01*
X62218348Y-84890614D01*
X62220388Y-84884336D01*
X62231857Y-84775218D01*
X62258870Y-84709561D01*
X62317092Y-84668932D01*
X62357167Y-84662389D01*
X64778652Y-84662389D01*
X64846773Y-84682391D01*
X64872287Y-84704078D01*
X64913209Y-84749526D01*
X64918551Y-84753407D01*
X64918553Y-84753409D01*
X65003390Y-84815047D01*
X65055840Y-84853154D01*
X65061869Y-84855838D01*
X65061872Y-84855840D01*
X65210864Y-84922175D01*
X65210867Y-84922176D01*
X65216900Y-84924862D01*
X65253350Y-84932610D01*
X65382892Y-84960145D01*
X65382896Y-84960145D01*
X65389349Y-84961517D01*
X65565651Y-84961517D01*
X65572104Y-84960145D01*
X65572108Y-84960145D01*
X65701650Y-84932610D01*
X65738100Y-84924862D01*
X65744133Y-84922176D01*
X65744136Y-84922175D01*
X65893128Y-84855840D01*
X65893131Y-84855838D01*
X65899160Y-84853154D01*
X66041791Y-84749526D01*
X66091667Y-84694133D01*
X66155341Y-84623416D01*
X66155342Y-84623415D01*
X66159760Y-84618508D01*
X66247911Y-84465826D01*
X66302391Y-84298153D01*
X66319837Y-84132168D01*
X66346850Y-84066511D01*
X66393899Y-84030232D01*
X66531828Y-83968823D01*
X66531831Y-83968821D01*
X66537860Y-83966137D01*
X66680491Y-83862509D01*
X66738349Y-83798251D01*
X66794041Y-83736399D01*
X66794042Y-83736398D01*
X66798460Y-83731491D01*
X66886611Y-83578809D01*
X66919852Y-83476502D01*
X66939051Y-83417415D01*
X66939051Y-83417414D01*
X66941091Y-83411136D01*
X66949118Y-83334771D01*
X66958830Y-83242365D01*
X66959520Y-83235800D01*
X66941091Y-83060464D01*
X66886611Y-82892791D01*
X66798460Y-82740109D01*
X66714995Y-82647411D01*
X66684913Y-82614002D01*
X66684912Y-82614001D01*
X66680491Y-82609091D01*
X66537860Y-82505463D01*
X66531831Y-82502779D01*
X66531828Y-82502777D01*
X66382836Y-82436442D01*
X66382833Y-82436441D01*
X66376800Y-82433755D01*
X66340350Y-82426007D01*
X66210808Y-82398472D01*
X66210804Y-82398472D01*
X66204351Y-82397100D01*
X66028049Y-82397100D01*
X66021596Y-82398472D01*
X66021592Y-82398472D01*
X65892050Y-82426007D01*
X65855600Y-82433755D01*
X65849567Y-82436441D01*
X65849564Y-82436442D01*
X65700572Y-82502777D01*
X65700569Y-82502779D01*
X65694540Y-82505463D01*
X65551909Y-82609091D01*
X65547489Y-82614000D01*
X65546325Y-82615048D01*
X65482317Y-82645765D01*
X65462015Y-82647411D01*
X61559191Y-82647411D01*
X61491070Y-82627409D01*
X61470096Y-82610506D01*
X60133034Y-81273444D01*
X60122166Y-81261052D01*
X60108688Y-81243487D01*
X60103660Y-81236934D01*
X60093094Y-81228826D01*
X60001244Y-81158348D01*
X59994274Y-81153000D01*
X59981520Y-81143213D01*
X59912632Y-81114679D01*
X59839284Y-81084297D01*
X59831096Y-81083219D01*
X59724971Y-81069247D01*
X59724966Y-81069247D01*
X59686647Y-81064202D01*
X59678459Y-81065280D01*
X59656514Y-81068169D01*
X59640068Y-81069247D01*
X58956233Y-81069247D01*
X58888112Y-81049245D01*
X58841619Y-80995589D01*
X58832149Y-80937571D01*
X58830830Y-80937571D01*
X58830830Y-80930965D01*
X58831520Y-80924400D01*
X58819712Y-80812055D01*
X58813781Y-80755628D01*
X58813781Y-80755627D01*
X58813091Y-80749064D01*
X58790884Y-80680716D01*
X58760653Y-80587676D01*
X58758611Y-80581391D01*
X58670460Y-80428709D01*
X58552491Y-80297691D01*
X58472437Y-80239528D01*
X58429085Y-80183306D01*
X58420500Y-80137593D01*
X58420500Y-79900409D01*
X58440502Y-79832288D01*
X58452864Y-79816098D01*
X58513641Y-79748599D01*
X58513642Y-79748598D01*
X58518060Y-79743691D01*
X58555236Y-79679300D01*
X58602907Y-79596732D01*
X58602908Y-79596731D01*
X58606211Y-79591009D01*
X58660691Y-79423336D01*
X58665772Y-79375000D01*
X58678430Y-79254565D01*
X58679120Y-79248000D01*
X58662726Y-79092024D01*
X58661381Y-79079228D01*
X58661381Y-79079227D01*
X58660691Y-79072664D01*
X58606211Y-78904991D01*
X58518060Y-78752309D01*
X58491885Y-78723238D01*
X58404513Y-78626202D01*
X58404512Y-78626201D01*
X58400091Y-78621291D01*
X58257460Y-78517663D01*
X58251431Y-78514979D01*
X58251428Y-78514977D01*
X58102436Y-78448642D01*
X58102433Y-78448641D01*
X58096400Y-78445955D01*
X58059950Y-78438207D01*
X57930408Y-78410672D01*
X57930404Y-78410672D01*
X57923951Y-78409300D01*
X57917936Y-78409300D01*
X57852481Y-78382371D01*
X57811851Y-78324150D01*
X57805307Y-78284073D01*
X57805307Y-78018985D01*
X57806385Y-78002538D01*
X57809274Y-77980595D01*
X57810352Y-77972407D01*
X57805307Y-77934086D01*
X57790257Y-77819770D01*
X57731341Y-77677535D01*
X57731341Y-77677534D01*
X57686014Y-77618463D01*
X57637620Y-77555394D01*
X57631070Y-77550368D01*
X57631066Y-77550364D01*
X57613498Y-77536884D01*
X57601106Y-77526016D01*
X56582969Y-76507879D01*
X56548943Y-76445567D01*
X56546754Y-76431955D01*
X56531749Y-76289196D01*
X56531749Y-76289195D01*
X56531059Y-76282632D01*
X56522676Y-76256830D01*
X56478621Y-76121244D01*
X56476579Y-76114959D01*
X56388428Y-75962277D01*
X56333585Y-75901367D01*
X56274881Y-75836170D01*
X56274880Y-75836169D01*
X56270459Y-75831259D01*
X56127828Y-75727631D01*
X56121799Y-75724947D01*
X56121796Y-75724945D01*
X55972804Y-75658610D01*
X55972801Y-75658609D01*
X55966768Y-75655923D01*
X55930318Y-75648175D01*
X55800776Y-75620640D01*
X55800772Y-75620640D01*
X55794319Y-75619268D01*
X55618017Y-75619268D01*
X55611564Y-75620640D01*
X55611560Y-75620640D01*
X55482018Y-75648175D01*
X55445568Y-75655923D01*
X55439535Y-75658609D01*
X55439532Y-75658610D01*
X55290540Y-75724945D01*
X55290537Y-75724947D01*
X55284508Y-75727631D01*
X55141877Y-75831259D01*
X55137456Y-75836169D01*
X55137455Y-75836170D01*
X55078752Y-75901367D01*
X55023908Y-75962277D01*
X54935757Y-76114959D01*
X54933715Y-76121244D01*
X54889661Y-76256830D01*
X54881277Y-76282632D01*
X54880587Y-76289195D01*
X54880587Y-76289196D01*
X54863538Y-76451403D01*
X54862848Y-76457968D01*
X54881277Y-76633304D01*
X54935757Y-76800977D01*
X55023908Y-76953659D01*
X55028326Y-76958566D01*
X55028327Y-76958567D01*
X55053244Y-76986240D01*
X55141877Y-77084677D01*
X55284508Y-77188305D01*
X55290537Y-77190989D01*
X55290540Y-77190991D01*
X55439532Y-77257326D01*
X55439535Y-77257327D01*
X55445568Y-77260013D01*
X55482018Y-77267761D01*
X55611560Y-77295296D01*
X55611564Y-77295296D01*
X55618017Y-77296668D01*
X55665788Y-77296668D01*
X55733909Y-77316670D01*
X55754883Y-77333573D01*
X56599002Y-78177692D01*
X56633028Y-78240004D01*
X56635907Y-78266787D01*
X56635907Y-79555048D01*
X56615905Y-79623169D01*
X56562249Y-79669662D01*
X56526953Y-79679300D01*
X56526545Y-79679300D01*
X56520096Y-79680671D01*
X56520094Y-79680671D01*
X56466805Y-79691998D01*
X56354096Y-79715955D01*
X56348063Y-79718641D01*
X56348060Y-79718642D01*
X56199068Y-79784977D01*
X56199065Y-79784979D01*
X56193036Y-79787663D01*
X56187695Y-79791543D01*
X56187694Y-79791544D01*
X56153899Y-79816098D01*
X56050405Y-79891291D01*
X56045984Y-79896201D01*
X56045983Y-79896202D01*
X55946299Y-80006913D01*
X55932436Y-80022309D01*
X55844285Y-80174991D01*
X55818715Y-80253688D01*
X55778642Y-80312294D01*
X55747633Y-80329222D01*
X55748196Y-80330487D01*
X55593168Y-80399509D01*
X55593165Y-80399511D01*
X55587136Y-80402195D01*
X55444505Y-80505823D01*
X55440084Y-80510733D01*
X55440083Y-80510734D01*
X55381281Y-80576041D01*
X55326536Y-80636841D01*
X55238385Y-80789523D01*
X55215829Y-80858943D01*
X55190282Y-80937571D01*
X55183905Y-80957196D01*
X55165476Y-81132532D01*
X55166166Y-81139097D01*
X55174381Y-81217251D01*
X55183905Y-81307868D01*
X55238385Y-81475541D01*
X55241688Y-81481263D01*
X55241689Y-81481264D01*
X55292581Y-81569411D01*
X55309319Y-81638406D01*
X55286099Y-81705498D01*
X55230292Y-81749385D01*
X55183462Y-81758411D01*
X54418093Y-81758411D01*
X54349972Y-81738409D01*
X54328998Y-81721507D01*
X53866273Y-81258783D01*
X53855405Y-81246390D01*
X53841928Y-81228826D01*
X53836902Y-81222276D01*
X53759275Y-81162712D01*
X53714762Y-81128555D01*
X53658462Y-81105235D01*
X53580155Y-81072799D01*
X53572526Y-81069639D01*
X53564338Y-81068561D01*
X53458213Y-81054589D01*
X53458208Y-81054589D01*
X53419889Y-81049544D01*
X53411701Y-81050622D01*
X53389756Y-81053511D01*
X53373310Y-81054589D01*
X52957800Y-81054589D01*
X52941353Y-81053511D01*
X52919410Y-81050622D01*
X52911222Y-81049544D01*
X52872903Y-81054589D01*
X52872898Y-81054589D01*
X52766771Y-81068561D01*
X52766769Y-81068562D01*
X52758585Y-81069639D01*
X52723198Y-81084297D01*
X52715405Y-81087525D01*
X52623983Y-81125393D01*
X52616349Y-81128555D01*
X52571836Y-81162712D01*
X52494209Y-81222276D01*
X52491099Y-81226329D01*
X52430067Y-81259656D01*
X52359252Y-81254591D01*
X52302416Y-81212044D01*
X52277974Y-81149706D01*
X52260581Y-80984228D01*
X52260581Y-80984227D01*
X52259891Y-80977664D01*
X52251201Y-80950917D01*
X52207453Y-80816276D01*
X52205411Y-80809991D01*
X52197223Y-80795808D01*
X52120562Y-80663028D01*
X52120561Y-80663027D01*
X52117260Y-80657309D01*
X52115031Y-80654833D01*
X52091580Y-80589109D01*
X52107661Y-80519957D01*
X52123739Y-80497606D01*
X52138237Y-80481504D01*
X52138240Y-80481500D01*
X52142660Y-80476591D01*
X52230811Y-80323909D01*
X52270489Y-80201793D01*
X52283251Y-80162515D01*
X52283251Y-80162514D01*
X52285291Y-80156236D01*
X52297902Y-80036253D01*
X52300986Y-80006913D01*
X52328000Y-79941256D01*
X52337201Y-79930989D01*
X53858366Y-78409824D01*
X53918156Y-78377359D01*
X53918059Y-78377059D01*
X53919676Y-78376534D01*
X53921261Y-78375673D01*
X53924337Y-78375019D01*
X53924340Y-78375018D01*
X53930800Y-78373645D01*
X53936830Y-78370960D01*
X53936834Y-78370959D01*
X54085828Y-78304623D01*
X54085831Y-78304621D01*
X54091860Y-78301937D01*
X54234491Y-78198309D01*
X54241767Y-78190228D01*
X54348041Y-78072199D01*
X54348042Y-78072198D01*
X54352460Y-78067291D01*
X54440611Y-77914609D01*
X54465730Y-77837301D01*
X54493051Y-77753215D01*
X54493051Y-77753214D01*
X54495091Y-77746936D01*
X54503546Y-77666499D01*
X54512830Y-77578165D01*
X54513520Y-77571600D01*
X54505127Y-77491749D01*
X54495781Y-77402828D01*
X54495781Y-77402827D01*
X54495091Y-77396264D01*
X54440611Y-77228591D01*
X54352460Y-77075909D01*
X54234491Y-76944891D01*
X54091860Y-76841263D01*
X54085831Y-76838579D01*
X54085828Y-76838577D01*
X53936836Y-76772242D01*
X53936833Y-76772241D01*
X53930800Y-76769555D01*
X53894350Y-76761807D01*
X53764808Y-76734272D01*
X53764804Y-76734272D01*
X53758351Y-76732900D01*
X53582049Y-76732900D01*
X53575596Y-76734272D01*
X53575592Y-76734272D01*
X53446050Y-76761807D01*
X53409600Y-76769555D01*
X53403567Y-76772241D01*
X53403564Y-76772242D01*
X53254572Y-76838577D01*
X53254569Y-76838579D01*
X53248540Y-76841263D01*
X53105909Y-76944891D01*
X52987940Y-77075909D01*
X52899789Y-77228591D01*
X52845309Y-77396264D01*
X52844619Y-77402827D01*
X52844619Y-77402828D01*
X52835273Y-77491749D01*
X52826880Y-77571600D01*
X52827570Y-77578165D01*
X52841135Y-77707224D01*
X52828363Y-77777062D01*
X52804920Y-77809490D01*
X51509115Y-79105295D01*
X51446803Y-79139321D01*
X51420020Y-79142200D01*
X51372249Y-79142200D01*
X51365796Y-79143572D01*
X51365792Y-79143572D01*
X51263877Y-79165235D01*
X51199800Y-79178855D01*
X51193767Y-79181541D01*
X51193764Y-79181542D01*
X51044772Y-79247877D01*
X51044769Y-79247879D01*
X51038740Y-79250563D01*
X51033399Y-79254443D01*
X51033398Y-79254444D01*
X50987230Y-79287987D01*
X50896109Y-79354191D01*
X50891688Y-79359101D01*
X50891687Y-79359102D01*
X50808655Y-79451319D01*
X50748209Y-79488559D01*
X50677226Y-79487207D01*
X50618241Y-79447694D01*
X50589983Y-79382563D01*
X50589514Y-79374999D01*
X50589498Y-79375000D01*
X50578961Y-79254565D01*
X50569543Y-79146913D01*
X50560424Y-79112879D01*
X50511707Y-78931067D01*
X50511706Y-78931065D01*
X50510284Y-78925757D01*
X50507961Y-78920775D01*
X50415849Y-78723238D01*
X50415846Y-78723233D01*
X50413523Y-78718251D01*
X50340098Y-78613389D01*
X50285357Y-78535211D01*
X50285355Y-78535208D01*
X50282198Y-78530700D01*
X50120300Y-78368802D01*
X50115792Y-78365645D01*
X50115789Y-78365643D01*
X50024807Y-78301937D01*
X49932749Y-78237477D01*
X49927767Y-78235154D01*
X49927762Y-78235151D01*
X49893543Y-78219195D01*
X49840258Y-78172278D01*
X49820797Y-78104001D01*
X49841339Y-78036041D01*
X49893543Y-77990805D01*
X49927762Y-77974849D01*
X49927767Y-77974846D01*
X49932749Y-77972523D01*
X50080556Y-77869027D01*
X50115789Y-77844357D01*
X50115792Y-77844355D01*
X50120300Y-77841198D01*
X50282198Y-77679300D01*
X50291162Y-77666499D01*
X50353014Y-77578165D01*
X50413523Y-77491749D01*
X50415846Y-77486767D01*
X50415849Y-77486762D01*
X50507961Y-77289225D01*
X50507961Y-77289224D01*
X50510284Y-77284243D01*
X50516777Y-77260013D01*
X50568119Y-77068402D01*
X50568119Y-77068400D01*
X50569543Y-77063087D01*
X50589498Y-76835000D01*
X50569543Y-76606913D01*
X50560492Y-76573134D01*
X50511707Y-76391067D01*
X50511706Y-76391065D01*
X50510284Y-76385757D01*
X50480991Y-76322938D01*
X50415849Y-76183238D01*
X50415846Y-76183233D01*
X50413523Y-76178251D01*
X50282198Y-75990700D01*
X50120300Y-75828802D01*
X50115792Y-75825645D01*
X50115789Y-75825643D01*
X49981356Y-75731512D01*
X49932749Y-75697477D01*
X49927767Y-75695154D01*
X49927762Y-75695151D01*
X49893543Y-75679195D01*
X49840258Y-75632278D01*
X49820797Y-75564001D01*
X49841339Y-75496041D01*
X49893543Y-75450805D01*
X49927762Y-75434849D01*
X49927767Y-75434846D01*
X49932749Y-75432523D01*
X50037611Y-75359098D01*
X50115789Y-75304357D01*
X50115792Y-75304355D01*
X50120300Y-75301198D01*
X50282198Y-75139300D01*
X50413523Y-74951749D01*
X50415846Y-74946767D01*
X50415849Y-74946762D01*
X50507961Y-74749225D01*
X50507961Y-74749224D01*
X50510284Y-74744243D01*
X50569543Y-74523087D01*
X50589498Y-74295000D01*
X50569543Y-74066913D01*
X50556008Y-74016400D01*
X50511707Y-73851067D01*
X50511706Y-73851065D01*
X50510284Y-73845757D01*
X50455746Y-73728799D01*
X50415849Y-73643238D01*
X50415846Y-73643233D01*
X50413523Y-73638251D01*
X50282198Y-73450700D01*
X50120300Y-73288802D01*
X50115792Y-73285645D01*
X50115789Y-73285643D01*
X50023182Y-73220799D01*
X49961630Y-73177700D01*
X56992480Y-73177700D01*
X56993170Y-73184265D01*
X57003826Y-73285643D01*
X57010909Y-73353036D01*
X57012949Y-73359314D01*
X57012949Y-73359315D01*
X57034269Y-73424931D01*
X57065389Y-73520709D01*
X57068692Y-73526431D01*
X57068693Y-73526432D01*
X57094545Y-73571209D01*
X57153540Y-73673391D01*
X57157958Y-73678298D01*
X57157959Y-73678299D01*
X57264206Y-73796298D01*
X57271509Y-73804409D01*
X57414140Y-73908037D01*
X57420169Y-73910721D01*
X57420172Y-73910723D01*
X57569164Y-73977058D01*
X57569167Y-73977059D01*
X57575200Y-73979745D01*
X57611650Y-73987493D01*
X57741192Y-74015028D01*
X57741196Y-74015028D01*
X57747649Y-74016400D01*
X57923951Y-74016400D01*
X57930404Y-74015028D01*
X57930408Y-74015028D01*
X58059950Y-73987493D01*
X58096400Y-73979745D01*
X58102433Y-73977059D01*
X58102436Y-73977058D01*
X58251428Y-73910723D01*
X58251431Y-73910721D01*
X58257460Y-73908037D01*
X58400091Y-73804409D01*
X58407394Y-73796298D01*
X58513641Y-73678299D01*
X58513642Y-73678298D01*
X58518060Y-73673391D01*
X58577055Y-73571209D01*
X58602907Y-73526432D01*
X58602908Y-73526431D01*
X58606211Y-73520709D01*
X58637331Y-73424931D01*
X58658651Y-73359315D01*
X58658651Y-73359314D01*
X58660691Y-73353036D01*
X58667775Y-73285643D01*
X58678430Y-73184265D01*
X58679120Y-73177700D01*
X58660691Y-73002364D01*
X58606211Y-72834691D01*
X58550518Y-72738227D01*
X58521363Y-72687730D01*
X58518060Y-72682009D01*
X58452864Y-72609601D01*
X58422147Y-72545594D01*
X58420500Y-72525291D01*
X58420500Y-72516709D01*
X58440502Y-72448588D01*
X58452864Y-72432398D01*
X58513641Y-72364899D01*
X58513642Y-72364898D01*
X58518060Y-72359991D01*
X58606211Y-72207309D01*
X58644454Y-72089608D01*
X58658651Y-72045915D01*
X58658651Y-72045914D01*
X58660691Y-72039636D01*
X58665923Y-71989863D01*
X58678430Y-71870865D01*
X58679120Y-71864300D01*
X58673214Y-71808110D01*
X58661381Y-71695528D01*
X58661381Y-71695527D01*
X58660691Y-71688964D01*
X58606211Y-71521291D01*
X58518060Y-71368609D01*
X58508104Y-71357551D01*
X58404513Y-71242502D01*
X58404512Y-71242501D01*
X58400091Y-71237591D01*
X58305588Y-71168930D01*
X58262802Y-71137844D01*
X58262801Y-71137843D01*
X58257460Y-71133963D01*
X58251431Y-71131279D01*
X58251428Y-71131277D01*
X58102436Y-71064942D01*
X58102433Y-71064941D01*
X58096400Y-71062255D01*
X58059950Y-71054507D01*
X57930408Y-71026972D01*
X57930404Y-71026972D01*
X57923951Y-71025600D01*
X57747649Y-71025600D01*
X57741196Y-71026972D01*
X57741192Y-71026972D01*
X57611650Y-71054507D01*
X57575200Y-71062255D01*
X57569167Y-71064941D01*
X57569164Y-71064942D01*
X57420172Y-71131277D01*
X57420169Y-71131279D01*
X57414140Y-71133963D01*
X57408799Y-71137843D01*
X57408798Y-71137844D01*
X57366012Y-71168930D01*
X57271509Y-71237591D01*
X57267088Y-71242501D01*
X57267087Y-71242502D01*
X57163497Y-71357551D01*
X57153540Y-71368609D01*
X57065389Y-71521291D01*
X57010909Y-71688964D01*
X57010219Y-71695527D01*
X57010219Y-71695528D01*
X56998386Y-71808110D01*
X56992480Y-71864300D01*
X56993170Y-71870865D01*
X57005678Y-71989863D01*
X57010909Y-72039636D01*
X57012949Y-72045914D01*
X57012949Y-72045915D01*
X57027146Y-72089608D01*
X57065389Y-72207309D01*
X57153540Y-72359991D01*
X57157958Y-72364898D01*
X57157959Y-72364899D01*
X57218736Y-72432398D01*
X57249453Y-72496406D01*
X57251100Y-72516709D01*
X57251100Y-72525291D01*
X57231098Y-72593412D01*
X57218737Y-72609600D01*
X57153540Y-72682009D01*
X57150237Y-72687730D01*
X57121083Y-72738227D01*
X57065389Y-72834691D01*
X57010909Y-73002364D01*
X56992480Y-73177700D01*
X49961630Y-73177700D01*
X49932749Y-73157477D01*
X49927767Y-73155154D01*
X49927762Y-73155151D01*
X49893543Y-73139195D01*
X49840258Y-73092278D01*
X49820797Y-73024001D01*
X49841339Y-72956041D01*
X49893543Y-72910805D01*
X49927762Y-72894849D01*
X49927767Y-72894846D01*
X49932749Y-72892523D01*
X50037611Y-72819098D01*
X50115789Y-72764357D01*
X50115792Y-72764355D01*
X50120300Y-72761198D01*
X50282198Y-72599300D01*
X50315719Y-72551428D01*
X50387728Y-72448588D01*
X50413523Y-72411749D01*
X50415846Y-72406767D01*
X50415849Y-72406762D01*
X50507961Y-72209225D01*
X50507961Y-72209224D01*
X50510284Y-72204243D01*
X50533124Y-72119006D01*
X50568119Y-71988402D01*
X50568119Y-71988400D01*
X50569543Y-71983087D01*
X50589498Y-71755000D01*
X50569543Y-71526913D01*
X50566503Y-71515568D01*
X50511707Y-71311067D01*
X50511706Y-71311065D01*
X50510284Y-71305757D01*
X50492446Y-71267502D01*
X50415849Y-71103238D01*
X50415846Y-71103233D01*
X50413523Y-71098251D01*
X50282198Y-70910700D01*
X50120300Y-70748802D01*
X50115792Y-70745645D01*
X50115789Y-70745643D01*
X49981233Y-70651426D01*
X49932749Y-70617477D01*
X49927767Y-70615154D01*
X49927762Y-70615151D01*
X49893543Y-70599195D01*
X49840258Y-70552278D01*
X49820797Y-70484001D01*
X49841339Y-70416041D01*
X49893543Y-70370805D01*
X49927762Y-70354849D01*
X49927767Y-70354846D01*
X49932749Y-70352523D01*
X50093408Y-70240028D01*
X50115789Y-70224357D01*
X50115792Y-70224355D01*
X50120300Y-70221198D01*
X50282198Y-70059300D01*
X50291038Y-70046676D01*
X50374858Y-69926968D01*
X50413523Y-69871749D01*
X50415846Y-69866767D01*
X50415849Y-69866762D01*
X50507961Y-69669225D01*
X50507961Y-69669224D01*
X50510284Y-69664243D01*
X50569543Y-69443087D01*
X50589498Y-69215000D01*
X50572028Y-69015319D01*
X50586017Y-68945715D01*
X50635417Y-68894723D01*
X50704542Y-68878532D01*
X50748797Y-68889231D01*
X50822753Y-68922158D01*
X50822756Y-68922159D01*
X50828789Y-68924845D01*
X50865239Y-68932593D01*
X50994781Y-68960128D01*
X50994785Y-68960128D01*
X51001238Y-68961500D01*
X51049008Y-68961500D01*
X51117129Y-68981502D01*
X51138103Y-68998405D01*
X51328805Y-69189107D01*
X51339673Y-69201499D01*
X51349248Y-69213977D01*
X51358176Y-69225613D01*
X51388840Y-69249142D01*
X51388841Y-69249143D01*
X51480317Y-69319334D01*
X51622552Y-69378250D01*
X51630731Y-69379327D01*
X51630735Y-69379328D01*
X51645469Y-69381267D01*
X51647905Y-69381588D01*
X51712832Y-69410311D01*
X51725095Y-69422201D01*
X51732480Y-69430403D01*
X51732483Y-69430406D01*
X51736898Y-69435309D01*
X51879529Y-69538937D01*
X51885558Y-69541621D01*
X51885561Y-69541623D01*
X52034553Y-69607958D01*
X52034556Y-69607959D01*
X52040589Y-69610645D01*
X52061304Y-69615048D01*
X52206581Y-69645928D01*
X52206585Y-69645928D01*
X52213038Y-69647300D01*
X52389340Y-69647300D01*
X52395793Y-69645928D01*
X52395797Y-69645928D01*
X52541074Y-69615048D01*
X52561789Y-69610645D01*
X52567822Y-69607959D01*
X52567825Y-69607958D01*
X52716817Y-69541623D01*
X52716820Y-69541621D01*
X52722849Y-69538937D01*
X52865480Y-69435309D01*
X52869902Y-69430398D01*
X52979030Y-69309199D01*
X52979031Y-69309198D01*
X52983449Y-69304291D01*
X53071600Y-69151609D01*
X53106172Y-69045206D01*
X53124040Y-68990215D01*
X53124040Y-68990214D01*
X53126080Y-68983936D01*
X53144509Y-68808600D01*
X53126080Y-68633264D01*
X53112007Y-68589950D01*
X53094156Y-68535011D01*
X53071600Y-68465591D01*
X52983449Y-68312909D01*
X52970148Y-68298136D01*
X52869902Y-68186802D01*
X52869901Y-68186801D01*
X52865480Y-68181891D01*
X52722849Y-68078263D01*
X52716820Y-68075579D01*
X52716817Y-68075577D01*
X52567825Y-68009242D01*
X52567822Y-68009241D01*
X52561789Y-68006555D01*
X52525339Y-67998807D01*
X52395797Y-67971272D01*
X52395793Y-67971272D01*
X52389340Y-67969900D01*
X52213038Y-67969900D01*
X52206585Y-67971272D01*
X52206581Y-67971272D01*
X52051371Y-68004263D01*
X51980580Y-67998861D01*
X51923947Y-67956044D01*
X51905341Y-67919952D01*
X51864816Y-67795229D01*
X51859800Y-67779791D01*
X51850466Y-67763623D01*
X51789085Y-67657309D01*
X51771649Y-67627109D01*
X51674578Y-67519300D01*
X51658102Y-67501002D01*
X51658101Y-67501001D01*
X51653680Y-67496091D01*
X51511049Y-67392463D01*
X51505020Y-67389779D01*
X51505017Y-67389777D01*
X51356025Y-67323442D01*
X51356022Y-67323441D01*
X51349989Y-67320755D01*
X51313539Y-67313007D01*
X51183997Y-67285472D01*
X51183993Y-67285472D01*
X51177540Y-67284100D01*
X51001238Y-67284100D01*
X50994785Y-67285472D01*
X50994781Y-67285472D01*
X50865239Y-67313007D01*
X50828789Y-67320755D01*
X50822756Y-67323441D01*
X50822753Y-67323442D01*
X50673761Y-67389777D01*
X50673758Y-67389779D01*
X50667729Y-67392463D01*
X50662388Y-67396343D01*
X50662387Y-67396344D01*
X50634612Y-67416524D01*
X50567744Y-67440382D01*
X50498593Y-67424302D01*
X50449113Y-67373388D01*
X50435013Y-67303806D01*
X50446356Y-67261338D01*
X50507961Y-67129225D01*
X50507961Y-67129224D01*
X50510284Y-67124243D01*
X50569543Y-66903087D01*
X50589498Y-66675000D01*
X50569543Y-66446913D01*
X50559605Y-66409824D01*
X50511707Y-66231067D01*
X50511706Y-66231065D01*
X50510284Y-66225757D01*
X50435966Y-66066380D01*
X50415849Y-66023238D01*
X50415846Y-66023233D01*
X50413523Y-66018251D01*
X50282198Y-65830700D01*
X50120300Y-65668802D01*
X50115792Y-65665645D01*
X50115789Y-65665643D01*
X49982131Y-65572055D01*
X49932749Y-65537477D01*
X49927767Y-65535154D01*
X49927762Y-65535151D01*
X49892951Y-65518919D01*
X49839666Y-65472002D01*
X49838255Y-65467051D01*
X55095319Y-65467051D01*
X55111868Y-65664134D01*
X55134506Y-65743081D01*
X55160924Y-65835211D01*
X55166383Y-65854250D01*
X55169202Y-65859735D01*
X55253232Y-66023238D01*
X55256787Y-66030156D01*
X55379635Y-66185153D01*
X55384328Y-66189147D01*
X55384329Y-66189148D01*
X55472230Y-66263957D01*
X55530250Y-66313336D01*
X55702894Y-66409824D01*
X55890992Y-66470940D01*
X56087377Y-66494358D01*
X56093512Y-66493886D01*
X56093514Y-66493886D01*
X56174562Y-66487649D01*
X56222261Y-66483979D01*
X56291716Y-66498696D01*
X56321023Y-66520513D01*
X56939713Y-67139203D01*
X56973739Y-67201515D01*
X56975928Y-67215125D01*
X56982513Y-67277779D01*
X56984553Y-67284057D01*
X56984553Y-67284058D01*
X57003114Y-67341183D01*
X57036993Y-67445452D01*
X57125144Y-67598134D01*
X57129562Y-67603041D01*
X57129563Y-67603042D01*
X57196426Y-67677301D01*
X57243113Y-67729152D01*
X57311899Y-67779128D01*
X57378126Y-67827245D01*
X57385744Y-67832780D01*
X57391773Y-67835464D01*
X57391776Y-67835466D01*
X57540768Y-67901801D01*
X57540771Y-67901802D01*
X57546804Y-67904488D01*
X57569368Y-67909284D01*
X57712796Y-67939771D01*
X57712800Y-67939771D01*
X57719253Y-67941143D01*
X57895555Y-67941143D01*
X57902008Y-67939771D01*
X57902012Y-67939771D01*
X58045440Y-67909284D01*
X58068004Y-67904488D01*
X58074037Y-67901802D01*
X58074040Y-67901801D01*
X58223032Y-67835466D01*
X58223035Y-67835464D01*
X58229064Y-67832780D01*
X58236683Y-67827245D01*
X58238223Y-67826695D01*
X58240125Y-67825597D01*
X58240326Y-67825945D01*
X58303550Y-67803387D01*
X58361990Y-67814075D01*
X58397664Y-67829958D01*
X58397667Y-67829959D01*
X58403700Y-67832645D01*
X58440150Y-67840393D01*
X58569692Y-67867928D01*
X58569696Y-67867928D01*
X58576149Y-67869300D01*
X58752451Y-67869300D01*
X58758904Y-67867928D01*
X58758908Y-67867928D01*
X58888450Y-67840393D01*
X58924900Y-67832645D01*
X58930933Y-67829959D01*
X58930936Y-67829958D01*
X59079928Y-67763623D01*
X59079931Y-67763621D01*
X59085960Y-67760937D01*
X59228591Y-67657309D01*
X59346560Y-67526291D01*
X59423826Y-67392463D01*
X59431407Y-67379332D01*
X59431408Y-67379331D01*
X59434711Y-67373609D01*
X59453986Y-67314286D01*
X59494059Y-67255680D01*
X59559456Y-67228043D01*
X59625067Y-67238115D01*
X59748022Y-67292858D01*
X59748025Y-67292859D01*
X59754058Y-67295545D01*
X59790508Y-67303293D01*
X59920050Y-67330828D01*
X59920054Y-67330828D01*
X59926507Y-67332200D01*
X60102809Y-67332200D01*
X60109262Y-67330828D01*
X60109266Y-67330828D01*
X60238808Y-67303293D01*
X60275258Y-67295545D01*
X60393363Y-67242962D01*
X60463728Y-67233528D01*
X60495852Y-67242960D01*
X60613961Y-67295545D01*
X60650411Y-67303293D01*
X60779953Y-67330828D01*
X60779957Y-67330828D01*
X60786410Y-67332200D01*
X60962712Y-67332200D01*
X60969165Y-67330828D01*
X60969169Y-67330828D01*
X61098711Y-67303293D01*
X61135161Y-67295545D01*
X61141194Y-67292859D01*
X61141197Y-67292858D01*
X61214052Y-67260421D01*
X61284419Y-67250987D01*
X61348716Y-67281094D01*
X61386529Y-67341183D01*
X61391300Y-67375528D01*
X61391300Y-69658902D01*
X61371298Y-69727023D01*
X61339361Y-69760838D01*
X61335490Y-69763650D01*
X61310109Y-69782091D01*
X61305688Y-69787001D01*
X61305687Y-69787002D01*
X61225322Y-69876257D01*
X61192140Y-69913109D01*
X61188839Y-69918827D01*
X61107737Y-70059300D01*
X61103989Y-70065791D01*
X61049509Y-70233464D01*
X61048819Y-70240027D01*
X61048819Y-70240028D01*
X61034556Y-70375725D01*
X61031080Y-70408800D01*
X61031770Y-70415365D01*
X61046161Y-70552278D01*
X61049509Y-70584136D01*
X61103989Y-70751809D01*
X61107292Y-70757531D01*
X61107293Y-70757532D01*
X61119277Y-70778289D01*
X61192140Y-70904491D01*
X61196558Y-70909398D01*
X61196559Y-70909399D01*
X61201792Y-70915211D01*
X61310109Y-71035509D01*
X61390261Y-71093743D01*
X61445619Y-71133963D01*
X61452740Y-71139137D01*
X61458769Y-71141821D01*
X61458772Y-71141823D01*
X61607764Y-71208158D01*
X61607767Y-71208159D01*
X61613800Y-71210845D01*
X61650250Y-71218593D01*
X61779792Y-71246128D01*
X61779796Y-71246128D01*
X61786249Y-71247500D01*
X61852229Y-71247500D01*
X61920350Y-71267502D01*
X61966843Y-71321158D01*
X61976947Y-71391432D01*
X61947453Y-71456012D01*
X61945063Y-71458449D01*
X61945109Y-71458491D01*
X61827140Y-71589509D01*
X61738989Y-71742191D01*
X61736947Y-71748476D01*
X61699314Y-71864300D01*
X61684509Y-71909864D01*
X61683819Y-71916427D01*
X61683819Y-71916428D01*
X61683404Y-71920375D01*
X61666080Y-72085200D01*
X61684509Y-72260536D01*
X61738724Y-72427393D01*
X61738989Y-72428209D01*
X61738840Y-72428257D01*
X61747878Y-72495643D01*
X61717775Y-72559942D01*
X61697401Y-72578465D01*
X61665709Y-72601491D01*
X61661288Y-72606401D01*
X61661287Y-72606402D01*
X61597630Y-72677101D01*
X61547740Y-72732509D01*
X61529353Y-72764357D01*
X61465341Y-72875229D01*
X61459589Y-72885191D01*
X61457547Y-72891476D01*
X61414163Y-73025000D01*
X61405109Y-73052864D01*
X61386680Y-73228200D01*
X61405109Y-73403536D01*
X61407149Y-73409814D01*
X61407149Y-73409815D01*
X61419167Y-73446803D01*
X61459589Y-73571209D01*
X61462892Y-73576931D01*
X61462893Y-73576932D01*
X61518584Y-73673391D01*
X61547740Y-73723891D01*
X61552158Y-73728798D01*
X61552159Y-73728799D01*
X61612936Y-73796298D01*
X61643653Y-73860306D01*
X61645300Y-73880609D01*
X61645300Y-78363222D01*
X61644222Y-78379669D01*
X61640255Y-78409800D01*
X61645300Y-78448119D01*
X61645300Y-78448121D01*
X61660350Y-78562437D01*
X61698224Y-78653873D01*
X61719266Y-78704673D01*
X61729685Y-78718251D01*
X61812987Y-78826813D01*
X61819533Y-78831836D01*
X61819536Y-78831839D01*
X61837109Y-78845323D01*
X61849501Y-78856191D01*
X62013599Y-79020289D01*
X62047625Y-79082601D01*
X62049814Y-79096213D01*
X62065509Y-79245536D01*
X62119989Y-79413209D01*
X62208140Y-79565891D01*
X62212558Y-79570798D01*
X62212559Y-79570799D01*
X62311488Y-79680671D01*
X62326109Y-79696909D01*
X62390499Y-79743691D01*
X62451021Y-79787663D01*
X62468740Y-79800537D01*
X62474769Y-79803221D01*
X62474772Y-79803223D01*
X62623764Y-79869558D01*
X62623767Y-79869559D01*
X62629800Y-79872245D01*
X62666250Y-79879993D01*
X62795792Y-79907528D01*
X62795796Y-79907528D01*
X62802249Y-79908900D01*
X62978551Y-79908900D01*
X62985004Y-79907528D01*
X62985008Y-79907528D01*
X63114550Y-79879993D01*
X63151000Y-79872245D01*
X63157033Y-79869559D01*
X63157036Y-79869558D01*
X63306028Y-79803223D01*
X63306031Y-79803221D01*
X63312060Y-79800537D01*
X63329780Y-79787663D01*
X63390301Y-79743691D01*
X63454691Y-79696909D01*
X63469312Y-79680671D01*
X63568241Y-79570799D01*
X63568242Y-79570798D01*
X63572660Y-79565891D01*
X63660811Y-79413209D01*
X63715291Y-79245536D01*
X63718520Y-79214815D01*
X63745534Y-79149158D01*
X63792583Y-79112879D01*
X63839425Y-79092024D01*
X63839426Y-79092024D01*
X63845460Y-79089337D01*
X63854732Y-79082601D01*
X63940496Y-79020289D01*
X63988091Y-78985709D01*
X64106060Y-78854691D01*
X64168004Y-78747401D01*
X64190907Y-78707732D01*
X64190908Y-78707731D01*
X64194211Y-78702009D01*
X64237082Y-78570066D01*
X64246651Y-78540615D01*
X64246651Y-78540614D01*
X64248691Y-78534336D01*
X64250444Y-78517663D01*
X64266430Y-78365565D01*
X64267120Y-78359000D01*
X64258045Y-78272656D01*
X64249381Y-78190228D01*
X64249381Y-78190227D01*
X64248691Y-78183664D01*
X64244992Y-78172278D01*
X64196253Y-78022276D01*
X64194211Y-78015991D01*
X64182511Y-77995725D01*
X64132049Y-77908324D01*
X64106060Y-77863309D01*
X64066858Y-77819770D01*
X63992513Y-77737202D01*
X63992512Y-77737201D01*
X63988091Y-77732291D01*
X63845460Y-77628663D01*
X63839431Y-77625979D01*
X63839428Y-77625977D01*
X63690436Y-77559642D01*
X63690433Y-77559641D01*
X63684400Y-77556955D01*
X63524103Y-77522883D01*
X63461630Y-77489155D01*
X63427308Y-77427005D01*
X63424300Y-77399636D01*
X63424300Y-72461978D01*
X63425378Y-72445531D01*
X63428267Y-72423588D01*
X63429345Y-72415400D01*
X63424300Y-72377079D01*
X63409250Y-72262763D01*
X63361521Y-72147535D01*
X63354402Y-72098370D01*
X63352030Y-72098370D01*
X63352030Y-72091765D01*
X63352720Y-72085200D01*
X63335396Y-71920375D01*
X63334981Y-71916428D01*
X63334981Y-71916427D01*
X63334291Y-71909864D01*
X63319487Y-71864300D01*
X63281853Y-71748476D01*
X63279811Y-71742191D01*
X63191660Y-71589509D01*
X63135299Y-71526913D01*
X63078113Y-71463402D01*
X63078112Y-71463401D01*
X63073691Y-71458491D01*
X63012142Y-71413773D01*
X62968788Y-71357551D01*
X62962713Y-71286815D01*
X62995844Y-71224023D01*
X63060003Y-71188591D01*
X63068335Y-71186820D01*
X63068342Y-71186818D01*
X63074800Y-71185445D01*
X63080833Y-71182759D01*
X63080836Y-71182758D01*
X63229828Y-71116423D01*
X63229831Y-71116421D01*
X63235860Y-71113737D01*
X63378491Y-71010109D01*
X63393362Y-70993593D01*
X63492041Y-70883999D01*
X63492042Y-70883998D01*
X63496460Y-70879091D01*
X63566642Y-70757532D01*
X63581307Y-70732132D01*
X63581308Y-70732131D01*
X63584611Y-70726409D01*
X63639091Y-70558736D01*
X63657520Y-70383400D01*
X63640804Y-70224357D01*
X63639781Y-70214628D01*
X63639781Y-70214627D01*
X63639091Y-70208064D01*
X63584611Y-70040391D01*
X63496460Y-69887709D01*
X63402336Y-69783173D01*
X63382913Y-69761602D01*
X63382912Y-69761601D01*
X63378491Y-69756691D01*
X63323839Y-69716984D01*
X63280485Y-69660762D01*
X63271900Y-69615048D01*
X63271900Y-64203209D01*
X63291902Y-64135088D01*
X63304264Y-64118898D01*
X63365041Y-64051399D01*
X63365042Y-64051398D01*
X63369460Y-64046491D01*
X63457611Y-63893809D01*
X63512091Y-63726136D01*
X63514754Y-63700805D01*
X63529830Y-63557365D01*
X63530520Y-63550800D01*
X63516808Y-63420343D01*
X63512781Y-63382028D01*
X63512781Y-63382027D01*
X63512091Y-63375464D01*
X63457611Y-63207791D01*
X63369460Y-63055109D01*
X63356159Y-63040336D01*
X63255913Y-62929002D01*
X63255912Y-62929001D01*
X63251491Y-62924091D01*
X63108860Y-62820463D01*
X63102831Y-62817779D01*
X63102828Y-62817777D01*
X62953836Y-62751442D01*
X62953833Y-62751441D01*
X62947800Y-62748755D01*
X62882556Y-62734887D01*
X62781808Y-62713472D01*
X62781804Y-62713472D01*
X62775351Y-62712100D01*
X62599049Y-62712100D01*
X62592596Y-62713472D01*
X62592592Y-62713472D01*
X62491844Y-62734887D01*
X62426600Y-62748755D01*
X62420567Y-62751441D01*
X62420564Y-62751442D01*
X62271572Y-62817777D01*
X62271569Y-62817779D01*
X62265540Y-62820463D01*
X62122909Y-62924091D01*
X62118488Y-62929001D01*
X62118487Y-62929002D01*
X62018242Y-63040336D01*
X62004940Y-63055109D01*
X61995413Y-63071611D01*
X61982539Y-63093909D01*
X61931157Y-63142902D01*
X61861443Y-63156339D01*
X61822175Y-63146017D01*
X61728600Y-63104355D01*
X61679455Y-63093909D01*
X61562608Y-63069072D01*
X61562604Y-63069072D01*
X61556151Y-63067700D01*
X61379849Y-63067700D01*
X61373396Y-63069072D01*
X61373392Y-63069072D01*
X61256545Y-63093909D01*
X61207400Y-63104355D01*
X61201367Y-63107041D01*
X61201364Y-63107042D01*
X61052372Y-63173377D01*
X61052369Y-63173379D01*
X61046340Y-63176063D01*
X60903709Y-63279691D01*
X60785740Y-63410709D01*
X60697589Y-63563391D01*
X60643109Y-63731064D01*
X60642419Y-63737627D01*
X60642419Y-63737628D01*
X60635659Y-63801948D01*
X60624680Y-63906400D01*
X60625370Y-63912965D01*
X60639405Y-64046491D01*
X60643109Y-64081736D01*
X60645149Y-64088014D01*
X60645149Y-64088015D01*
X60697589Y-64249409D01*
X60696441Y-64249782D01*
X60704983Y-64313497D01*
X60674876Y-64377794D01*
X60614787Y-64415607D01*
X60543793Y-64414930D01*
X60529194Y-64409485D01*
X60464636Y-64380742D01*
X60464633Y-64380741D01*
X60458600Y-64378055D01*
X60412763Y-64368312D01*
X60292608Y-64342772D01*
X60292604Y-64342772D01*
X60286151Y-64341400D01*
X60109849Y-64341400D01*
X60103396Y-64342772D01*
X60103392Y-64342772D01*
X59983237Y-64368312D01*
X59937400Y-64378055D01*
X59931367Y-64380741D01*
X59931364Y-64380742D01*
X59782372Y-64447077D01*
X59782369Y-64447079D01*
X59776340Y-64449763D01*
X59770999Y-64453643D01*
X59770998Y-64453644D01*
X59751452Y-64467845D01*
X59633709Y-64553391D01*
X59515740Y-64684409D01*
X59515231Y-64683950D01*
X59462863Y-64724329D01*
X59392127Y-64730403D01*
X59336837Y-64703997D01*
X59296226Y-64670400D01*
X59296224Y-64670398D01*
X59291475Y-64666470D01*
X59117501Y-64572402D01*
X58928568Y-64513918D01*
X58922443Y-64513274D01*
X58922442Y-64513274D01*
X58738004Y-64493889D01*
X58738002Y-64493889D01*
X58731875Y-64493245D01*
X58649376Y-64500753D01*
X58541051Y-64510611D01*
X58541048Y-64510612D01*
X58534912Y-64511170D01*
X58529006Y-64512908D01*
X58529002Y-64512909D01*
X58437396Y-64539870D01*
X58345181Y-64567010D01*
X58339723Y-64569863D01*
X58339719Y-64569865D01*
X58248947Y-64617320D01*
X58169910Y-64658640D01*
X58015775Y-64782568D01*
X57888646Y-64934074D01*
X57885679Y-64939472D01*
X57885675Y-64939477D01*
X57810297Y-65076592D01*
X57793367Y-65107387D01*
X57791506Y-65113254D01*
X57791505Y-65113256D01*
X57748564Y-65248622D01*
X57733565Y-65295906D01*
X57711519Y-65492451D01*
X57712035Y-65498595D01*
X57726433Y-65670058D01*
X57728068Y-65689534D01*
X57729767Y-65695458D01*
X57775300Y-65854250D01*
X57782583Y-65879650D01*
X57872987Y-66055556D01*
X57876813Y-66060383D01*
X57880153Y-66065566D01*
X57878890Y-66066380D01*
X57902734Y-66125295D01*
X57889559Y-66195058D01*
X57840759Y-66246625D01*
X57777350Y-66263743D01*
X57770223Y-66263743D01*
X57702102Y-66243741D01*
X57681128Y-66226838D01*
X57147533Y-65693243D01*
X57113507Y-65630931D01*
X57111622Y-65588358D01*
X57118344Y-65535151D01*
X57121143Y-65512996D01*
X57121143Y-65512991D01*
X57121585Y-65509495D01*
X57121823Y-65492451D01*
X57121931Y-65484723D01*
X57121931Y-65484720D01*
X57121980Y-65481200D01*
X57102680Y-65284367D01*
X57045516Y-65095031D01*
X56952666Y-64920404D01*
X56853912Y-64799320D01*
X56831560Y-64771913D01*
X56831557Y-64771910D01*
X56827665Y-64767138D01*
X56821324Y-64761892D01*
X56680025Y-64644999D01*
X56680021Y-64644997D01*
X56675275Y-64641070D01*
X56501301Y-64547002D01*
X56312368Y-64488518D01*
X56306243Y-64487874D01*
X56306242Y-64487874D01*
X56121804Y-64468489D01*
X56121802Y-64468489D01*
X56115675Y-64467845D01*
X56033176Y-64475353D01*
X55924851Y-64485211D01*
X55924848Y-64485212D01*
X55918712Y-64485770D01*
X55912806Y-64487508D01*
X55912802Y-64487509D01*
X55834308Y-64510611D01*
X55728981Y-64541610D01*
X55723523Y-64544463D01*
X55723519Y-64544465D01*
X55664477Y-64575332D01*
X55553710Y-64633240D01*
X55399575Y-64757168D01*
X55272446Y-64908674D01*
X55269479Y-64914072D01*
X55269475Y-64914077D01*
X55190695Y-65057380D01*
X55177167Y-65081987D01*
X55175306Y-65087854D01*
X55175305Y-65087856D01*
X55132748Y-65222012D01*
X55117365Y-65270506D01*
X55095319Y-65467051D01*
X49838255Y-65467051D01*
X49820205Y-65403725D01*
X49840747Y-65335765D01*
X49892951Y-65290529D01*
X49927511Y-65274414D01*
X49937006Y-65268931D01*
X49989048Y-65232491D01*
X49997424Y-65222012D01*
X49990356Y-65208566D01*
X49005885Y-64224095D01*
X48971859Y-64161783D01*
X48973694Y-64136132D01*
X49640408Y-64136132D01*
X49640539Y-64137965D01*
X49644790Y-64144580D01*
X50350287Y-64850077D01*
X50362062Y-64856507D01*
X50374077Y-64847211D01*
X50409931Y-64796006D01*
X50415414Y-64786511D01*
X50507490Y-64589053D01*
X50511236Y-64578761D01*
X50567625Y-64368312D01*
X50569528Y-64357519D01*
X50588517Y-64140475D01*
X50588517Y-64129525D01*
X50569528Y-63912481D01*
X50567625Y-63901688D01*
X50511236Y-63691239D01*
X50507490Y-63680947D01*
X50415414Y-63483489D01*
X50409931Y-63473994D01*
X50373491Y-63421952D01*
X50363012Y-63413576D01*
X50349566Y-63420644D01*
X49648022Y-64122188D01*
X49640408Y-64136132D01*
X48973694Y-64136132D01*
X48976924Y-64090968D01*
X49005885Y-64045905D01*
X49991077Y-63060713D01*
X49997507Y-63048938D01*
X49988211Y-63036923D01*
X49937006Y-63001069D01*
X49927511Y-62995586D01*
X49892951Y-62979471D01*
X49839666Y-62932554D01*
X49820411Y-62865000D01*
X51429880Y-62865000D01*
X51430570Y-62871565D01*
X51432355Y-62888543D01*
X51448309Y-63040336D01*
X51502789Y-63208009D01*
X51590940Y-63360691D01*
X51595358Y-63365598D01*
X51595359Y-63365599D01*
X51692958Y-63473994D01*
X51708909Y-63491709D01*
X51790240Y-63550800D01*
X51819709Y-63572210D01*
X51851540Y-63595337D01*
X51857569Y-63598021D01*
X51857572Y-63598023D01*
X52006564Y-63664358D01*
X52006567Y-63664359D01*
X52012600Y-63667045D01*
X52049050Y-63674793D01*
X52178592Y-63702328D01*
X52178596Y-63702328D01*
X52185049Y-63703700D01*
X52361351Y-63703700D01*
X52361351Y-63704216D01*
X52383770Y-63705854D01*
X52383986Y-63704146D01*
X52391852Y-63705140D01*
X52399529Y-63707111D01*
X52419876Y-63707111D01*
X52439588Y-63708662D01*
X52459690Y-63711846D01*
X52467582Y-63711100D01*
X52503867Y-63707670D01*
X52515725Y-63707111D01*
X55402062Y-63707111D01*
X55470183Y-63727113D01*
X55476123Y-63731175D01*
X55573533Y-63801948D01*
X55579562Y-63804632D01*
X55579565Y-63804634D01*
X55728557Y-63870969D01*
X55728560Y-63870970D01*
X55734593Y-63873656D01*
X55771043Y-63881404D01*
X55900585Y-63908939D01*
X55900589Y-63908939D01*
X55907042Y-63910311D01*
X56083344Y-63910311D01*
X56089797Y-63908939D01*
X56089801Y-63908939D01*
X56219343Y-63881404D01*
X56255793Y-63873656D01*
X56261826Y-63870970D01*
X56261829Y-63870969D01*
X56410821Y-63804634D01*
X56410824Y-63804632D01*
X56416853Y-63801948D01*
X56559484Y-63698320D01*
X56587644Y-63667045D01*
X56673034Y-63572210D01*
X56673035Y-63572209D01*
X56677453Y-63567302D01*
X56765604Y-63414620D01*
X56820084Y-63246947D01*
X56827127Y-63179944D01*
X56837823Y-63078176D01*
X56838513Y-63071611D01*
X56831099Y-63001069D01*
X56820774Y-62902839D01*
X56820774Y-62902838D01*
X56820084Y-62896275D01*
X56810337Y-62866275D01*
X56767646Y-62734887D01*
X56765604Y-62728602D01*
X56677453Y-62575920D01*
X56559484Y-62444902D01*
X56455440Y-62369309D01*
X56422195Y-62345155D01*
X56422194Y-62345154D01*
X56416853Y-62341274D01*
X56410824Y-62338590D01*
X56410821Y-62338588D01*
X56261829Y-62272253D01*
X56261826Y-62272252D01*
X56255793Y-62269566D01*
X56193179Y-62256257D01*
X56089801Y-62234283D01*
X56089797Y-62234283D01*
X56083344Y-62232911D01*
X55907042Y-62232911D01*
X55900589Y-62234283D01*
X55900585Y-62234283D01*
X55797207Y-62256257D01*
X55734593Y-62269566D01*
X55728560Y-62272252D01*
X55728557Y-62272253D01*
X55579565Y-62338588D01*
X55579562Y-62338590D01*
X55573533Y-62341274D01*
X55568192Y-62345154D01*
X55568191Y-62345155D01*
X55476123Y-62412047D01*
X55409256Y-62435905D01*
X55402062Y-62436111D01*
X53066774Y-62436111D01*
X52998653Y-62416109D01*
X52963787Y-62379541D01*
X52962644Y-62380371D01*
X52958761Y-62375027D01*
X52955460Y-62369309D01*
X52868071Y-62272253D01*
X52841913Y-62243202D01*
X52841912Y-62243201D01*
X52837491Y-62238291D01*
X52694860Y-62134663D01*
X52688831Y-62131979D01*
X52688828Y-62131977D01*
X52539836Y-62065642D01*
X52539833Y-62065641D01*
X52533800Y-62062955D01*
X52497350Y-62055207D01*
X52367808Y-62027672D01*
X52367804Y-62027672D01*
X52361351Y-62026300D01*
X52185049Y-62026300D01*
X52178596Y-62027672D01*
X52178592Y-62027672D01*
X52049050Y-62055207D01*
X52012600Y-62062955D01*
X52006567Y-62065641D01*
X52006564Y-62065642D01*
X51857572Y-62131977D01*
X51857569Y-62131979D01*
X51851540Y-62134663D01*
X51708909Y-62238291D01*
X51704488Y-62243201D01*
X51704487Y-62243202D01*
X51678330Y-62272253D01*
X51590940Y-62369309D01*
X51502789Y-62521991D01*
X51448309Y-62689664D01*
X51447619Y-62696227D01*
X51447619Y-62696228D01*
X51437099Y-62796317D01*
X51429880Y-62865000D01*
X49820411Y-62865000D01*
X49820205Y-62864277D01*
X49840747Y-62796317D01*
X49892951Y-62751081D01*
X49927762Y-62734849D01*
X49927767Y-62734846D01*
X49932749Y-62732523D01*
X50037611Y-62659098D01*
X50115789Y-62604357D01*
X50115792Y-62604355D01*
X50120300Y-62601198D01*
X50282198Y-62439300D01*
X50413523Y-62251749D01*
X50415846Y-62246767D01*
X50415849Y-62246762D01*
X50507961Y-62049225D01*
X50507961Y-62049224D01*
X50510284Y-62044243D01*
X50569543Y-61823087D01*
X50589498Y-61595000D01*
X50569543Y-61366913D01*
X50510284Y-61145757D01*
X50507961Y-61140775D01*
X50415849Y-60943238D01*
X50415846Y-60943233D01*
X50413523Y-60938251D01*
X50282198Y-60750700D01*
X50120300Y-60588802D01*
X50115792Y-60585645D01*
X50115789Y-60585643D01*
X49949728Y-60469366D01*
X49932749Y-60457477D01*
X49927767Y-60455154D01*
X49927762Y-60455151D01*
X49893543Y-60439195D01*
X49840258Y-60392278D01*
X49820797Y-60324001D01*
X49841339Y-60256041D01*
X49893543Y-60210805D01*
X49927762Y-60194849D01*
X49927767Y-60194846D01*
X49932749Y-60192523D01*
X50037611Y-60119098D01*
X50115789Y-60064357D01*
X50115792Y-60064355D01*
X50120300Y-60061198D01*
X50282198Y-59899300D01*
X50413523Y-59711749D01*
X50415846Y-59706767D01*
X50415849Y-59706762D01*
X50507961Y-59509225D01*
X50507961Y-59509224D01*
X50510284Y-59504243D01*
X50569543Y-59283087D01*
X50589498Y-59055000D01*
X50569543Y-58826913D01*
X50510284Y-58605757D01*
X50507961Y-58600775D01*
X50415849Y-58403238D01*
X50415846Y-58403233D01*
X50413523Y-58398251D01*
X50282198Y-58210700D01*
X50120300Y-58048802D01*
X50115789Y-58045643D01*
X50111576Y-58042108D01*
X50112527Y-58040974D01*
X50072529Y-57990929D01*
X50065224Y-57920310D01*
X50097258Y-57856951D01*
X50158462Y-57820970D01*
X50175517Y-57817918D01*
X50186316Y-57816745D01*
X50322705Y-57765615D01*
X50439261Y-57678261D01*
X50526615Y-57561705D01*
X50577745Y-57425316D01*
X50584500Y-57363134D01*
X50584500Y-55666866D01*
X50577745Y-55604684D01*
X50526615Y-55468295D01*
X50439261Y-55351739D01*
X50345823Y-55281711D01*
X56160844Y-55281711D01*
X56170140Y-55293726D01*
X56205137Y-55318231D01*
X56214632Y-55323714D01*
X56400196Y-55410244D01*
X56410488Y-55413990D01*
X56608259Y-55466982D01*
X56619054Y-55468885D01*
X56823025Y-55486731D01*
X56833975Y-55486731D01*
X57037946Y-55468885D01*
X57048741Y-55466982D01*
X57246512Y-55413990D01*
X57256804Y-55410244D01*
X57442368Y-55323714D01*
X57451863Y-55318231D01*
X57487697Y-55293140D01*
X57496073Y-55282661D01*
X57495574Y-55281711D01*
X61160844Y-55281711D01*
X61170140Y-55293726D01*
X61205137Y-55318231D01*
X61214632Y-55323714D01*
X61400196Y-55410244D01*
X61410488Y-55413990D01*
X61608259Y-55466982D01*
X61619054Y-55468885D01*
X61823025Y-55486731D01*
X61833975Y-55486731D01*
X62037946Y-55468885D01*
X62048741Y-55466982D01*
X62246512Y-55413990D01*
X62256804Y-55410244D01*
X62442368Y-55323714D01*
X62451863Y-55318231D01*
X62487697Y-55293140D01*
X62496073Y-55282661D01*
X62489005Y-55269215D01*
X61841312Y-54621522D01*
X61827368Y-54613908D01*
X61825535Y-54614039D01*
X61818920Y-54618290D01*
X61167274Y-55269936D01*
X61160844Y-55281711D01*
X57495574Y-55281711D01*
X57489005Y-55269215D01*
X56841312Y-54621522D01*
X56827368Y-54613908D01*
X56825535Y-54614039D01*
X56818920Y-54618290D01*
X56167274Y-55269936D01*
X56160844Y-55281711D01*
X50345823Y-55281711D01*
X50322705Y-55264385D01*
X50186316Y-55213255D01*
X50124134Y-55206500D01*
X48530000Y-55206500D01*
X48461879Y-55186498D01*
X48415386Y-55132842D01*
X48404000Y-55080500D01*
X48404000Y-53669784D01*
X48424002Y-53601663D01*
X48477658Y-53555170D01*
X48547932Y-53545066D01*
X48612512Y-53574560D01*
X48642565Y-53613169D01*
X48726885Y-53780822D01*
X48889721Y-54017750D01*
X49083206Y-54230388D01*
X49086501Y-54233143D01*
X49086502Y-54233144D01*
X49137258Y-54275582D01*
X49303759Y-54414798D01*
X49547298Y-54567571D01*
X49809318Y-54685877D01*
X49813437Y-54687097D01*
X50080857Y-54766311D01*
X50080862Y-54766312D01*
X50084970Y-54767529D01*
X50089204Y-54768177D01*
X50089209Y-54768178D01*
X50337811Y-54806219D01*
X50369153Y-54811015D01*
X50515485Y-54813314D01*
X50652317Y-54815464D01*
X50652323Y-54815464D01*
X50656608Y-54815531D01*
X50660860Y-54815016D01*
X50660868Y-54815016D01*
X50937756Y-54781508D01*
X50937761Y-54781507D01*
X50942017Y-54780992D01*
X51220097Y-54708039D01*
X51485704Y-54598021D01*
X51733922Y-54452974D01*
X51960159Y-54275582D01*
X51980129Y-54254975D01*
X55591269Y-54254975D01*
X55609115Y-54458946D01*
X55611018Y-54469741D01*
X55664010Y-54667512D01*
X55667756Y-54677804D01*
X55754286Y-54863368D01*
X55759769Y-54872863D01*
X55784860Y-54908697D01*
X55795339Y-54917073D01*
X55808785Y-54910005D01*
X56456478Y-54262312D01*
X56462856Y-54250632D01*
X57192908Y-54250632D01*
X57193039Y-54252465D01*
X57197290Y-54259080D01*
X57848936Y-54910726D01*
X57860711Y-54917156D01*
X57872726Y-54907860D01*
X57897231Y-54872863D01*
X57902714Y-54863368D01*
X57989244Y-54677804D01*
X57992990Y-54667512D01*
X58045982Y-54469741D01*
X58047885Y-54458946D01*
X58065731Y-54254975D01*
X60591269Y-54254975D01*
X60609115Y-54458946D01*
X60611018Y-54469741D01*
X60664010Y-54667512D01*
X60667756Y-54677804D01*
X60754286Y-54863368D01*
X60759769Y-54872863D01*
X60784860Y-54908697D01*
X60795339Y-54917073D01*
X60808785Y-54910005D01*
X61456478Y-54262312D01*
X61462856Y-54250632D01*
X62192908Y-54250632D01*
X62193039Y-54252465D01*
X62197290Y-54259080D01*
X62848936Y-54910726D01*
X62860711Y-54917156D01*
X62872726Y-54907860D01*
X62897231Y-54872863D01*
X62902714Y-54863368D01*
X62989244Y-54677804D01*
X62992990Y-54667512D01*
X63045982Y-54469741D01*
X63047885Y-54458946D01*
X63065731Y-54254975D01*
X63065731Y-54244025D01*
X63047885Y-54040054D01*
X63045982Y-54029259D01*
X62992990Y-53831488D01*
X62989244Y-53821196D01*
X62902714Y-53635632D01*
X62897231Y-53626137D01*
X62872140Y-53590303D01*
X62861661Y-53581927D01*
X62848215Y-53588995D01*
X62200522Y-54236688D01*
X62192908Y-54250632D01*
X61462856Y-54250632D01*
X61464092Y-54248368D01*
X61463961Y-54246535D01*
X61459710Y-54239920D01*
X60808064Y-53588274D01*
X60796289Y-53581844D01*
X60784274Y-53591140D01*
X60759769Y-53626137D01*
X60754286Y-53635632D01*
X60667756Y-53821196D01*
X60664010Y-53831488D01*
X60611018Y-54029259D01*
X60609115Y-54040054D01*
X60591269Y-54244025D01*
X60591269Y-54254975D01*
X58065731Y-54254975D01*
X58065731Y-54244025D01*
X58047885Y-54040054D01*
X58045982Y-54029259D01*
X57992990Y-53831488D01*
X57989244Y-53821196D01*
X57902714Y-53635632D01*
X57897231Y-53626137D01*
X57872140Y-53590303D01*
X57861661Y-53581927D01*
X57848215Y-53588995D01*
X57200522Y-54236688D01*
X57192908Y-54250632D01*
X56462856Y-54250632D01*
X56464092Y-54248368D01*
X56463961Y-54246535D01*
X56459710Y-54239920D01*
X55808064Y-53588274D01*
X55796289Y-53581844D01*
X55784274Y-53591140D01*
X55759769Y-53626137D01*
X55754286Y-53635632D01*
X55667756Y-53821196D01*
X55664010Y-53831488D01*
X55611018Y-54029259D01*
X55609115Y-54040054D01*
X55591269Y-54244025D01*
X55591269Y-54254975D01*
X51980129Y-54254975D01*
X51984338Y-54250632D01*
X52157244Y-54072206D01*
X52160227Y-54069128D01*
X52162760Y-54065680D01*
X52162764Y-54065675D01*
X52327887Y-53840886D01*
X52330425Y-53837431D01*
X52442686Y-53630673D01*
X52465554Y-53588555D01*
X52465555Y-53588553D01*
X52467604Y-53584779D01*
X52569225Y-53315848D01*
X52606391Y-53153570D01*
X52632449Y-53039797D01*
X52632450Y-53039793D01*
X52633407Y-53035613D01*
X52635491Y-53012269D01*
X52658743Y-52751726D01*
X52658743Y-52751724D01*
X52658963Y-52749260D01*
X52659427Y-52705000D01*
X52657528Y-52677147D01*
X52640165Y-52422452D01*
X52640164Y-52422446D01*
X52639873Y-52418175D01*
X52635336Y-52396264D01*
X52582443Y-52140855D01*
X52581574Y-52136658D01*
X52515238Y-51949332D01*
X54720500Y-51949332D01*
X54720785Y-51955308D01*
X54734971Y-52103994D01*
X54737230Y-52115728D01*
X54793372Y-52307099D01*
X54797802Y-52318175D01*
X54889119Y-52495478D01*
X54895569Y-52505524D01*
X55018762Y-52662357D01*
X55026999Y-52671006D01*
X55177623Y-52801712D01*
X55187347Y-52808647D01*
X55359967Y-52908510D01*
X55370831Y-52913484D01*
X55559227Y-52978907D01*
X55560216Y-52979148D01*
X55570508Y-52977680D01*
X55574500Y-52964115D01*
X55574500Y-52959902D01*
X56082500Y-52959902D01*
X56086473Y-52973432D01*
X56115438Y-52977596D01*
X56180019Y-53007089D01*
X56218403Y-53066815D01*
X56218403Y-53137812D01*
X56180020Y-53197538D01*
X56169780Y-53205525D01*
X56169305Y-53205858D01*
X56160927Y-53216339D01*
X56167995Y-53229785D01*
X56815688Y-53877478D01*
X56829632Y-53885092D01*
X56831465Y-53884961D01*
X56838080Y-53880710D01*
X57489726Y-53229064D01*
X57496156Y-53217289D01*
X57495421Y-53216339D01*
X61160927Y-53216339D01*
X61167995Y-53229785D01*
X61815688Y-53877478D01*
X61829632Y-53885092D01*
X61831465Y-53884961D01*
X61838080Y-53880710D01*
X62489726Y-53229064D01*
X62496156Y-53217289D01*
X62475151Y-53190139D01*
X62476368Y-53189197D01*
X62447890Y-53153570D01*
X62440580Y-53082951D01*
X62472611Y-53019590D01*
X62533812Y-52983605D01*
X62546701Y-52981075D01*
X62570508Y-52977680D01*
X62574500Y-52964115D01*
X62574500Y-52959902D01*
X63082500Y-52959902D01*
X63086473Y-52973433D01*
X63095899Y-52974788D01*
X63185037Y-52953306D01*
X63196332Y-52949417D01*
X63377882Y-52866871D01*
X63388224Y-52860924D01*
X63550897Y-52745532D01*
X63559925Y-52737739D01*
X63697842Y-52593669D01*
X63705238Y-52584304D01*
X63813421Y-52416759D01*
X63818917Y-52406155D01*
X63893461Y-52221188D01*
X63896855Y-52209730D01*
X63935357Y-52012572D01*
X63936434Y-52003709D01*
X63936500Y-52001000D01*
X63936500Y-51821615D01*
X63932025Y-51806376D01*
X63930635Y-51805171D01*
X63922952Y-51803500D01*
X63100615Y-51803500D01*
X63085376Y-51807975D01*
X63084171Y-51809365D01*
X63082500Y-51817048D01*
X63082500Y-52959902D01*
X62574500Y-52959902D01*
X62574500Y-51821615D01*
X62570025Y-51806376D01*
X62568635Y-51805171D01*
X62560952Y-51803500D01*
X61738615Y-51803500D01*
X61723376Y-51807975D01*
X61722171Y-51809365D01*
X61720500Y-51817048D01*
X61720500Y-51949332D01*
X61720785Y-51955308D01*
X61734971Y-52103994D01*
X61737230Y-52115728D01*
X61793372Y-52307099D01*
X61797802Y-52318175D01*
X61889119Y-52495478D01*
X61895569Y-52505524D01*
X62018762Y-52662357D01*
X62026999Y-52671006D01*
X62177623Y-52801712D01*
X62187347Y-52808647D01*
X62200532Y-52816275D01*
X62249481Y-52867700D01*
X62262856Y-52937426D01*
X62236411Y-53003314D01*
X62178543Y-53044445D01*
X62104826Y-53047046D01*
X62048741Y-53032018D01*
X62037946Y-53030115D01*
X61833975Y-53012269D01*
X61823025Y-53012269D01*
X61619054Y-53030115D01*
X61608259Y-53032018D01*
X61410488Y-53085010D01*
X61400196Y-53088756D01*
X61214632Y-53175286D01*
X61205137Y-53180769D01*
X61169303Y-53205860D01*
X61160927Y-53216339D01*
X57495421Y-53216339D01*
X57486860Y-53205274D01*
X57451863Y-53180769D01*
X57442368Y-53175286D01*
X57256804Y-53088756D01*
X57246512Y-53085010D01*
X57048741Y-53032018D01*
X57037946Y-53030115D01*
X56833975Y-53012269D01*
X56823025Y-53012269D01*
X56619054Y-53030115D01*
X56608262Y-53032018D01*
X56545156Y-53048927D01*
X56474179Y-53047237D01*
X56415383Y-53007443D01*
X56387435Y-52942179D01*
X56399208Y-52872165D01*
X56439644Y-52824451D01*
X56550890Y-52745538D01*
X56559925Y-52737739D01*
X56697842Y-52593669D01*
X56705238Y-52584304D01*
X56813421Y-52416759D01*
X56818917Y-52406155D01*
X56893461Y-52221188D01*
X56896855Y-52209730D01*
X56935357Y-52012572D01*
X56936434Y-52003709D01*
X56936500Y-52001000D01*
X56936500Y-51821615D01*
X56932025Y-51806376D01*
X56930635Y-51805171D01*
X56922952Y-51803500D01*
X56100615Y-51803500D01*
X56085376Y-51807975D01*
X56084171Y-51809365D01*
X56082500Y-51817048D01*
X56082500Y-52959902D01*
X55574500Y-52959902D01*
X55574500Y-51821615D01*
X55570025Y-51806376D01*
X55568635Y-51805171D01*
X55560952Y-51803500D01*
X54738615Y-51803500D01*
X54723376Y-51807975D01*
X54722171Y-51809365D01*
X54720500Y-51817048D01*
X54720500Y-51949332D01*
X52515238Y-51949332D01*
X52485607Y-51865657D01*
X52353750Y-51610188D01*
X52340488Y-51591317D01*
X52190904Y-51378482D01*
X52188441Y-51374977D01*
X52114586Y-51295500D01*
X51995661Y-51167521D01*
X51995658Y-51167519D01*
X51992740Y-51164378D01*
X51770268Y-50982287D01*
X51525142Y-50832073D01*
X51462038Y-50804372D01*
X51407704Y-50758677D01*
X51386699Y-50690859D01*
X51405694Y-50622450D01*
X51458657Y-50575171D01*
X51512685Y-50563000D01*
X54703785Y-50563000D01*
X54771906Y-50583002D01*
G37*
%TD.AperFunction*%
%TD*%
M02*
